AnekKannada-ExpandedThin.ufo
<glyph name="quotesingle" format="2">
  <advance width="380"/>
  <unicode hex="0027"/>
  <outline>
    <contour>
      <point x="210" y="1324" type="line"/>
      <point x="170" y="1324" type="line"/>
      <point x="174" y="822" type="line"/>
      <point x="206" y="822" type="line"/>
    </contour>
  </outline>
</glyph>
<glyph name="comma" format="2">
  <advance width="363"/>
  <unicode hex="002C"/>
  <outline>
    <contour>
      <point x="172" y="240" type="line"/>
      <point x="178" y="206"/>
      <point x="181" y="171"/>
      <point x="181" y="132" type="curve" smooth="yes"/>
      <point x="181" y="-27"/>
      <point x="146" y="-146"/>
      <point x="44" y="-272" type="curve"/>
      <point x="67" y="-294" type="line"/>
      <point x="181" y="-162"/>
      <point x="219" y="-32"/>
      <point x="219" y="134" type="curve" smooth="yes"/>
      <point x="219" y="180"/>
      <point x="213" y="219"/>
      <point x="210" y="240" type="curve"/>
    </contour>
  </outline>
</glyph>
<glyph name="greater" format="2">
  <advance width="1402"/>
  <unicode hex="003E"/>
  <outline>
    <contour>
      <point x="1204" y="601" type="line"/>
      <point x="217" y="281" type="line"/>
      <point x="217" y="241" type="line"/>
      <point x="1236" y="576" type="line"/>
      <point x="1236" y="652" type="line"/>
      <point x="217" y="987" type="line"/>
      <point x="217" y="947" type="line"/>
      <point x="1204" y="627" type="line"/>
    </contour>
  </outline>
</glyph>
<glyph name="B" format="2">
  <advance width="1596"/>
  <unicode hex="0042"/>
  <anchor x="798" y="0" name="bottom"/>
  <anchor x="798" y="1278" name="top"/>
  <outline>
    <contour>
      <point x="1066" y="0" type="line" smooth="yes"/>
      <point x="1333" y="0"/>
      <point x="1454" y="133"/>
      <point x="1454" y="327" type="curve" smooth="yes"/>
      <point x="1454" y="349" type="line" smooth="yes"/>
      <point x="1454" y="547"/>
      <point x="1335" y="675"/>
      <point x="1079" y="675" type="curve"/>
      <point x="1061" y="661" type="line"/>
      <point x="1303" y="661"/>
      <point x="1412" y="784"/>
      <point x="1412" y="954" type="curve" smooth="yes"/>
      <point x="1412" y="974" type="line" smooth="yes"/>
      <point x="1412" y="1155"/>
      <point x="1294" y="1278"/>
      <point x="1036" y="1278" type="curve" smooth="yes"/>
      <point x="254" y="1278" type="line"/>
      <point x="254" y="1244" type="line"/>
      <point x="1034" y="1244" type="line" smooth="yes"/>
      <point x="1271" y="1244"/>
      <point x="1372" y="1137"/>
      <point x="1372" y="972" type="curve" smooth="yes"/>
      <point x="1372" y="956" type="line" smooth="yes"/>
      <point x="1372" y="795"/>
      <point x="1271" y="681"/>
      <point x="1054" y="681" type="curve" smooth="yes"/>
      <point x="254" y="681" type="line"/>
      <point x="254" y="647" type="line"/>
      <point x="1057" y="647" type="line" smooth="yes"/>
      <point x="1313" y="647"/>
      <point x="1414" y="531"/>
      <point x="1414" y="347" type="curve" smooth="yes"/>
      <point x="1414" y="329" type="line" smooth="yes"/>
      <point x="1414" y="151"/>
      <point x="1309" y="34"/>
      <point x="1064" y="34" type="curve" smooth="yes"/>
      <point x="254" y="34" type="line"/>
      <point x="254" y="0" type="line"/>
    </contour>
    <contour>
      <point x="275" y="0" type="line"/>
      <point x="275" y="1278" type="line"/>
      <point x="236" y="1278" type="line"/>
      <point x="236" y="0" type="line"/>
    </contour>
  </outline>
</glyph>
<glyph name="O" format="2">
  <advance width="1653"/>
  <unicode hex="004F"/>
  <anchor x="827" y="0" name="bottom"/>
  <anchor x="827" y="639" name="center"/>
  <anchor x="1062" y="0" name="ogonek"/>
  <anchor x="827" y="1278" name="top"/>
  <anchor x="20" y="1278" name="topleft"/>
  <anchor x="1250" y="1278" name="topright"/>
  <outline>
    <contour>
      <point x="826" y="-21" type="curve" smooth="yes"/>
      <point x="1267" y="-21"/>
      <point x="1511" y="213"/>
      <point x="1511" y="629" type="curve"/>
      <point x="1511" y="650" type="line"/>
      <point x="1512" y="1066"/>
      <point x="1267" y="1299"/>
      <point x="826" y="1299" type="curve" smooth="yes"/>
      <point x="386" y="1299"/>
      <point x="142" y="1066"/>
      <point x="142" y="650" type="curve"/>
      <point x="142" y="629" type="line"/>
      <point x="142" y="213"/>
      <point x="386" y="-21"/>
    </contour>
    <contour>
      <point x="826" y="16" type="curve" smooth="yes"/>
      <point x="409" y="16"/>
      <point x="183" y="236"/>
      <point x="183" y="629" type="curve" smooth="yes"/>
      <point x="183" y="650" type="line" smooth="yes"/>
      <point x="183" y="1044"/>
      <point x="409" y="1262"/>
      <point x="826" y="1262" type="curve" smooth="yes"/>
      <point x="1244" y="1262"/>
      <point x="1470" y="1044"/>
      <point x="1470" y="650" type="curve" smooth="yes"/>
      <point x="1470" y="629" type="line" smooth="yes"/>
      <point x="1470" y="236"/>
      <point x="1244" y="16"/>
    </contour>
  </outline>
</glyph>
<glyph name="g" format="2">
  <advance width="1372"/>
  <unicode hex="0067"/>
  <anchor x="686" y="-338" name="bottom"/>
  <anchor x="686" y="952" name="top"/>
  <outline>
    <contour>
      <point x="688" y="341" type="curve" smooth="yes"/>
      <point x="1037" y="341"/>
      <point x="1220" y="447"/>
      <point x="1220" y="650" type="curve" smooth="yes"/>
      <point x="1220" y="665" type="line" smooth="yes"/>
      <point x="1220" y="815"/>
      <point x="1117" y="930"/>
      <point x="809" y="955" type="curve"/>
      <point x="805" y="951" type="line"/>
      <point x="1324" y="946" type="line"/>
      <point x="1324" y="982" type="line"/>
      <point x="666" y="972" type="line" smooth="yes"/>
      <point x="329" y="967"/>
      <point x="157" y="861"/>
      <point x="157" y="666" type="curve" smooth="yes"/>
      <point x="157" y="650" type="line" smooth="yes"/>
      <point x="157" y="447"/>
      <point x="342" y="341"/>
    </contour>
    <contour>
      <point x="675" y="-343" type="line" smooth="yes"/>
      <point x="369" y="-343"/>
      <point x="145" y="-302"/>
      <point x="145" y="-128" type="curve"/>
      <point x="145" y="-126" type="line"/>
      <point x="145" y="25"/>
      <point x="314" y="74"/>
      <point x="533" y="91" type="curve"/>
      <point x="489" y="90" type="line"/>
      <point x="915" y="67" type="line" smooth="yes"/>
      <point x="1146" y="55"/>
      <point x="1236" y="-5"/>
      <point x="1236" y="-125" type="curve" smooth="yes"/>
      <point x="1236" y="-129" type="line" smooth="yes"/>
      <point x="1236" y="-298"/>
      <point x="1002" y="-343"/>
      <point x="694" y="-343" type="curve" smooth="yes"/>
    </contour>
    <contour>
      <point x="694" y="-377" type="line" smooth="yes"/>
      <point x="1028" y="-377"/>
      <point x="1273" y="-326"/>
      <point x="1273" y="-126" type="curve" smooth="yes"/>
      <point x="1273" y="-123" type="line" smooth="yes"/>
      <point x="1273" y="12"/>
      <point x="1168" y="88"/>
      <point x="916" y="100" type="curve" smooth="yes"/>
      <point x="550" y="118" type="line" smooth="yes"/>
      <point x="301" y="130"/>
      <point x="223" y="167"/>
      <point x="223" y="246" type="curve"/>
      <point x="223" y="246" type="line"/>
      <point x="223" y="314"/>
      <point x="270" y="352"/>
      <point x="467" y="352" type="curve"/>
      <point x="545" y="352" type="line"/>
      <point x="437" y="391" type="line"/>
      <point x="437" y="370" type="line"/>
      <point x="236" y="373"/>
      <point x="188" y="320"/>
      <point x="188" y="245" type="curve"/>
      <point x="188" y="245" type="line"/>
      <point x="188" y="154"/>
      <point x="264" y="105"/>
      <point x="474" y="93" type="curve"/>
      <point x="483" y="104" type="line"/>
      <point x="287" y="97"/>
      <point x="107" y="46"/>
      <point x="107" y="-128" type="curve" smooth="yes"/>
      <point x="107" y="-131" type="line" smooth="yes"/>
      <point x="107" y="-330"/>
      <point x="342" y="-377"/>
      <point x="675" y="-377" type="curve" smooth="yes"/>
    </contour>
    <contour>
      <point x="688" y="375" type="curve" smooth="yes"/>
      <point x="368" y="375"/>
      <point x="194" y="472"/>
      <point x="194" y="650" type="curve" smooth="yes"/>
      <point x="194" y="666" type="line" smooth="yes"/>
      <point x="194" y="845"/>
      <point x="368" y="942"/>
      <point x="688" y="942" type="curve" smooth="yes"/>
      <point x="700" y="942" type="line" smooth="yes"/>
      <point x="1015" y="942"/>
      <point x="1184" y="842"/>
      <point x="1184" y="666" type="curve" smooth="yes"/>
      <point x="1184" y="650" type="line" smooth="yes"/>
      <point x="1184" y="472"/>
      <point x="1011" y="375"/>
    </contour>
  </outline>
</glyph>
<glyph name="o" format="2">
  <advance width="1392"/>
  <unicode hex="006F"/>
  <anchor x="696" y="0" name="bottom"/>
  <anchor x="696" y="476" name="center"/>
  <anchor x="953" y="0" name="ogonek"/>
  <anchor x="696" y="952" name="top"/>
  <anchor x="1129" y="952" name="topright"/>
  <outline>
    <contour>
      <point x="697" y="-25" type="curve" smooth="yes"/>
      <point x="1063" y="-25"/>
      <point x="1258" y="142"/>
      <point x="1258" y="463" type="curve"/>
      <point x="1258" y="491" type="line"/>
      <point x="1258" y="810"/>
      <point x="1063" y="977"/>
      <point x="697" y="977" type="curve" smooth="yes"/>
      <point x="330" y="977"/>
      <point x="134" y="810"/>
      <point x="134" y="491" type="curve"/>
      <point x="134" y="463" type="line"/>
      <point x="134" y="144"/>
      <point x="328" y="-25"/>
    </contour>
    <contour>
      <point x="697" y="9" type="curve" smooth="yes"/>
      <point x="357" y="9"/>
      <point x="172" y="167"/>
      <point x="172" y="463" type="curve" smooth="yes"/>
      <point x="172" y="491" type="line" smooth="yes"/>
      <point x="172" y="787"/>
      <point x="357" y="943"/>
      <point x="697" y="943" type="curve" smooth="yes"/>
      <point x="1037" y="943"/>
      <point x="1220" y="787"/>
      <point x="1220" y="491" type="curve" smooth="yes"/>
      <point x="1220" y="463" type="line" smooth="yes"/>
      <point x="1220" y="167"/>
      <point x="1035" y="9"/>
    </contour>
  </outline>
</glyph>
<glyph name="r" format="2">
  <advance width="1015"/>
  <unicode hex="0072"/>
  <anchor x="222" y="0" name="bottom"/>
  <anchor x="544" y="952" name="top"/>
  <outline>
    <contour>
      <point x="232" y="548" type="line"/>
      <point x="327" y="806"/>
      <point x="520" y="935"/>
      <point x="743" y="935" type="curve" smooth="yes"/>
      <point x="836" y="935"/>
      <point x="910" y="915"/>
      <point x="967" y="890" type="curve"/>
      <point x="965" y="928" type="line"/>
      <point x="915" y="950"/>
      <point x="845" y="970"/>
      <point x="748" y="970" type="curve" smooth="yes"/>
      <point x="500" y="970"/>
      <point x="306" y="823"/>
      <point x="225" y="585" type="curve"/>
      <point x="211" y="572" type="line"/>
    </contour>
    <contour>
      <point x="240" y="0" type="line"/>
      <point x="240" y="595" type="line"/>
      <point x="236" y="595" type="line"/>
      <point x="240" y="952" type="line"/>
      <point x="202" y="952" type="line"/>
      <point x="202" y="0" type="line"/>
    </contour>
  </outline>
</glyph>
<glyph name="exclamdown" format="2">
  <advance width="516"/>
  <unicode hex="00A1"/>
  <outline>
    <contour>
      <point x="278" y="-326" type="line"/>
      <point x="237" y="-326" type="line"/>
      <point x="242" y="585" type="line"/>
      <point x="273" y="585" type="line"/>
    </contour>
    <contour>
      <point x="257" y="966" type="curve" smooth="yes"/>
      <point x="295" y="966"/>
      <point x="316" y="948"/>
      <point x="316" y="913" type="curve" smooth="yes"/>
      <point x="316" y="909" type="line" smooth="yes"/>
      <point x="316" y="875"/>
      <point x="295" y="858"/>
      <point x="257" y="858" type="curve" smooth="yes"/>
      <point x="222" y="858"/>
      <point x="200" y="875"/>
      <point x="200" y="909" type="curve" smooth="yes"/>
      <point x="200" y="913" type="line" smooth="yes"/>
      <point x="200" y="948"/>
      <point x="222" y="966"/>
    </contour>
  </outline>
</glyph>
<glyph name="cent" format="2">
  <advance width="1245"/>
  <unicode hex="00A2"/>
  <outline>
    <component base="c"/>
    <contour>
      <point x="701" y="1225" type="line"/>
      <point x="665" y="1225" type="line"/>
      <point x="665" y="964.589" type="line"/>
      <point x="701" y="964.589" type="line"/>
    </contour>
    <contour>
      <point x="701" y="-5.80973" type="line"/>
      <point x="665" y="-5.80973" type="line"/>
      <point x="665" y="-270" type="line"/>
      <point x="701" y="-270" type="line"/>
    </contour>
  </outline>
</glyph>
<glyph name="yen" format="2">
  <advance width="1488"/>
  <unicode hex="00A5"/>
  <outline>
    <component base="Y"/>
    <contour>
      <point x="1326" y="633" type="line"/>
      <point x="1333" y="665" type="line"/>
      <point x="925" y="665" type="line"/>
      <point x="903" y="633" type="line"/>
    </contour>
    <contour>
      <point x="156" y="294" type="line"/>
      <point x="1326" y="294" type="line"/>
      <point x="1333" y="326" type="line"/>
      <point x="163" y="326" type="line"/>
    </contour>
    <contour>
      <point x="163" y="665" type="line"/>
      <point x="156" y="633" type="line"/>
      <point x="580" y="633" type="line"/>
      <point x="558" y="665" type="line"/>
    </contour>
  </outline>
</glyph>
<glyph name="logicalnot" format="2">
  <advance width="1371"/>
  <unicode hex="00AC"/>
  <outline>
    <contour>
      <point x="1185" y="610" type="line"/>
      <point x="1149" y="610" type="line"/>
      <point x="1149" y="104" type="line"/>
      <point x="1185" y="104" type="line"/>
    </contour>
    <contour>
      <point x="1185" y="596" type="line"/>
      <point x="1185" y="630" type="line"/>
      <point x="166" y="630" type="line"/>
      <point x="166" y="596" type="line"/>
    </contour>
  </outline>
</glyph>
<glyph name="registered" format="2">
  <advance width="1041"/>
  <unicode hex="00AE"/>
  <outline>
    <contour>
      <point x="521" y="553" type="curve" smooth="yes"/>
      <point x="783" y="553"/>
      <point x="941" y="684"/>
      <point x="941" y="924" type="curve"/>
      <point x="941" y="929" type="line"/>
      <point x="941" y="1168"/>
      <point x="783" y="1299"/>
      <point x="521" y="1299" type="curve" smooth="yes"/>
      <point x="258" y="1299"/>
      <point x="100" y="1168"/>
      <point x="100" y="929" type="curve"/>
      <point x="100" y="924" type="line"/>
      <point x="100" y="684"/>
      <point x="258" y="553"/>
    </contour>
    <contour>
      <point x="521" y="586" type="curve" smooth="yes"/>
      <point x="279" y="586"/>
      <point x="136" y="700"/>
      <point x="136" y="925" type="curve" smooth="yes"/>
      <point x="136" y="929" type="line" smooth="yes"/>
      <point x="136" y="1154"/>
      <point x="278" y="1266"/>
      <point x="521" y="1266" type="curve" smooth="yes"/>
      <point x="762" y="1266"/>
      <point x="905" y="1154"/>
      <point x="905" y="929" type="curve" smooth="yes"/>
      <point x="905" y="925" type="line" smooth="yes"/>
      <point x="905" y="701"/>
      <point x="763" y="586"/>
    </contour>
    <contour>
      <point x="718" y="739" type="line"/>
      <point x="701" y="810" type="line" smooth="yes"/>
      <point x="687" y="868"/>
      <point x="667" y="913"/>
      <point x="584" y="914" type="curve"/>
      <point x="606" y="906" type="line"/>
      <point x="606" y="908" type="line"/>
      <point x="680" y="911"/>
      <point x="715" y="950"/>
      <point x="715" y="1004" type="curve" smooth="yes"/>
      <point x="715" y="1009" type="line" smooth="yes"/>
      <point x="715" y="1072"/>
      <point x="675" y="1113"/>
      <point x="588" y="1113" type="curve" smooth="yes"/>
      <point x="385" y="1113" type="line"/>
      <point x="385" y="1083" type="line"/>
      <point x="587" y="1083" type="line" smooth="yes"/>
      <point x="652" y="1083"/>
      <point x="681" y="1054"/>
      <point x="681" y="1007" type="curve" smooth="yes"/>
      <point x="681" y="1003" type="line" smooth="yes"/>
      <point x="681" y="956"/>
      <point x="652" y="923"/>
      <point x="589" y="923" type="curve" smooth="yes"/>
      <point x="385" y="923" type="line"/>
      <point x="385" y="894" type="line"/>
      <point x="563" y="894" type="line" smooth="yes"/>
      <point x="633" y="894"/>
      <point x="654" y="864"/>
      <point x="667" y="807" type="curve" smooth="yes"/>
      <point x="683" y="739" type="line"/>
    </contour>
    <contour>
      <point x="397" y="739" type="line"/>
      <point x="397" y="901" type="line"/>
      <point x="397" y="913" type="line"/>
      <point x="397" y="1113" type="line"/>
      <point x="363" y="1113" type="line"/>
      <point x="363" y="739" type="line"/>
    </contour>
  </outline>
</glyph>
<glyph name="ordmasculine" format="2">
  <advance width="915"/>
  <unicode hex="00BA"/>
  <outline>
    <contour>
      <point x="458" y="634" type="curve" smooth="yes"/>
      <point x="685" y="634"/>
      <point x="815" y="744"/>
      <point x="815" y="953" type="curve"/>
      <point x="815" y="978" type="line"/>
      <point x="815" y="1186"/>
      <point x="686" y="1296"/>
      <point x="458" y="1296" type="curve" smooth="yes"/>
      <point x="230" y="1296"/>
      <point x="100" y="1186"/>
      <point x="100" y="978" type="curve"/>
      <point x="100" y="953" type="line"/>
      <point x="100" y="745"/>
      <point x="229" y="634"/>
    </contour>
    <contour>
      <point x="458" y="665" type="curve" smooth="yes"/>
      <point x="252" y="665"/>
      <point x="135" y="766"/>
      <point x="135" y="953" type="curve" smooth="yes"/>
      <point x="135" y="978" type="line" smooth="yes"/>
      <point x="135" y="1165"/>
      <point x="252" y="1265"/>
      <point x="458" y="1265" type="curve" smooth="yes"/>
      <point x="664" y="1265"/>
      <point x="780" y="1165"/>
      <point x="780" y="978" type="curve" smooth="yes"/>
      <point x="780" y="953" type="line" smooth="yes"/>
      <point x="780" y="766"/>
      <point x="662" y="665"/>
    </contour>
  </outline>
</glyph>
<glyph name="divide" format="2">
  <advance width="1351"/>
  <unicode hex="00F7"/>
  <outline>
    <component base="period" xOffset="483" yOffset="141"/>
    <component base="period" xOffset="483" yOffset="1005"/>
    <contour>
      <point x="1185" y="596" type="line"/>
      <point x="1185" y="630" type="line"/>
      <point x="166" y="630" type="line"/>
      <point x="166" y="596" type="line"/>
    </contour>
  </outline>
</glyph>
<glyph name="idotless" format="2">
  <advance width="450"/>
  <unicode hex="0131"/>
  <anchor x="225" y="0" name="bottom"/>
  <anchor x="292" y="0" name="ogonek"/>
  <anchor x="225" y="952" name="top"/>
  <outline>
    <contour>
      <point x="244" y="0" type="line"/>
      <point x="244" y="952" type="line"/>
      <point x="206" y="952" type="line"/>
      <point x="206" y="0" type="line"/>
    </contour>
  </outline>
</glyph>
<glyph name="OE" format="2">
  <advance width="2398"/>
  <unicode hex="0152"/>
  <anchor x="1199" y="0" name="bottom"/>
  <anchor x="1199" y="1278" name="top"/>
  <outline>
    <contour>
      <point x="826" y="-21" type="curve" smooth="yes"/>
      <point x="1267" y="-21"/>
      <point x="1511" y="213"/>
      <point x="1511" y="629" type="curve"/>
      <point x="1511" y="650" type="line"/>
      <point x="1511" y="1066"/>
      <point x="1267" y="1299"/>
      <point x="826" y="1299" type="curve" smooth="yes"/>
      <point x="386" y="1299"/>
      <point x="142" y="1066"/>
      <point x="142" y="650" type="curve"/>
      <point x="142" y="629" type="line"/>
      <point x="142" y="213"/>
      <point x="386" y="-21"/>
    </contour>
    <contour>
      <point x="826" y="16" type="curve" smooth="yes"/>
      <point x="409" y="16"/>
      <point x="183" y="236"/>
      <point x="183" y="629" type="curve" smooth="yes"/>
      <point x="183" y="650" type="line" smooth="yes"/>
      <point x="183" y="1044"/>
      <point x="409" y="1262"/>
      <point x="826" y="1262" type="curve" smooth="yes"/>
      <point x="1244" y="1262"/>
      <point x="1470" y="1044"/>
      <point x="1470" y="650" type="curve" smooth="yes"/>
      <point x="1470" y="629" type="line" smooth="yes"/>
      <point x="1470" y="236"/>
      <point x="1244" y="16"/>
    </contour>
    <contour>
      <point x="2244" y="0" type="line"/>
      <point x="2244" y="34" type="line"/>
      <point x="1008" y="34" type="line"/>
      <point x="1008" y="0" type="line"/>
    </contour>
    <contour>
      <point x="2209" y="636" type="line"/>
      <point x="2209" y="670" type="line"/>
      <point x="1494" y="670" type="line"/>
      <point x="1494" y="636" type="line"/>
    </contour>
    <contour>
      <point x="2234" y="1244" type="line"/>
      <point x="2234" y="1278" type="line"/>
      <point x="1036" y="1278" type="line"/>
      <point x="1036" y="1244" type="line"/>
    </contour>
  </outline>
</glyph>
<glyph name="oe" format="2">
  <advance width="2409"/>
  <unicode hex="0153"/>
  <anchor x="1205" y="0" name="bottom"/>
  <anchor x="1205" y="952" name="top"/>
  <outline>
    <contour>
      <point x="697" y="-25" type="curve" smooth="yes"/>
      <point x="1008" y="-25"/>
      <point x="1195" y="97"/>
      <point x="1242" y="344" type="curve"/>
      <point x="1235" y="344" type="line"/>
      <point x="1284" y="106"/>
      <point x="1467" y="-25"/>
      <point x="1776" y="-25" type="curve" smooth="yes"/>
      <point x="1974" y="-25"/>
      <point x="2128" y="25"/>
      <point x="2253" y="119" type="curve"/>
      <point x="2258" y="162" type="line"/>
      <point x="2117" y="55"/>
      <point x="1970" y="9"/>
      <point x="1777" y="9" type="curve" smooth="yes"/>
      <point x="1440" y="9"/>
      <point x="1258" y="178"/>
      <point x="1258" y="463" type="curve" smooth="yes"/>
      <point x="1258" y="475" type="line"/>
      <point x="1258" y="480" type="line"/>
      <point x="1258" y="490" type="line" smooth="yes"/>
      <point x="1258" y="773"/>
      <point x="1432" y="943"/>
      <point x="1754" y="943" type="curve" smooth="yes"/>
      <point x="2076" y="943"/>
      <point x="2248" y="762"/>
      <point x="2248" y="507" type="curve" smooth="yes"/>
      <point x="2248" y="493"/>
      <point x="2248" y="479"/>
      <point x="2247" y="468" type="curve"/>
      <point x="2283" y="468" type="line"/>
      <point x="2285" y="483"/>
      <point x="2285" y="495"/>
      <point x="2285" y="505" type="curve" smooth="yes"/>
      <point x="2285" y="509" type="line" smooth="yes"/>
      <point x="2285" y="784"/>
      <point x="2100" y="977"/>
      <point x="1754" y="977" type="curve" smooth="yes"/>
      <point x="1461" y="977"/>
      <point x="1283" y="846"/>
      <point x="1236" y="610" type="curve"/>
      <point x="1243" y="610" type="line"/>
      <point x="1195" y="855"/>
      <point x="1008" y="977"/>
      <point x="697" y="977" type="curve" smooth="yes"/>
      <point x="330" y="977"/>
      <point x="134" y="810"/>
      <point x="134" y="491" type="curve"/>
      <point x="134" y="463" type="line"/>
      <point x="134" y="144"/>
      <point x="328" y="-25"/>
    </contour>
    <contour>
      <point x="2270" y="468" type="line"/>
      <point x="2270" y="500" type="line"/>
      <point x="1238" y="500" type="line"/>
      <point x="1238" y="468" type="line"/>
    </contour>
    <contour>
      <point x="697" y="9" type="curve" smooth="yes"/>
      <point x="357" y="9"/>
      <point x="172" y="167"/>
      <point x="172" y="463" type="curve" smooth="yes"/>
      <point x="172" y="491" type="line" smooth="yes"/>
      <point x="172" y="787"/>
      <point x="357" y="943"/>
      <point x="697" y="943" type="curve" smooth="yes"/>
      <point x="1037" y="943"/>
      <point x="1220" y="787"/>
      <point x="1220" y="491" type="curve" smooth="yes"/>
      <point x="1220" y="463" type="line" smooth="yes"/>
      <point x="1220" y="167"/>
      <point x="1035" y="9"/>
    </contour>
  </outline>
</glyph>
<glyph name="Danda.dv" format="2">
  <advance width="997"/>
  <unicode hex="0964"/>
  <outline>
    <contour>
      <point x="516" y="1274" type="line"/>
      <point x="516" y="-18" type="line"/>
      <point x="481" y="-18" type="line"/>
      <point x="481" y="1287" type="line"/>
    </contour>
  </outline>
</glyph>
<glyph name="Candrabindu_Spacing.ka" format="2">
  <advance width="1503"/>
  <unicode hex="0C80"/>
  <unicode hex="0D04"/>
  <outline>
    <contour>
      <point x="751" y="932" type="curve" smooth="yes"/>
      <point x="767" y="932"/>
      <point x="778" y="921"/>
      <point x="778" y="893" type="curve" smooth="yes"/>
      <point x="778" y="607" type="line" smooth="yes"/>
      <point x="778" y="581"/>
      <point x="767" y="570"/>
      <point x="751" y="570" type="curve" smooth="yes"/>
      <point x="735" y="570"/>
      <point x="725" y="581"/>
      <point x="725" y="607" type="curve" smooth="yes"/>
      <point x="725" y="893" type="line" smooth="yes"/>
      <point x="725" y="921"/>
      <point x="735" y="932"/>
    </contour>
    <contour>
      <point x="751" y="96" type="curve" smooth="yes"/>
      <point x="1147" y="96"/>
      <point x="1343" y="300"/>
      <point x="1343" y="684" type="curve" smooth="yes"/>
      <point x="1343" y="721.83"/>
      <point x="1343" y="743.17"/>
      <point x="1343" y="781" type="curve"/>
      <point x="1306" y="781" type="line"/>
      <point x="1306" y="684" type="line" smooth="yes"/>
      <point x="1306" y="318.661"/>
      <point x="1117" y="131"/>
      <point x="751" y="131" type="curve" smooth="yes"/>
      <point x="385" y="131"/>
      <point x="197" y="318.661"/>
      <point x="197" y="684" type="curve" smooth="yes"/>
      <point x="197" y="781" type="line"/>
      <point x="160" y="781" type="line"/>
      <point x="160" y="743.17"/>
      <point x="160" y="721.83"/>
      <point x="160" y="684" type="curve" smooth="yes"/>
      <point x="160" y="300"/>
      <point x="355" y="96"/>
    </contour>
  </outline>
</glyph>
<glyph name="Anuswara.kn" format="2">
  <advance width="1378"/>
  <unicode hex="0C82"/>
  <outline>
    <contour>
      <point x="150" y="547" type="line" smooth="yes"/>
      <point x="150" y="222"/>
      <point x="334" y="51"/>
      <point x="689" y="51" type="curve" smooth="yes"/>
      <point x="1044" y="51"/>
      <point x="1228" y="222"/>
      <point x="1228" y="547" type="curve" smooth="yes"/>
      <point x="1228" y="551" type="line" smooth="yes"/>
      <point x="1228" y="876"/>
      <point x="1044" y="1047"/>
      <point x="689" y="1047" type="curve" smooth="yes"/>
      <point x="334" y="1047"/>
      <point x="150" y="876"/>
      <point x="150" y="551" type="curve" smooth="yes"/>
    </contour>
    <contour>
      <point x="689" y="86" type="curve" smooth="yes"/>
      <point x="359" y="86"/>
      <point x="188" y="245"/>
      <point x="188" y="547" type="curve" smooth="yes"/>
      <point x="188" y="551" type="line" smooth="yes"/>
      <point x="188" y="853"/>
      <point x="359" y="1012"/>
      <point x="689" y="1012" type="curve" smooth="yes"/>
      <point x="1019" y="1012"/>
      <point x="1190" y="853"/>
      <point x="1190" y="551" type="curve" smooth="yes"/>
      <point x="1190" y="547" type="line" smooth="yes"/>
      <point x="1190" y="245"/>
      <point x="1019" y="86"/>
    </contour>
  </outline>
</glyph>
<glyph name="Visarga.kn" format="2">
  <advance width="850"/>
  <unicode hex="0C83"/>
  <outline>
    <contour>
      <point x="421" y="-3" type="curve" smooth="yes"/>
      <point x="644" y="-3"/>
      <point x="758" y="89"/>
      <point x="758" y="249" type="curve" smooth="yes"/>
      <point x="758" y="252" type="line" smooth="yes"/>
      <point x="758" y="413"/>
      <point x="644" y="504"/>
      <point x="421" y="504" type="curve" smooth="yes"/>
      <point x="200" y="504"/>
      <point x="87" y="413"/>
      <point x="87" y="252" type="curve" smooth="yes"/>
      <point x="87" y="249" type="line" smooth="yes"/>
      <point x="87" y="89"/>
      <point x="200" y="-3"/>
    </contour>
    <contour>
      <point x="421" y="470" type="curve" smooth="yes"/>
      <point x="620" y="470"/>
      <point x="721" y="391.361"/>
      <point x="721" y="252" type="curve" smooth="yes"/>
      <point x="721" y="249" type="line" smooth="yes"/>
      <point x="721" y="110.635"/>
      <point x="620" y="31"/>
      <point x="421" y="31" type="curve" smooth="yes"/>
      <point x="224" y="31"/>
      <point x="124" y="110.635"/>
      <point x="124" y="249" type="curve" smooth="yes"/>
      <point x="124" y="252" type="line" smooth="yes"/>
      <point x="124" y="391.361"/>
      <point x="224" y="470"/>
    </contour>
    <contour>
      <point x="421" y="611" type="curve" smooth="yes"/>
      <point x="644" y="611"/>
      <point x="758" y="703"/>
      <point x="758" y="863" type="curve" smooth="yes"/>
      <point x="758" y="866" type="line" smooth="yes"/>
      <point x="758" y="1027"/>
      <point x="644" y="1118"/>
      <point x="421" y="1118" type="curve" smooth="yes"/>
      <point x="200" y="1118"/>
      <point x="87" y="1027"/>
      <point x="87" y="866" type="curve" smooth="yes"/>
      <point x="87" y="863" type="line" smooth="yes"/>
      <point x="87" y="703"/>
      <point x="200" y="611"/>
    </contour>
    <contour>
      <point x="421" y="1084" type="curve" smooth="yes"/>
      <point x="620" y="1084"/>
      <point x="721" y="1005.36"/>
      <point x="721" y="866" type="curve" smooth="yes"/>
      <point x="721" y="863" type="line" smooth="yes"/>
      <point x="721" y="724.635"/>
      <point x="620" y="645"/>
      <point x="421" y="645" type="curve" smooth="yes"/>
      <point x="224" y="645"/>
      <point x="124" y="724.635"/>
      <point x="124" y="863" type="curve" smooth="yes"/>
      <point x="124" y="866" type="line" smooth="yes"/>
      <point x="124" y="1005.36"/>
      <point x="224" y="1084"/>
    </contour>
  </outline>
</glyph>
<glyph name="swastisri" format="2">
  <advance width="1691"/>
  <unicode hex="0C84"/>
  <outline>
    <contour>
      <point x="1566" y="499" type="line" smooth="yes"/>
      <point x="1566" y="159"/>
      <point x="1312" y="-50"/>
      <point x="888" y="-50" type="curve" smooth="yes"/>
      <point x="426" y="-50"/>
      <point x="130" y="190"/>
      <point x="130" y="589" type="curve" smooth="yes"/>
      <point x="130" y="593" type="line" smooth="yes"/>
      <point x="130" y="1017"/>
      <point x="442" y="1262"/>
      <point x="939" y="1262" type="curve"/>
      <point x="939" y="1228" type="line"/>
      <point x="462.617" y="1228"/>
      <point x="167" y="1000.72"/>
      <point x="167" y="593" type="curve" smooth="yes"/>
      <point x="167" y="589" type="line" smooth="yes"/>
      <point x="167" y="207.245"/>
      <point x="446.612" y="-16"/>
      <point x="888" y="-16" type="curve" smooth="yes"/>
      <point x="1290.37" y="-16"/>
      <point x="1529" y="177.238"/>
      <point x="1529" y="499" type="curve" smooth="yes"/>
      <point x="1529" y="503" type="line" smooth="yes"/>
      <point x="1529" y="812.989"/>
      <point x="1333.42" y="988"/>
      <point x="987" y="988" type="curve" smooth="yes"/>
      <point x="686.95" y="988"/>
      <point x="499" y="835.801"/>
      <point x="499" y="593" type="curve" smooth="yes"/>
      <point x="499" y="589" type="line" smooth="yes"/>
      <point x="499" y="371.248"/>
      <point x="657.604" y="248"/>
      <point x="900" y="248" type="curve" smooth="yes"/>
      <point x="1088.38" y="248"/>
      <point x="1203" y="347.259"/>
      <point x="1203" y="516" type="curve" smooth="yes"/>
      <point x="1203" y="520" type="line" smooth="yes"/>
      <point x="1203" y="646.763"/>
      <point x="1119.39" y="725"/>
      <point x="986" y="725" type="curve" smooth="yes"/>
      <point x="880.606" y="725"/>
      <point x="812" y="667.806"/>
      <point x="812" y="583" type="curve"/>
      <point x="812" y="581" type="line"/>
      <point x="812" y="495.37"/>
      <point x="864.644" y="456"/>
      <point x="960" y="456" type="curve"/>
      <point x="960" y="426" type="line"/>
      <point x="955" y="425"/>
      <point x="948" y="424"/>
      <point x="940" y="424" type="curve" smooth="yes"/>
      <point x="843" y="424"/>
      <point x="775" y="482"/>
      <point x="775" y="580" type="curve"/>
      <point x="775" y="582" type="line"/>
      <point x="775" y="688"/>
      <point x="858" y="759"/>
      <point x="986" y="759" type="curve" smooth="yes"/>
      <point x="1141" y="759"/>
      <point x="1240" y="667"/>
      <point x="1240" y="520" type="curve" smooth="yes"/>
      <point x="1240" y="516" type="line" smooth="yes"/>
      <point x="1240" y="330"/>
      <point x="1109" y="214"/>
      <point x="900" y="214" type="curve" smooth="yes"/>
      <point x="635" y="214"/>
      <point x="462" y="351"/>
      <point x="462" y="589" type="curve" smooth="yes"/>
      <point x="462" y="593" type="line" smooth="yes"/>
      <point x="462" y="859.491"/>
      <point x="661.71" y="1022"/>
      <point x="987" y="1022" type="curve" smooth="yes"/>
      <point x="1353.19" y="1022"/>
      <point x="1566" y="831.642"/>
      <point x="1566" y="503" type="curve" smooth="yes"/>
    </contour>
  </outline>
</glyph>
<glyph name="vowelA.kn" format="2">
  <advance width="2153"/>
  <unicode hex="0C85"/>
  <outline>
    <contour>
      <point x="1631" y="486" type="line"/>
      <point x="1631" y="519" type="line"/>
      <point x="858" y="519" type="line"/>
      <point x="858" y="486" type="line"/>
    </contour>
    <contour>
      <point x="1572" y="1156" type="curve" smooth="yes"/>
      <point x="1326" y="1156"/>
      <point x="1195" y="1033"/>
      <point x="1195" y="812" type="curve" smooth="yes"/>
      <point x="1195" y="806" type="line" smooth="yes"/>
      <point x="1195" y="654.88"/>
      <point x="1283.86" y="548.45"/>
      <point x="1432" y="520" type="curve"/>
      <point x="1432" y="513" type="line"/>
      <point x="1615" y="512" type="line"/>
      <point x="1615" y="519" type="line"/>
      <point x="1371" y="519"/>
      <point x="1233" y="623"/>
      <point x="1233" y="805" type="curve" smooth="yes"/>
      <point x="1233" y="812" type="line" smooth="yes"/>
      <point x="1233" y="1009.36"/>
      <point x="1349" y="1121"/>
      <point x="1572" y="1121" type="curve" smooth="yes"/>
      <point x="1830" y="1121"/>
      <point x="1965" y="961.349"/>
      <point x="1965" y="663" type="curve" smooth="yes"/>
      <point x="1965" y="653" type="line" smooth="yes"/>
      <point x="1965" y="225.657"/>
      <point x="1668" y="3"/>
      <point x="1098" y="3" type="curve" smooth="yes"/>
      <point x="498" y="3"/>
      <point x="188" y="226.66"/>
      <point x="188" y="660" type="curve" smooth="yes"/>
      <point x="188" y="665" type="line"/>
      <point x="150" y="665" type="line"/>
      <point x="150" y="660" type="line" smooth="yes"/>
      <point x="150" y="204"/>
      <point x="475" y="-32"/>
      <point x="1098" y="-32" type="curve" smooth="yes"/>
      <point x="1691" y="-32"/>
      <point x="2003" y="203"/>
      <point x="2003" y="654" type="curve" smooth="yes"/>
      <point x="2003" y="663" type="line" smooth="yes"/>
      <point x="2003" y="986"/>
      <point x="1855" y="1156"/>
    </contour>
    <contour>
      <point x="594" y="1157" type="curve" smooth="yes"/>
      <point x="302" y="1157"/>
      <point x="150" y="984"/>
      <point x="150" y="669" type="curve" smooth="yes"/>
      <point x="150" y="662" type="line"/>
      <point x="188" y="662" type="line"/>
      <point x="188" y="669" type="line" smooth="yes"/>
      <point x="188" y="967.566"/>
      <point x="335.354" y="1122"/>
      <point x="594" y="1122" type="curve" smooth="yes"/>
      <point x="803" y="1122"/>
      <point x="916" y="1020.36"/>
      <point x="916" y="842" type="curve" smooth="yes"/>
      <point x="916" y="837" type="line" smooth="yes"/>
      <point x="916" y="661.635"/>
      <point x="800" y="561"/>
      <point x="588" y="561" type="curve" smooth="yes"/>
      <point x="399.332" y="561"/>
      <point x="259.511" y="634.193"/>
      <point x="183" y="753" type="curve"/>
      <point x="171" y="701" type="line"/>
      <point x="190" y="701" type="line"/>
      <point x="260" y="595"/>
      <point x="404" y="526"/>
      <point x="589" y="526" type="curve" smooth="yes"/>
      <point x="824" y="526"/>
      <point x="954" y="637"/>
      <point x="954" y="837" type="curve" smooth="yes"/>
      <point x="954" y="842" type="line" smooth="yes"/>
      <point x="954" y="1043"/>
      <point x="824" y="1157"/>
    </contour>
  </outline>
  <guideline angle="0" x="0" y="1393"/>
</glyph>
<glyph name="vowelAa.kn" format="2">
  <advance width="2124"/>
  <unicode hex="0C86"/>
  <outline>
    <contour>
      <point x="1645" y="486" type="line" smooth="yes"/>
      <point x="1789" y="486"/>
      <point x="1879" y="433.308"/>
      <point x="1879" y="315" type="curve" smooth="yes"/>
      <point x="1879" y="312" type="line" smooth="yes"/>
      <point x="1879" y="113.642"/>
      <point x="1618" y="3"/>
      <point x="1141" y="3" type="curve" smooth="yes"/>
      <point x="513" y="3"/>
      <point x="188" y="226.66"/>
      <point x="188" y="660" type="curve" smooth="yes"/>
      <point x="188" y="664" type="line"/>
      <point x="150" y="664" type="line"/>
      <point x="150" y="660" type="line" smooth="yes"/>
      <point x="150" y="204"/>
      <point x="490" y="-32"/>
      <point x="1141" y="-32" type="curve" smooth="yes"/>
      <point x="1641" y="-32"/>
      <point x="1917" y="91"/>
      <point x="1917" y="313" type="curve" smooth="yes"/>
      <point x="1917" y="316" type="line" smooth="yes"/>
      <point x="1917" y="428.399"/>
      <point x="1850.4" y="490.069"/>
      <point x="1727" y="503" type="curve"/>
      <point x="1727" y="505" type="line"/>
      <point x="1885.58" y="525.066"/>
      <point x="1989" y="636.434"/>
      <point x="1989" y="808" type="curve" smooth="yes"/>
      <point x="1989" y="813" type="line" smooth="yes"/>
      <point x="1989" y="1032"/>
      <point x="1855" y="1156"/>
      <point x="1602" y="1156" type="curve" smooth="yes"/>
      <point x="1349" y="1156"/>
      <point x="1215" y="1031"/>
      <point x="1215" y="811" type="curve" smooth="yes"/>
      <point x="1215" y="805" type="line" smooth="yes"/>
      <point x="1215" y="655"/>
      <point x="1305.01" y="545"/>
      <point x="1426" y="520" type="curve"/>
      <point x="1426" y="519" type="line"/>
      <point x="858" y="519" type="line"/>
      <point x="858" y="486" type="line"/>
    </contour>
    <contour>
      <point x="1951" y="808" type="line" smooth="yes"/>
      <point x="1951" y="626"/>
      <point x="1832" y="519"/>
      <point x="1602" y="519" type="curve" smooth="yes"/>
      <point x="1372" y="519"/>
      <point x="1253" y="626"/>
      <point x="1253" y="808" type="curve" smooth="yes"/>
      <point x="1253" y="813" type="line" smooth="yes"/>
      <point x="1253" y="1007.37"/>
      <point x="1372" y="1121"/>
      <point x="1602" y="1121" type="curve" smooth="yes"/>
      <point x="1832" y="1121"/>
      <point x="1951" y="1007.37"/>
      <point x="1951" y="813" type="curve" smooth="yes"/>
    </contour>
    <contour>
      <point x="594" y="1157" type="curve" smooth="yes"/>
      <point x="302" y="1157"/>
      <point x="150" y="984"/>
      <point x="150" y="669" type="curve" smooth="yes"/>
      <point x="150" y="662" type="line"/>
      <point x="188" y="662" type="line"/>
      <point x="188" y="669" type="line" smooth="yes"/>
      <point x="188" y="967.566"/>
      <point x="335.354" y="1122"/>
      <point x="594" y="1122" type="curve" smooth="yes"/>
      <point x="803" y="1122"/>
      <point x="916" y="1020.36"/>
      <point x="916" y="842" type="curve" smooth="yes"/>
      <point x="916" y="837" type="line" smooth="yes"/>
      <point x="916" y="661.635"/>
      <point x="800" y="561"/>
      <point x="588" y="561" type="curve" smooth="yes"/>
      <point x="399.332" y="561"/>
      <point x="259.511" y="634.193"/>
      <point x="183" y="753" type="curve"/>
      <point x="171" y="701" type="line"/>
      <point x="190" y="701" type="line"/>
      <point x="260" y="595"/>
      <point x="404" y="526"/>
      <point x="589" y="526" type="curve" smooth="yes"/>
      <point x="824" y="526"/>
      <point x="954" y="637"/>
      <point x="954" y="837" type="curve" smooth="yes"/>
      <point x="954" y="842" type="line" smooth="yes"/>
      <point x="954" y="1043"/>
      <point x="824" y="1157"/>
    </contour>
  </outline>
</glyph>
<glyph name="vowelU.kn" format="2">
  <advance width="3107"/>
  <unicode hex="0C89"/>
  <outline>
    <contour>
      <point x="619" y="1157" type="curve" smooth="yes"/>
      <point x="853" y="1157"/>
      <point x="987" y="1041"/>
      <point x="987" y="837" type="curve" smooth="yes"/>
      <point x="987" y="832" type="line" smooth="yes"/>
      <point x="987" y="629"/>
      <point x="853" y="516"/>
      <point x="614" y="516" type="curve" smooth="yes"/>
      <point x="424" y="516"/>
      <point x="279" y="589"/>
      <point x="207" y="701" type="curve"/>
      <point x="188" y="701" type="line"/>
      <point x="203" y="749" type="line"/>
      <point x="280.951" y="626.675"/>
      <point x="421.691" y="551"/>
      <point x="613" y="551" type="curve" smooth="yes"/>
      <point x="830" y="551"/>
      <point x="949" y="653.635"/>
      <point x="949" y="832" type="curve" smooth="yes"/>
      <point x="949" y="837" type="line" smooth="yes"/>
      <point x="949" y="1018.36"/>
      <point x="833" y="1122"/>
      <point x="619" y="1122" type="curve" smooth="yes"/>
      <point x="346.153" y="1122"/>
      <point x="204" y="959.307"/>
      <point x="204" y="629" type="curve" smooth="yes"/>
      <point x="204" y="618.748" type="line"/>
      <point x="166" y="618.905" type="line"/>
      <point x="166" y="629" type="line" smooth="yes"/>
      <point x="166" y="980"/>
      <point x="320" y="1157"/>
    </contour>
    <contour>
      <point x="204" y="610" type="line" smooth="yes"/>
      <point x="204" y="207.665"/>
      <point x="393" y="5"/>
      <point x="769" y="5" type="curve" smooth="yes"/>
      <point x="1109" y="5"/>
      <point x="1292" y="174.66"/>
      <point x="1292" y="504" type="curve" smooth="yes"/>
      <point x="1292" y="715" type="line" smooth="yes"/>
      <point x="1292" y="1002"/>
      <point x="1410" y="1141"/>
      <point x="1647" y="1141" type="curve" smooth="yes"/>
      <point x="1884" y="1141"/>
      <point x="2005" y="1001"/>
      <point x="2005" y="715" type="curve" smooth="yes"/>
      <point x="2005" y="600" type="line"/>
      <point x="1968" y="600" type="line"/>
      <point x="1968" y="714" type="line" smooth="yes"/>
      <point x="1968" y="980.321"/>
      <point x="1864" y="1106"/>
      <point x="1648" y="1106" type="curve" smooth="yes"/>
      <point x="1432" y="1106"/>
      <point x="1329" y="980.321"/>
      <point x="1329" y="714" type="curve" smooth="yes"/>
      <point x="1329" y="502" type="line" smooth="yes"/>
      <point x="1329" y="150"/>
      <point x="1132" y="-30"/>
      <point x="770" y="-30" type="curve" smooth="yes"/>
      <point x="368" y="-30"/>
      <point x="166" y="185"/>
      <point x="166" y="610" type="curve" smooth="yes"/>
      <point x="166" y="619.905" type="line"/>
      <point x="204" y="619.748" type="line"/>
    </contour>
    <contour>
      <point x="2941" y="519" type="line" smooth="yes"/>
      <point x="2941" y="157"/>
      <point x="2774" y="-30"/>
      <point x="2448" y="-30" type="curve" smooth="yes"/>
      <point x="2133" y="-30"/>
      <point x="1968" y="136"/>
      <point x="1968" y="457" type="curve" smooth="yes"/>
      <point x="1968" y="643" type="line"/>
      <point x="2005" y="643" type="line"/>
      <point x="2005" y="459" type="line" smooth="yes"/>
      <point x="2005" y="159.659"/>
      <point x="2155" y="5"/>
      <point x="2448" y="5" type="curve" smooth="yes"/>
      <point x="2750" y="5"/>
      <point x="2903" y="180.659"/>
      <point x="2903" y="520" type="curve" smooth="yes"/>
      <point x="2903" y="528" type="line" smooth="yes"/>
      <point x="2903" y="901.354"/>
      <point x="2735" y="1106"/>
      <point x="2430" y="1106" type="curve" smooth="yes"/>
      <point x="2411" y="1106"/>
      <point x="2397" y="1105"/>
      <point x="2384" y="1104" type="curve"/>
      <point x="2384" y="1139" type="line"/>
      <point x="2401" y="1140"/>
      <point x="2410" y="1141"/>
      <point x="2431" y="1141" type="curve" smooth="yes"/>
      <point x="2758" y="1141"/>
      <point x="2941" y="921"/>
      <point x="2941" y="527" type="curve" smooth="yes"/>
    </contour>
  </outline>
</glyph>
<glyph name="vowelUu.kn" format="2">
  <advance width="3964"/>
  <unicode hex="0C8A"/>
  <outline>
    <contour>
      <point x="2621" y="469" type="line"/>
      <point x="2621" y="343" type="line" smooth="yes"/>
      <point x="2621" y="92"/>
      <point x="2509" y="-30"/>
      <point x="2293" y="-30" type="curve" smooth="yes"/>
      <point x="2077" y="-30"/>
      <point x="1968" y="91"/>
      <point x="1968" y="345" type="curve" smooth="yes"/>
      <point x="1968" y="619" type="line"/>
      <point x="2005" y="619" type="line"/>
      <point x="2005" y="346" type="line" smooth="yes"/>
      <point x="2005" y="114.678"/>
      <point x="2099" y="5"/>
      <point x="2294" y="5" type="curve" smooth="yes"/>
      <point x="2489" y="5"/>
      <point x="2584" y="114.676"/>
      <point x="2584" y="344" type="curve" smooth="yes"/>
      <point x="2584" y="469" type="line"/>
    </contour>
    <contour>
      <point x="619" y="1157" type="curve" smooth="yes"/>
      <point x="853" y="1157"/>
      <point x="987" y="1041"/>
      <point x="987" y="837" type="curve" smooth="yes"/>
      <point x="987" y="832" type="line" smooth="yes"/>
      <point x="987" y="629"/>
      <point x="853" y="516"/>
      <point x="614" y="516" type="curve" smooth="yes"/>
      <point x="424" y="516"/>
      <point x="279" y="589"/>
      <point x="207" y="701" type="curve"/>
      <point x="188" y="701" type="line"/>
      <point x="203" y="749" type="line"/>
      <point x="280.951" y="626.675"/>
      <point x="421.691" y="551"/>
      <point x="613" y="551" type="curve" smooth="yes"/>
      <point x="830" y="551"/>
      <point x="949" y="653.635"/>
      <point x="949" y="832" type="curve" smooth="yes"/>
      <point x="949" y="837" type="line" smooth="yes"/>
      <point x="949" y="1018.36"/>
      <point x="833" y="1122"/>
      <point x="619" y="1122" type="curve" smooth="yes"/>
      <point x="346.153" y="1122"/>
      <point x="204" y="959.307"/>
      <point x="204" y="629" type="curve" smooth="yes"/>
      <point x="204" y="618.748" type="line"/>
      <point x="166" y="618.905" type="line"/>
      <point x="166" y="629" type="line" smooth="yes"/>
      <point x="166" y="980"/>
      <point x="320" y="1157"/>
    </contour>
    <contour>
      <point x="204" y="610" type="line" smooth="yes"/>
      <point x="204" y="207.665"/>
      <point x="393" y="5"/>
      <point x="769" y="5" type="curve" smooth="yes"/>
      <point x="1109" y="5"/>
      <point x="1292" y="174.66"/>
      <point x="1292" y="504" type="curve" smooth="yes"/>
      <point x="1292" y="715" type="line" smooth="yes"/>
      <point x="1292" y="1002"/>
      <point x="1410" y="1141"/>
      <point x="1647" y="1141" type="curve" smooth="yes"/>
      <point x="1884" y="1141"/>
      <point x="2005" y="1001"/>
      <point x="2005" y="715" type="curve" smooth="yes"/>
      <point x="2005" y="600" type="line"/>
      <point x="1968" y="600" type="line"/>
      <point x="1968" y="714" type="line" smooth="yes"/>
      <point x="1968" y="980.321"/>
      <point x="1864" y="1106"/>
      <point x="1648" y="1106" type="curve" smooth="yes"/>
      <point x="1432" y="1106"/>
      <point x="1329" y="980.321"/>
      <point x="1329" y="714" type="curve" smooth="yes"/>
      <point x="1329" y="502" type="line" smooth="yes"/>
      <point x="1329" y="150"/>
      <point x="1132" y="-30"/>
      <point x="770" y="-30" type="curve" smooth="yes"/>
      <point x="368" y="-30"/>
      <point x="166" y="185"/>
      <point x="166" y="610" type="curve" smooth="yes"/>
      <point x="166" y="619.905" type="line"/>
      <point x="204" y="619.748" type="line"/>
    </contour>
    <contour>
      <point x="3192.45" y="1157" type="curve" smooth="yes"/>
      <point x="3588.45" y="1157"/>
      <point x="3797.45" y="934"/>
      <point x="3797.45" y="497" type="curve" smooth="yes"/>
      <point x="3797.45" y="485.444" type="line"/>
      <point x="3759.45" y="484.28" type="line"/>
      <point x="3759.45" y="496" type="line" smooth="yes"/>
      <point x="3759.45" y="912.335"/>
      <point x="3564.45" y="1122"/>
      <point x="3192.45" y="1122" type="curve" smooth="yes"/>
      <point x="2818.45" y="1122"/>
      <point x="2621.45" y="937.339"/>
      <point x="2621.45" y="577" type="curve" smooth="yes"/>
      <point x="2621.45" y="454" type="line"/>
      <point x="2584.45" y="454" type="line"/>
      <point x="2584.45" y="580" type="line" smooth="yes"/>
      <point x="2584.45" y="960"/>
      <point x="2795.45" y="1157"/>
    </contour>
    <contour>
      <point x="3797.45" y="473" type="line" smooth="yes"/>
      <point x="3797.45" y="142"/>
      <point x="3660.45" y="-30"/>
      <point x="3388.45" y="-30" type="curve" smooth="yes"/>
      <point x="3136.45" y="-30"/>
      <point x="2998.45" y="86"/>
      <point x="2998.45" y="297" type="curve" smooth="yes"/>
      <point x="2998.45" y="302" type="line" smooth="yes"/>
      <point x="2998.45" y="507"/>
      <point x="3129.45" y="624"/>
      <point x="3378.45" y="624" type="curve" smooth="yes"/>
      <point x="3555.45" y="624"/>
      <point x="3691.45" y="550"/>
      <point x="3758.45" y="441" type="curve"/>
      <point x="3776.45" y="441" type="line"/>
      <point x="3761.45" y="392" type="line"/>
      <point x="3688.5" y="511.237"/>
      <point x="3557.76" y="589"/>
      <point x="3379.45" y="589" type="curve" smooth="yes"/>
      <point x="3152.45" y="589"/>
      <point x="3036.45" y="482.372"/>
      <point x="3036.45" y="302" type="curve" smooth="yes"/>
      <point x="3036.45" y="297" type="line" smooth="yes"/>
      <point x="3036.45" y="111.635"/>
      <point x="3157.45" y="5"/>
      <point x="3388.45" y="5" type="curve" smooth="yes"/>
      <point x="3634.4" y="5"/>
      <point x="3759.45" y="163.95"/>
      <point x="3759.45" y="473" type="curve" smooth="yes"/>
      <point x="3759.45" y="487.28" type="line"/>
      <point x="3797.45" y="488.444" type="line"/>
    </contour>
  </outline>
</glyph>
<glyph name="vowelLru.kn" format="2">
  <advance width="1918"/>
  <unicode hex="0C8C"/>
  <outline>
    <contour>
      <point x="370" y="-2" type="line"/>
      <point x="273" y="79"/>
      <point x="188" y="205"/>
      <point x="188" y="369" type="curve" smooth="yes"/>
      <point x="188" y="374" type="line" smooth="yes"/>
      <point x="188" y="603.35"/>
      <point x="321" y="727"/>
      <point x="568" y="727" type="curve" smooth="yes"/>
      <point x="800" y="727"/>
      <point x="940.448" y="594.387"/>
      <point x="941" y="383" type="curve" smooth="yes"/>
      <point x="942" y="0" type="line"/>
      <point x="976" y="0" type="line"/>
      <point x="977" y="383" type="line" smooth="yes"/>
      <point x="977.552" y="594.387"/>
      <point x="1116" y="727"/>
      <point x="1350" y="727" type="curve" smooth="yes"/>
      <point x="1597" y="727"/>
      <point x="1730" y="603.35"/>
      <point x="1730" y="374" type="curve" smooth="yes"/>
      <point x="1730" y="369" type="line" smooth="yes"/>
      <point x="1730" y="205"/>
      <point x="1645" y="79"/>
      <point x="1548" y="-2" type="curve"/>
      <point x="1598" y="-2" type="line"/>
      <point x="1689" y="80"/>
      <point x="1768" y="204"/>
      <point x="1768" y="369" type="curve" smooth="yes"/>
      <point x="1768" y="374" type="line" smooth="yes"/>
      <point x="1768" y="626"/>
      <point x="1621" y="762"/>
      <point x="1352" y="762" type="curve" smooth="yes"/>
      <point x="1158" y="762"/>
      <point x="1016" y="677"/>
      <point x="975" y="528" type="curve"/>
      <point x="974" y="528" type="line"/>
      <point x="976" y="589"/>
      <point x="978" y="643"/>
      <point x="978" y="717" type="curve" smooth="yes"/>
      <point x="978" y="1122" type="line"/>
      <point x="940" y="1122" type="line"/>
      <point x="940" y="717" type="line" smooth="yes"/>
      <point x="940" y="643"/>
      <point x="942" y="588"/>
      <point x="944" y="528" type="curve"/>
      <point x="943" y="528" type="line"/>
      <point x="901" y="677"/>
      <point x="759" y="762"/>
      <point x="566" y="762" type="curve" smooth="yes"/>
      <point x="297" y="762"/>
      <point x="150" y="626"/>
      <point x="150" y="374" type="curve" smooth="yes"/>
      <point x="150" y="369" type="line" smooth="yes"/>
      <point x="150" y="204"/>
      <point x="229" y="80"/>
      <point x="320" y="-2" type="curve"/>
    </contour>
  </outline>
</glyph>
<glyph name="vowelE.kn" format="2">
  <advance width="2000"/>
  <unicode hex="0C8E"/>
  <outline>
    <contour>
      <point x="1415" y="-30" type="curve" smooth="yes"/>
      <point x="1696" y="-30"/>
      <point x="1840" y="124"/>
      <point x="1840" y="418" type="curve" smooth="yes"/>
      <point x="1840" y="423" type="line" smooth="yes"/>
      <point x="1840" y="911"/>
      <point x="1446" y="1177"/>
      <point x="732" y="1177" type="curve" smooth="yes"/>
      <point x="703" y="1177"/>
      <point x="673" y="1177"/>
      <point x="543" y="1177" type="curve"/>
      <point x="521" y="1142" type="line"/>
      <point x="654" y="1142"/>
      <point x="693" y="1142"/>
      <point x="724" y="1142" type="curve" smooth="yes"/>
      <point x="1422" y="1142"/>
      <point x="1802" y="892.347"/>
      <point x="1802" y="423" type="curve" smooth="yes"/>
      <point x="1802" y="418" type="line" smooth="yes"/>
      <point x="1802" y="144.662"/>
      <point x="1670" y="5"/>
      <point x="1414" y="5" type="curve" smooth="yes"/>
      <point x="1157" y="5"/>
      <point x="1034.73" y="139.666"/>
      <point x="1026" y="419" type="curve" smooth="yes"/>
      <point x="1025" y="451" type="line"/>
      <point x="988" y="451" type="line"/>
      <point x="987" y="419" type="line" smooth="yes"/>
      <point x="978.271" y="139.666"/>
      <point x="848" y="5"/>
      <point x="575" y="5" type="curve" smooth="yes"/>
      <point x="319" y="5"/>
      <point x="181" y="116.656"/>
      <point x="181" y="330" type="curve" smooth="yes"/>
      <point x="181" y="340" type="line" smooth="yes"/>
      <point x="181" y="542.345"/>
      <point x="290" y="649"/>
      <point x="483" y="649" type="curve" smooth="yes"/>
      <point x="578" y="649"/>
      <point x="655" y="617"/>
      <point x="707" y="571" type="curve"/>
      <point x="704" y="615" type="line"/>
      <point x="653" y="658"/>
      <point x="575" y="684"/>
      <point x="480" y="684" type="curve" smooth="yes"/>
      <point x="266" y="684"/>
      <point x="143" y="561"/>
      <point x="143" y="340" type="curve" smooth="yes"/>
      <point x="143" y="330" type="line" smooth="yes"/>
      <point x="143" y="96"/>
      <point x="293" y="-30"/>
      <point x="574" y="-30" type="curve" smooth="yes"/>
      <point x="854" y="-30"/>
      <point x="987" y="108"/>
      <point x="1006" y="323" type="curve"/>
      <point x="1007" y="323" type="line"/>
      <point x="1025" y="108"/>
      <point x="1150" y="-30"/>
    </contour>
  </outline>
</glyph>
<glyph name="vowelEe.kn" format="2">
  <advance width="2000"/>
  <unicode hex="0C8F"/>
  <outline>
    <contour>
      <point x="1802" y="423" type="curve" smooth="yes"/>
      <point x="1802" y="418" type="line" smooth="yes"/>
      <point x="1802" y="144.662"/>
      <point x="1670" y="5"/>
      <point x="1414" y="5" type="curve" smooth="yes"/>
      <point x="1157" y="5"/>
      <point x="1034.73" y="139.666"/>
      <point x="1026" y="419" type="curve" smooth="yes"/>
      <point x="1025" y="451" type="line"/>
      <point x="988" y="451" type="line"/>
      <point x="987" y="419" type="line" smooth="yes"/>
      <point x="978.271" y="139.666"/>
      <point x="848" y="5"/>
      <point x="575" y="5" type="curve" smooth="yes"/>
      <point x="319" y="5"/>
      <point x="181" y="116.656"/>
      <point x="181" y="330" type="curve" smooth="yes"/>
      <point x="181" y="340" type="line" smooth="yes"/>
      <point x="181" y="542.345"/>
      <point x="290" y="649"/>
      <point x="483" y="649" type="curve" smooth="yes"/>
      <point x="578" y="649"/>
      <point x="655" y="617"/>
      <point x="707" y="571" type="curve"/>
      <point x="704" y="615" type="line"/>
      <point x="653" y="658"/>
      <point x="575" y="684"/>
      <point x="480" y="684" type="curve" smooth="yes"/>
      <point x="266" y="684"/>
      <point x="143" y="561"/>
      <point x="143" y="340" type="curve" smooth="yes"/>
      <point x="143" y="330" type="line" smooth="yes"/>
      <point x="143" y="96"/>
      <point x="293" y="-30"/>
      <point x="574" y="-30" type="curve" smooth="yes"/>
      <point x="854" y="-30"/>
      <point x="987" y="108"/>
      <point x="1006" y="323" type="curve"/>
      <point x="1007" y="323" type="line"/>
      <point x="1025" y="108"/>
      <point x="1150" y="-30"/>
      <point x="1415" y="-30" type="curve" smooth="yes"/>
      <point x="1696" y="-30"/>
      <point x="1840" y="124"/>
      <point x="1840" y="418" type="curve" smooth="yes"/>
      <point x="1840" y="423" type="line" smooth="yes"/>
      <point x="1840" y="899"/>
      <point x="1541" y="1147"/>
      <point x="1027" y="1177" type="curve"/>
      <point x="1039" y="1142" type="line"/>
      <point x="1523" y="1107.05"/>
      <point x="1802" y="876.369"/>
    </contour>
    <contour>
      <point x="694" y="817" type="curve" smooth="yes"/>
      <point x="928" y="817"/>
      <point x="1059" y="939"/>
      <point x="1059" y="1152" type="curve"/>
      <point x="1027" y="1177" type="line"/>
      <point x="1027" y="1176" type="line"/>
      <point x="1027" y="965.649"/>
      <point x="909" y="852"/>
      <point x="694" y="852" type="curve" smooth="yes"/>
      <point x="465" y="852"/>
      <point x="343" y="963.655"/>
      <point x="343" y="1176" type="curve"/>
      <point x="343" y="1177" type="line"/>
      <point x="306" y="1171" type="line"/>
      <point x="306" y="1170" type="line"/>
      <point x="306" y="943"/>
      <point x="442" y="817"/>
    </contour>
  </outline>
</glyph>
<glyph name="vowelAi.kn" format="2">
  <advance width="2061"/>
  <unicode hex="0C90"/>
  <outline>
    <contour>
      <point x="1425" y="1156" type="curve" smooth="yes"/>
      <point x="1167" y="1156"/>
      <point x="1040" y="1020"/>
      <point x="1020" y="815" type="curve"/>
      <point x="1018" y="815" type="line"/>
      <point x="999" y="1020"/>
      <point x="874" y="1156"/>
      <point x="604" y="1156" type="curve" smooth="yes"/>
      <point x="319" y="1156"/>
      <point x="179" y="1015"/>
      <point x="179" y="763" type="curve"/>
      <point x="179" y="762" type="line"/>
      <point x="217" y="762" type="line"/>
      <point x="217" y="763" type="line"/>
      <point x="217" y="993.357"/>
      <point x="345" y="1121"/>
      <point x="605" y="1121" type="curve" smooth="yes"/>
      <point x="868" y="1121"/>
      <point x="990.584" y="988.317"/>
      <point x="999" y="719" type="curve" smooth="yes"/>
      <point x="1000" y="687" type="line"/>
      <point x="1038" y="687" type="line"/>
      <point x="1039" y="719" type="line" smooth="yes"/>
      <point x="1047.42" y="988.317"/>
      <point x="1174" y="1121"/>
      <point x="1424" y="1121" type="curve" smooth="yes"/>
      <point x="1707" y="1121"/>
      <point x="1853" y="938.332"/>
      <point x="1853" y="570" type="curve" smooth="yes"/>
      <point x="1853" y="561" type="line" smooth="yes"/>
      <point x="1853" y="192.662"/>
      <point x="1720" y="5"/>
      <point x="1434" y="5" type="curve" smooth="yes"/>
      <point x="1182" y="5"/>
      <point x="1046.73" y="139.666"/>
      <point x="1038" y="419" type="curve" smooth="yes"/>
      <point x="1037" y="451" type="line"/>
      <point x="1000" y="451" type="line"/>
      <point x="999" y="419" type="line" smooth="yes"/>
      <point x="990.271" y="139.666"/>
      <point x="860" y="5"/>
      <point x="587" y="5" type="curve" smooth="yes"/>
      <point x="331" y="5"/>
      <point x="193" y="113.655"/>
      <point x="193" y="320" type="curve" smooth="yes"/>
      <point x="193" y="330" type="line" smooth="yes"/>
      <point x="193" y="525.347"/>
      <point x="302" y="629"/>
      <point x="495" y="629" type="curve" smooth="yes"/>
      <point x="590" y="629"/>
      <point x="667" y="597"/>
      <point x="719" y="551" type="curve"/>
      <point x="716" y="595" type="line"/>
      <point x="665" y="638"/>
      <point x="587" y="664"/>
      <point x="492" y="664" type="curve" smooth="yes"/>
      <point x="278" y="664"/>
      <point x="155" y="545"/>
      <point x="155" y="330" type="curve" smooth="yes"/>
      <point x="155" y="320" type="line" smooth="yes"/>
      <point x="155" y="93"/>
      <point x="305" y="-30"/>
      <point x="586" y="-30" type="curve" smooth="yes"/>
      <point x="866" y="-30"/>
      <point x="999" y="108"/>
      <point x="1018" y="323" type="curve"/>
      <point x="1019" y="323" type="line"/>
      <point x="1038" y="108"/>
      <point x="1175" y="-30"/>
      <point x="1435" y="-30" type="curve" smooth="yes"/>
      <point x="1746" y="-30"/>
      <point x="1891" y="173"/>
      <point x="1891" y="561" type="curve" smooth="yes"/>
      <point x="1891" y="570" type="line" smooth="yes"/>
      <point x="1891" y="958"/>
      <point x="1733" y="1156"/>
    </contour>
  </outline>
</glyph>
<glyph name="Ka.kn" format="2">
  <advance width="1496"/>
  <unicode hex="0C95"/>
  <outline>
    <contour>
      <point x="110" y="693" type="line"/>
      <point x="110" y="660" type="line"/>
      <point x="569" y="660" type="line"/>
      <point x="569" y="671" type="line"/>
      <point x="930" y="671" type="line"/>
      <point x="930" y="660" type="line"/>
      <point x="1392" y="660" type="line"/>
      <point x="1392" y="693" type="line"/>
    </contour>
    <contour>
      <point x="733" y="1102" type="line"/>
      <point x="733" y="688" type="line"/>
      <point x="769" y="688" type="line"/>
      <point x="769" y="1102" type="line"/>
    </contour>
    <contour>
      <point x="110" y="1122" type="line"/>
      <point x="110" y="1089" type="line"/>
      <point x="1041" y="1089" type="line"/>
      <point x="1041" y="1122" type="line"/>
    </contour>
    <contour>
      <point x="751" y="1" type="curve" smooth="yes"/>
      <point x="413" y="1"/>
      <point x="235" y="114.653"/>
      <point x="235" y="329" type="curve" smooth="yes"/>
      <point x="235" y="335" type="line" smooth="yes"/>
      <point x="235" y="549.347"/>
      <point x="413" y="663"/>
      <point x="751" y="663" type="curve" smooth="yes"/>
      <point x="1089" y="663"/>
      <point x="1267" y="549.347"/>
      <point x="1267" y="335" type="curve" smooth="yes"/>
      <point x="1267" y="329" type="line" smooth="yes"/>
      <point x="1267" y="114.653"/>
      <point x="1089" y="1"/>
    </contour>
    <contour>
      <point x="491" y="677" type="line"/>
      <point x="491" y="659" type="line"/>
      <point x="315.186" y="627"/>
      <point x="197" y="511"/>
      <point x="197" y="335" type="curve" smooth="yes"/>
      <point x="197" y="329" type="line" smooth="yes"/>
      <point x="197" y="94"/>
      <point x="390" y="-34"/>
      <point x="751" y="-34" type="curve" smooth="yes"/>
      <point x="1112" y="-34"/>
      <point x="1305" y="94"/>
      <point x="1305" y="329" type="curve" smooth="yes"/>
      <point x="1305" y="335" type="line" smooth="yes"/>
      <point x="1305" y="511"/>
      <point x="1186.81" y="627"/>
      <point x="1011" y="659" type="curve"/>
      <point x="1011" y="677" type="line"/>
    </contour>
    <contour>
      <point x="1247" y="1558" type="line"/>
      <point x="1308" y="1484.4"/>
      <point x="1340" y="1398.7"/>
      <point x="1340" y="1312" type="curve" smooth="yes"/>
      <point x="1340" y="1178.57"/>
      <point x="1272" y="1122"/>
      <point x="1131" y="1122" type="curve" smooth="yes"/>
      <point x="987" y="1122" type="line"/>
      <point x="987" y="1089" type="line"/>
      <point x="1136" y="1089" type="line" smooth="yes"/>
      <point x="1296" y="1089"/>
      <point x="1376" y="1159.09"/>
      <point x="1376" y="1312" type="curve" smooth="yes"/>
      <point x="1376" y="1398.7"/>
      <point x="1344" y="1486.42"/>
      <point x="1286" y="1558" type="curve"/>
    </contour>
  </outline>
  <guideline angle="90" x="3665" y="0"/>
  <guideline angle="90" x="635" y="0"/>
</glyph>
<glyph name="Ga.kn" format="2">
  <advance width="1643"/>
  <unicode hex="0C97"/>
  <outline>
    <contour>
      <point x="587" y="1107" type="line"/>
      <point x="587" y="1086.16" type="line"/>
      <point x="366.778" y="1036.88"/>
      <point x="215" y="867.044"/>
      <point x="215" y="494" type="curve" smooth="yes"/>
      <point x="215" y="0" type="line"/>
      <point x="253" y="0" type="line"/>
      <point x="253" y="494" type="line" smooth="yes"/>
      <point x="253" y="908.91"/>
      <point x="445" y="1089"/>
      <point x="822" y="1089" type="curve" smooth="yes"/>
      <point x="1199" y="1089"/>
      <point x="1390" y="908.91"/>
      <point x="1390" y="494" type="curve" smooth="yes"/>
      <point x="1390" y="0" type="line"/>
      <point x="1428" y="0" type="line"/>
      <point x="1428" y="494" type="line" smooth="yes"/>
      <point x="1428" y="867.044"/>
      <point x="1276.22" y="1036.88"/>
      <point x="1056" y="1086.16" type="curve"/>
      <point x="1056" y="1107" type="line"/>
    </contour>
    <contour>
      <point x="205" y="1122" type="line"/>
      <point x="205" y="1089" type="line"/>
      <point x="1120" y="1089" type="line"/>
      <point x="1120" y="1122" type="line"/>
    </contour>
    <contour>
      <point x="1324" y="1558" type="line"/>
      <point x="1385" y="1484.4"/>
      <point x="1417" y="1398.7"/>
      <point x="1417" y="1312" type="curve" smooth="yes"/>
      <point x="1417" y="1178.57"/>
      <point x="1349" y="1122"/>
      <point x="1208" y="1122" type="curve" smooth="yes"/>
      <point x="1064" y="1122" type="line"/>
      <point x="1064" y="1089" type="line"/>
      <point x="1213" y="1089" type="line" smooth="yes"/>
      <point x="1373" y="1089"/>
      <point x="1453" y="1159.09"/>
      <point x="1453" y="1312" type="curve" smooth="yes"/>
      <point x="1453" y="1398.7"/>
      <point x="1421" y="1486.42"/>
      <point x="1363" y="1558" type="curve"/>
    </contour>
  </outline>
</glyph>
<glyph name="Nga.kn" format="2">
  <advance width="2060"/>
  <unicode hex="0C99"/>
  <outline>
    <contour>
      <point x="1428" y="1156" type="curve" smooth="yes"/>
      <point x="1156" y="1156"/>
      <point x="1019" y="1020"/>
      <point x="989" y="835" type="curve"/>
      <point x="1017" y="831" type="line"/>
      <point x="1047" y="995.433"/>
      <point x="1174" y="1121"/>
      <point x="1429" y="1121" type="curve" smooth="yes"/>
      <point x="1699" y="1121"/>
      <point x="1841" y="993.344"/>
      <point x="1841" y="750" type="curve"/>
      <point x="1841" y="749" type="line"/>
      <point x="1841" y="737"/>
      <point x="1841" y="725"/>
      <point x="1839" y="709" type="curve"/>
      <point x="1877" y="709" type="line"/>
      <point x="1879" y="725"/>
      <point x="1879" y="737"/>
      <point x="1879" y="749" type="curve"/>
      <point x="1879" y="750" type="line"/>
      <point x="1879" y="1016"/>
      <point x="1722" y="1156"/>
    </contour>
    <contour>
      <point x="1379" y="443" type="curve" smooth="yes"/>
      <point x="1403" y="443"/>
      <point x="1406" y="474"/>
      <point x="1406" y="595" type="curve" smooth="yes"/>
      <point x="1406" y="612" type="line" smooth="yes"/>
      <point x="1406" y="733"/>
      <point x="1403" y="764"/>
      <point x="1379" y="764" type="curve" smooth="yes"/>
      <point x="1355" y="764"/>
      <point x="1352" y="733"/>
      <point x="1352" y="612" type="curve" smooth="yes"/>
      <point x="1352" y="595" type="line" smooth="yes"/>
      <point x="1352" y="474"/>
      <point x="1355" y="443"/>
    </contour>
    <contour>
      <point x="1857" y="350" type="curve"/>
      <point x="1857" y="349" type="line"/>
      <point x="1857" y="138.612"/>
      <point x="1729" y="5"/>
      <point x="1485" y="5" type="curve" smooth="yes"/>
      <point x="1209" y="5"/>
      <point x="1062.5" y="139.666"/>
      <point x="1062.5" y="419" type="curve" smooth="yes"/>
      <point x="1062.5" y="451" type="line"/>
      <point x="1029" y="451" type="line"/>
      <point x="1043" y="334" type="line"/>
      <point x="1058" y="113"/>
      <point x="1198" y="-30"/>
      <point x="1486" y="-30" type="curve" smooth="yes"/>
      <point x="1756" y="-30"/>
      <point x="1895" y="116"/>
      <point x="1895" y="349" type="curve"/>
      <point x="1895" y="350" type="line"/>
      <point x="1895" y="393"/>
      <point x="1890" y="436"/>
      <point x="1880" y="475" type="curve"/>
      <point x="1842" y="475" type="line"/>
      <point x="1852" y="436"/>
      <point x="1857" y="393"/>
    </contour>
    <contour>
      <point x="614" y="1157" type="curve" smooth="yes"/>
      <point x="337" y="1157"/>
      <point x="188" y="1042"/>
      <point x="188" y="822" type="curve" smooth="yes"/>
      <point x="188" y="819" type="line" smooth="yes"/>
      <point x="188" y="754"/>
      <point x="202" y="694"/>
      <point x="230" y="639" type="curve"/>
      <point x="271" y="639" type="line"/>
      <point x="241" y="696"/>
      <point x="226" y="757"/>
      <point x="226" y="819" type="curve" smooth="yes"/>
      <point x="226" y="822" type="line" smooth="yes"/>
      <point x="226" y="1019.34"/>
      <point x="360" y="1122"/>
      <point x="613" y="1122" type="curve" smooth="yes"/>
      <point x="853" y="1122"/>
      <point x="983" y="1037.34"/>
      <point x="983" y="875" type="curve" smooth="yes"/>
      <point x="983" y="869" type="line" smooth="yes"/>
      <point x="983" y="740.5"/>
      <point x="902.878" y="675.198"/>
      <point x="674" y="612" type="curve" smooth="yes"/>
      <point x="540" y="575" type="line" smooth="yes"/>
      <point x="256.973" y="496.851"/>
      <point x="155" y="422.519"/>
      <point x="155" y="258" type="curve" smooth="yes"/>
      <point x="155" y="251" type="line" smooth="yes"/>
      <point x="155" y="74"/>
      <point x="302" y="-30"/>
      <point x="582" y="-30" type="curve" smooth="yes"/>
      <point x="881" y="-30"/>
      <point x="1022" y="108"/>
      <point x="1042" y="323" type="curve"/>
      <point x="1053" y="323" type="line"/>
      <point x="1053" y="451" type="line"/>
      <point x="1023.5" y="451" type="line"/>
      <point x="1023.5" y="419" type="line" smooth="yes"/>
      <point x="1023.5" y="139.514"/>
      <point x="875" y="5"/>
      <point x="583" y="5" type="curve" smooth="yes"/>
      <point x="328" y="5"/>
      <point x="193" y="96.6275"/>
      <point x="193" y="251" type="curve" smooth="yes"/>
      <point x="193" y="258" type="line" smooth="yes"/>
      <point x="193" y="401"/>
      <point x="291" y="469"/>
      <point x="549" y="541" type="curve" smooth="yes"/>
      <point x="686" y="579" type="line" smooth="yes"/>
      <point x="933" y="648"/>
      <point x="1021" y="723"/>
      <point x="1021" y="870" type="curve" smooth="yes"/>
      <point x="1021" y="875" type="line" smooth="yes"/>
      <point x="1021" y="1059"/>
      <point x="878" y="1157"/>
    </contour>
  </outline>
</glyph>
<glyph name="Ca.kn" format="2">
  <advance width="2084"/>
  <unicode hex="0C9A"/>
  <outline>
    <contour>
      <point x="1566" y="603" type="line"/>
      <point x="1670" y="598" type="line"/>
      <point x="1670" y="604" type="line"/>
      <point x="1979" y="603" type="line"/>
      <point x="1979" y="636" type="line"/>
      <point x="1660" y="635" type="line"/>
      <point x="1505" y="636" type="line"/>
      <point x="1248" y="636" type="line"/>
      <point x="1248" y="603" type="line"/>
    </contour>
    <contour>
      <point x="1599" y="1089" type="line"/>
      <point x="1599" y="1122" type="line"/>
      <point x="1218" y="1122" type="line"/>
      <point x="1218" y="1089" type="line"/>
    </contour>
    <contour>
      <point x="1905" y="310" type="line"/>
      <point x="1905" y="462.522"/>
      <point x="1813.84" y="567.88"/>
      <point x="1670" y="603" type="curve"/>
      <point x="1504" y="614" type="line"/>
      <point x="1505" y="603" type="line"/>
      <point x="1742" y="603"/>
      <point x="1867" y="490"/>
      <point x="1867" y="310" type="curve"/>
      <point x="1867" y="309" type="line"/>
      <point x="1867" y="122.613"/>
      <point x="1739" y="5"/>
      <point x="1496" y="5" type="curve" smooth="yes"/>
      <point x="1212" y="5"/>
      <point x="1071.73" y="139.666"/>
      <point x="1063" y="419" type="curve" smooth="yes"/>
      <point x="1062" y="451" type="line"/>
      <point x="1043" y="451" type="line"/>
      <point x="1044" y="323" type="line"/>
      <point x="1063" y="108"/>
      <point x="1206" y="-30"/>
      <point x="1497" y="-30" type="curve" smooth="yes"/>
      <point x="1766" y="-30"/>
      <point x="1905" y="100"/>
      <point x="1905" y="309" type="curve"/>
    </contour>
    <contour>
      <point x="1835" y="863" type="line"/>
      <point x="1835" y="979.48"/>
      <point x="1768" y="1059.12"/>
      <point x="1663" y="1087" type="curve"/>
      <point x="1663" y="1101" type="line"/>
      <point x="1495" y="1103" type="line"/>
      <point x="1495" y="1089" type="line"/>
      <point x="1692" y="1089"/>
      <point x="1797" y="1002.38"/>
      <point x="1797" y="863" type="curve"/>
      <point x="1797" y="862" type="line"/>
      <point x="1797" y="723.612"/>
      <point x="1692" y="636"/>
      <point x="1495" y="636" type="curve"/>
      <point x="1495" y="623" type="line"/>
      <point x="1660" y="623" type="line"/>
      <point x="1660" y="636" type="line"/>
      <point x="1766.83" y="663"/>
      <point x="1835" y="745"/>
      <point x="1835" y="862" type="curve"/>
    </contour>
    <contour>
      <point x="614" y="1157" type="curve" smooth="yes"/>
      <point x="337" y="1157"/>
      <point x="188" y="1042"/>
      <point x="188" y="822" type="curve" smooth="yes"/>
      <point x="188" y="819" type="line" smooth="yes"/>
      <point x="188" y="754"/>
      <point x="202" y="694"/>
      <point x="230" y="639" type="curve"/>
      <point x="271" y="639" type="line"/>
      <point x="241" y="696"/>
      <point x="226" y="757"/>
      <point x="226" y="819" type="curve" smooth="yes"/>
      <point x="226" y="822" type="line" smooth="yes"/>
      <point x="226" y="1019.34"/>
      <point x="360" y="1122"/>
      <point x="613" y="1122" type="curve" smooth="yes"/>
      <point x="853" y="1122"/>
      <point x="983" y="1037.34"/>
      <point x="983" y="875" type="curve" smooth="yes"/>
      <point x="983" y="869" type="line" smooth="yes"/>
      <point x="983" y="740.5"/>
      <point x="902.878" y="675.198"/>
      <point x="674" y="612" type="curve" smooth="yes"/>
      <point x="540" y="575" type="line" smooth="yes"/>
      <point x="256.973" y="496.851"/>
      <point x="155" y="422.519"/>
      <point x="155" y="258" type="curve" smooth="yes"/>
      <point x="155" y="251" type="line" smooth="yes"/>
      <point x="155" y="74"/>
      <point x="302" y="-30"/>
      <point x="582" y="-30" type="curve" smooth="yes"/>
      <point x="881" y="-30"/>
      <point x="1022" y="108"/>
      <point x="1042" y="323" type="curve"/>
      <point x="1053" y="323" type="line"/>
      <point x="1053" y="451" type="line"/>
      <point x="1024" y="451" type="line"/>
      <point x="1023" y="419" type="line" smooth="yes"/>
      <point x="1014.27" y="139.666"/>
      <point x="875" y="5"/>
      <point x="583" y="5" type="curve" smooth="yes"/>
      <point x="328" y="5"/>
      <point x="193" y="96.6275"/>
      <point x="193" y="251" type="curve" smooth="yes"/>
      <point x="193" y="258" type="line" smooth="yes"/>
      <point x="193" y="401"/>
      <point x="291" y="469"/>
      <point x="549" y="541" type="curve" smooth="yes"/>
      <point x="686" y="579" type="line" smooth="yes"/>
      <point x="933" y="648"/>
      <point x="1021" y="723"/>
      <point x="1021" y="870" type="curve" smooth="yes"/>
      <point x="1021" y="875" type="line" smooth="yes"/>
      <point x="1021" y="1059"/>
      <point x="878" y="1157"/>
    </contour>
    <contour>
      <point x="1840" y="1558" type="line"/>
      <point x="1901" y="1484.4"/>
      <point x="1933" y="1398.7"/>
      <point x="1933" y="1312" type="curve" smooth="yes"/>
      <point x="1933" y="1178.57"/>
      <point x="1865" y="1122"/>
      <point x="1724" y="1122" type="curve" smooth="yes"/>
      <point x="1580" y="1122" type="line"/>
      <point x="1580" y="1089" type="line"/>
      <point x="1729" y="1089" type="line" smooth="yes"/>
      <point x="1889" y="1089"/>
      <point x="1969" y="1159.09"/>
      <point x="1969" y="1312" type="curve" smooth="yes"/>
      <point x="1969" y="1398.7"/>
      <point x="1937" y="1486.42"/>
      <point x="1879" y="1558" type="curve"/>
    </contour>
  </outline>
</glyph>
<glyph name="Nya.kn" format="2">
  <advance width="2584"/>
  <unicode hex="0C9E"/>
  <outline>
    <contour>
      <point x="2439" y="811" type="curve"/>
      <point x="2439" y="810" type="line"/>
      <point x="2439" y="750"/>
      <point x="2427" y="690"/>
      <point x="2400" y="639" type="curve"/>
      <point x="2440" y="639" type="line"/>
      <point x="2465" y="686"/>
      <point x="2477" y="749"/>
      <point x="2477" y="810" type="curve"/>
      <point x="2477" y="811" type="line"/>
      <point x="2477" y="1032"/>
      <point x="2348" y="1156"/>
      <point x="2099" y="1156" type="curve" smooth="yes"/>
      <point x="1865" y="1156"/>
      <point x="1747" y="1039"/>
      <point x="1717" y="860" type="curve"/>
      <point x="1702" y="860" type="line"/>
      <point x="1701" y="709" type="line"/>
      <point x="1735" y="709" type="line"/>
      <point x="1735" y="719" type="line" smooth="yes"/>
      <point x="1735" y="988.33"/>
      <point x="1855" y="1121"/>
      <point x="2098" y="1121" type="curve" smooth="yes"/>
      <point x="2322" y="1121"/>
      <point x="2439" y="1010.36"/>
    </contour>
    <contour>
      <point x="1747" y="-152" type="line"/>
      <point x="1713" y="43"/>
      <point x="1668" y="164"/>
      <point x="1586" y="274" type="curve"/>
      <point x="1557" y="257" type="line"/>
      <point x="1636" y="151"/>
      <point x="1677" y="38"/>
      <point x="1710" y="-152" type="curve"/>
    </contour>
    <contour>
      <point x="1317" y="1121" type="curve" smooth="yes"/>
      <point x="1568" y="1121"/>
      <point x="1697" y="979.351"/>
      <point x="1697" y="717" type="curve" smooth="yes"/>
      <point x="1697" y="704" type="line" smooth="yes"/>
      <point x="1697" y="535"/>
      <point x="1651" y="391"/>
      <point x="1564" y="282" type="curve" smooth="yes"/>
      <point x="1556" y="272" type="line" smooth="yes"/>
      <point x="1418.07" y="99.5887"/>
      <point x="1184" y="5"/>
      <point x="884" y="5" type="curve" smooth="yes"/>
      <point x="566" y="5"/>
      <point x="394" y="92.6704"/>
      <point x="394" y="271" type="curve"/>
      <point x="394" y="273" type="line"/>
      <point x="394" y="447.324"/>
      <point x="553" y="531"/>
      <point x="864" y="531" type="curve" smooth="yes"/>
      <point x="1185" y="531"/>
      <point x="1435" y="422.389"/>
      <point x="1558" y="252" type="curve"/>
      <point x="1584" y="276" type="line"/>
      <point x="1439" y="459"/>
      <point x="1193" y="566"/>
      <point x="863" y="566" type="curve" smooth="yes"/>
      <point x="528" y="566"/>
      <point x="356" y="470"/>
      <point x="356" y="273" type="curve"/>
      <point x="356" y="271" type="line"/>
      <point x="356" y="69"/>
      <point x="540" y="-30"/>
      <point x="885" y="-30" type="curve" smooth="yes"/>
      <point x="1192" y="-30"/>
      <point x="1434" y="68"/>
      <point x="1580" y="243" type="curve"/>
      <point x="1588" y="253" type="line" smooth="yes"/>
      <point x="1683" y="371"/>
      <point x="1735" y="523"/>
      <point x="1735" y="704" type="curve" smooth="yes"/>
      <point x="1735" y="727" type="line" smooth="yes"/>
      <point x="1735" y="775"/>
      <point x="1725" y="820"/>
      <point x="1716" y="860" type="curve" smooth="yes"/>
      <point x="1674" y="1051"/>
      <point x="1541" y="1156"/>
      <point x="1318" y="1156" type="curve" smooth="yes"/>
      <point x="1065" y="1156"/>
      <point x="944" y="1020"/>
      <point x="926" y="815" type="curve"/>
      <point x="924" y="815" type="line"/>
      <point x="907" y="1020"/>
      <point x="785" y="1156"/>
      <point x="525" y="1156" type="curve" smooth="yes"/>
      <point x="261" y="1156"/>
      <point x="125" y="1033"/>
      <point x="125" y="813" type="curve"/>
      <point x="125" y="812" type="line"/>
      <point x="125" y="752"/>
      <point x="137" y="691"/>
      <point x="160" y="646" type="curve"/>
      <point x="200" y="646" type="line"/>
      <point x="175" y="695"/>
      <point x="163" y="753"/>
      <point x="163" y="812" type="curve"/>
      <point x="163" y="813" type="line"/>
      <point x="163" y="1011.36"/>
      <point x="287" y="1121"/>
      <point x="526" y="1121" type="curve" smooth="yes"/>
      <point x="779" y="1121"/>
      <point x="896.584" y="988.317"/>
      <point x="905" y="719" type="curve" smooth="yes"/>
      <point x="906" y="687" type="line"/>
      <point x="944" y="687" type="line"/>
      <point x="945" y="719" type="line" smooth="yes"/>
      <point x="953.416" y="988.317"/>
      <point x="1072" y="1121"/>
    </contour>
  </outline>
</glyph>
<glyph name="Tta.kn" format="2">
  <advance width="2044"/>
  <unicode hex="0C9F"/>
  <outline>
    <contour>
      <point x="558" y="1156" type="curve" smooth="yes"/>
      <point x="299" y="1156"/>
      <point x="165" y="1042"/>
      <point x="165" y="870" type="curve" smooth="yes"/>
      <point x="165" y="865" type="line" smooth="yes"/>
      <point x="165" y="695"/>
      <point x="279" y="603"/>
      <point x="473" y="589" type="curve"/>
      <point x="473" y="588" type="line"/>
      <point x="276" y="575"/>
      <point x="160" y="472"/>
      <point x="160" y="295" type="curve" smooth="yes"/>
      <point x="160" y="290" type="line" smooth="yes"/>
      <point x="160" y="84"/>
      <point x="305" y="-30"/>
      <point x="591" y="-30" type="curve" smooth="yes"/>
      <point x="868" y="-30"/>
      <point x="1000" y="100"/>
      <point x="1021" y="296" type="curve"/>
      <point x="1039" y="296" type="line"/>
      <point x="1020" y="417" type="line"/>
      <point x="1003" y="417" type="line"/>
      <point x="1002" y="392" type="line" smooth="yes"/>
      <point x="991.627" y="132.685"/>
      <point x="862" y="5"/>
      <point x="592" y="5" type="curve" smooth="yes"/>
      <point x="331" y="5"/>
      <point x="198" y="105.647"/>
      <point x="198" y="290" type="curve" smooth="yes"/>
      <point x="198" y="295" type="line" smooth="yes"/>
      <point x="198" y="483.318"/>
      <point x="336.002" y="569.552"/>
      <point x="585" y="571" type="curve" smooth="yes"/>
      <point x="757" y="572" type="line"/>
      <point x="757" y="604" type="line"/>
      <point x="585" y="605" type="line" smooth="yes"/>
      <point x="339.002" y="606.43"/>
      <point x="203" y="686.686"/>
      <point x="203" y="865" type="curve" smooth="yes"/>
      <point x="203" y="870" type="line" smooth="yes"/>
      <point x="203" y="1020.4"/>
      <point x="325" y="1121"/>
      <point x="559" y="1121" type="curve" smooth="yes"/>
      <point x="697" y="1121"/>
      <point x="805" y="1091"/>
      <point x="881" y="1042" type="curve"/>
      <point x="877" y="1084" type="line"/>
      <point x="800" y="1129"/>
      <point x="692" y="1156"/>
    </contour>
    <contour>
      <point x="1486" y="1156" type="curve" smooth="yes"/>
      <point x="1352" y="1156"/>
      <point x="1244" y="1129"/>
      <point x="1167" y="1084" type="curve"/>
      <point x="1163" y="1042" type="line"/>
      <point x="1239" y="1091"/>
      <point x="1347" y="1121"/>
      <point x="1485" y="1121" type="curve" smooth="yes"/>
      <point x="1719" y="1121"/>
      <point x="1841" y="1020.4"/>
      <point x="1841" y="870" type="curve" smooth="yes"/>
      <point x="1841" y="865" type="line" smooth="yes"/>
      <point x="1841" y="686.686"/>
      <point x="1705" y="606.43"/>
      <point x="1459" y="605" type="curve" smooth="yes"/>
      <point x="1287" y="604" type="line"/>
      <point x="1287" y="572" type="line"/>
      <point x="1459" y="571" type="line" smooth="yes"/>
      <point x="1708" y="569.552"/>
      <point x="1846" y="483.318"/>
      <point x="1846" y="295" type="curve" smooth="yes"/>
      <point x="1846" y="290" type="line" smooth="yes"/>
      <point x="1846" y="105.647"/>
      <point x="1713" y="5"/>
      <point x="1452" y="5" type="curve" smooth="yes"/>
      <point x="1182" y="5"/>
      <point x="1052.37" y="132.685"/>
      <point x="1042" y="392" type="curve" smooth="yes"/>
      <point x="1041" y="417" type="line"/>
      <point x="1018" y="417" type="line"/>
      <point x="1023" y="296" type="line"/>
      <point x="1044" y="100"/>
      <point x="1176" y="-30"/>
      <point x="1453" y="-30" type="curve" smooth="yes"/>
      <point x="1739" y="-30"/>
      <point x="1884" y="84"/>
      <point x="1884" y="290" type="curve" smooth="yes"/>
      <point x="1884" y="295" type="line" smooth="yes"/>
      <point x="1884" y="472"/>
      <point x="1768" y="575"/>
      <point x="1571" y="588" type="curve"/>
      <point x="1571" y="589" type="line"/>
      <point x="1765" y="603"/>
      <point x="1879" y="695"/>
      <point x="1879" y="865" type="curve" smooth="yes"/>
      <point x="1879" y="870" type="line" smooth="yes"/>
      <point x="1879" y="1042"/>
      <point x="1745" y="1156"/>
    </contour>
  </outline>
</glyph>
<glyph name="Ttha.kn" format="2">
  <advance width="1676"/>
  <unicode hex="0CA0"/>
  <outline>
    <contour>
      <point x="579" y="1107" type="line"/>
      <point x="579" y="1086" type="line"/>
      <point x="306.596" y="1034.1"/>
      <point x="166" y="841.448"/>
      <point x="166" y="551" type="curve" smooth="yes"/>
      <point x="166" y="541" type="line" smooth="yes"/>
      <point x="166" y="163"/>
      <point x="396" y="-34"/>
      <point x="838" y="-34" type="curve" smooth="yes"/>
      <point x="1280" y="-34"/>
      <point x="1510" y="163"/>
      <point x="1510" y="540" type="curve" smooth="yes"/>
      <point x="1510" y="551" type="line" smooth="yes"/>
      <point x="1510" y="841.448"/>
      <point x="1369.4" y="1034.1"/>
      <point x="1097" y="1086" type="curve"/>
      <point x="1097" y="1107" type="line"/>
    </contour>
    <contour>
      <point x="166" y="1122" type="line"/>
      <point x="166" y="1089" type="line"/>
      <point x="1163" y="1089" type="line"/>
      <point x="1163" y="1122" type="line"/>
    </contour>
    <contour>
      <point x="839" y="721" type="curve" smooth="yes"/>
      <point x="815" y="721"/>
      <point x="812" y="690"/>
      <point x="812" y="569" type="curve" smooth="yes"/>
      <point x="812" y="552" type="line" smooth="yes"/>
      <point x="812" y="431"/>
      <point x="815" y="400"/>
      <point x="839" y="400" type="curve" smooth="yes"/>
      <point x="863" y="400"/>
      <point x="866" y="431"/>
      <point x="866" y="552" type="curve" smooth="yes"/>
      <point x="866" y="569" type="line" smooth="yes"/>
      <point x="866" y="690"/>
      <point x="863" y="721"/>
    </contour>
    <contour>
      <point x="1472" y="551" type="curve" smooth="yes"/>
      <point x="1472" y="540" type="line" smooth="yes"/>
      <point x="1472" y="185.657"/>
      <point x="1255" y="1"/>
      <point x="838" y="1" type="curve" smooth="yes"/>
      <point x="421" y="1"/>
      <point x="204" y="185.658"/>
      <point x="204" y="541" type="curve" smooth="yes"/>
      <point x="204" y="551" type="line" smooth="yes"/>
      <point x="204" y="906.34"/>
      <point x="421" y="1089"/>
      <point x="838" y="1089" type="curve" smooth="yes"/>
      <point x="1255" y="1089"/>
      <point x="1472" y="906.34"/>
    </contour>
    <contour>
      <point x="1389" y="1558" type="line"/>
      <point x="1450" y="1484.4"/>
      <point x="1482" y="1398.7"/>
      <point x="1482" y="1312" type="curve" smooth="yes"/>
      <point x="1482" y="1178.57"/>
      <point x="1414" y="1122"/>
      <point x="1273" y="1122" type="curve" smooth="yes"/>
      <point x="1129" y="1122" type="line"/>
      <point x="1129" y="1089" type="line"/>
      <point x="1278" y="1089" type="line" smooth="yes"/>
      <point x="1438" y="1089"/>
      <point x="1518" y="1159.09"/>
      <point x="1518" y="1312" type="curve" smooth="yes"/>
      <point x="1518" y="1398.7"/>
      <point x="1486" y="1486.42"/>
      <point x="1428" y="1558" type="curve"/>
    </contour>
  </outline>
</glyph>
<glyph name="Dda.kn" format="2">
  <advance width="1999"/>
  <unicode hex="0CA1"/>
  <outline>
    <contour>
      <point x="1820" y="299" type="line" smooth="yes"/>
      <point x="1820" y="122.6"/>
      <point x="1693" y="5"/>
      <point x="1453" y="5" type="curve" smooth="yes"/>
      <point x="1167" y="5"/>
      <point x="1028.73" y="139.666"/>
      <point x="1020" y="419" type="curve" smooth="yes"/>
      <point x="1019" y="451" type="line"/>
      <point x="981" y="451" type="line"/>
      <point x="980" y="419" type="line" smooth="yes"/>
      <point x="971.271" y="139.666"/>
      <point x="849" y="5"/>
      <point x="592" y="5" type="curve" smooth="yes"/>
      <point x="336" y="5"/>
      <point x="204" y="147.664"/>
      <point x="204" y="429" type="curve" smooth="yes"/>
      <point x="204" y="439" type="line" smooth="yes"/>
      <point x="204" y="863.347"/>
      <point x="465" y="1089"/>
      <point x="962" y="1089" type="curve"/>
      <point x="938" y="1105" type="line"/>
      <point x="676" y="1102" type="line"/>
      <point x="676" y="1087" type="line"/>
      <point x="372.748" y="1030.09"/>
      <point x="166" y="821.41"/>
      <point x="166" y="439" type="curve" smooth="yes"/>
      <point x="166" y="429" type="line" smooth="yes"/>
      <point x="166" y="127"/>
      <point x="310" y="-30"/>
      <point x="591" y="-30" type="curve" smooth="yes"/>
      <point x="856" y="-30"/>
      <point x="981" y="108"/>
      <point x="999" y="323" type="curve"/>
      <point x="1001" y="323" type="line"/>
      <point x="1021" y="108"/>
      <point x="1161" y="-30"/>
      <point x="1454" y="-30" type="curve" smooth="yes"/>
      <point x="1719" y="-30"/>
      <point x="1858" y="101"/>
      <point x="1858" y="299" type="curve" smooth="yes"/>
      <point x="1858" y="304" type="line" smooth="yes"/>
      <point x="1858" y="493"/>
      <point x="1739" y="600"/>
      <point x="1536" y="615" type="curve"/>
      <point x="1536" y="617" type="line"/>
      <point x="1678" y="633"/>
      <point x="1751" y="702"/>
      <point x="1751" y="823" type="curve"/>
      <point x="1751" y="824" type="line"/>
      <point x="1751" y="955.502"/>
      <point x="1651.05" y="1059.09"/>
      <point x="1434" y="1088" type="curve"/>
      <point x="1434" y="1106" type="line"/>
      <point x="1161" y="1106" type="line"/>
      <point x="1117" y="1089" type="line"/>
      <point x="1521" y="1089"/>
      <point x="1714" y="998.343"/>
      <point x="1714" y="825" type="curve"/>
      <point x="1714" y="824" type="line"/>
      <point x="1714" y="692.684"/>
      <point x="1618" y="633.388"/>
      <point x="1407" y="632" type="curve" smooth="yes"/>
      <point x="1255" y="631" type="line"/>
      <point x="1255" y="599" type="line"/>
      <point x="1427" y="598" type="line" smooth="yes"/>
      <point x="1680" y="596.529"/>
      <point x="1820" y="504.319"/>
      <point x="1820" y="304" type="curve" smooth="yes"/>
    </contour>
    <contour>
      <point x="1534" y="1089" type="line"/>
      <point x="1534" y="1122" type="line"/>
      <point x="166" y="1122" type="line"/>
      <point x="166" y="1089" type="line"/>
    </contour>
    <contour>
      <point x="1749" y="1558" type="line"/>
      <point x="1810" y="1484.4"/>
      <point x="1842" y="1398.7"/>
      <point x="1842" y="1312" type="curve" smooth="yes"/>
      <point x="1842" y="1178.57"/>
      <point x="1774" y="1122"/>
      <point x="1633" y="1122" type="curve" smooth="yes"/>
      <point x="1489" y="1122" type="line"/>
      <point x="1489" y="1089" type="line"/>
      <point x="1638" y="1089" type="line" smooth="yes"/>
      <point x="1798" y="1089"/>
      <point x="1878" y="1159.09"/>
      <point x="1878" y="1312" type="curve" smooth="yes"/>
      <point x="1878" y="1398.7"/>
      <point x="1846" y="1486.42"/>
      <point x="1788" y="1558" type="curve"/>
    </contour>
  </outline>
  <guideline angle="90" x="3257" y="0"/>
  <guideline angle="90" x="1211" y="0"/>
  <guideline angle="90" x="1000" y="0"/>
</glyph>
<glyph name="Nna.kn" format="2">
  <advance width="2072"/>
  <unicode hex="0CA3"/>
  <outline>
    <contour>
      <point x="1905" y="518.458" type="line"/>
      <point x="1905" y="527" type="line" smooth="yes"/>
      <point x="1905" y="944"/>
      <point x="1745" y="1156"/>
      <point x="1433" y="1156" type="curve" smooth="yes"/>
      <point x="1179" y="1156"/>
      <point x="1048" y="1024"/>
      <point x="1028" y="825" type="curve"/>
      <point x="1026" y="825" type="line"/>
      <point x="1005" y="1024"/>
      <point x="870" y="1156"/>
      <point x="591" y="1156" type="curve" smooth="yes"/>
      <point x="307" y="1156"/>
      <point x="165" y="1043"/>
      <point x="165" y="838" type="curve" smooth="yes"/>
      <point x="165" y="833" type="line" smooth="yes"/>
      <point x="165" y="659"/>
      <point x="281" y="560"/>
      <point x="478" y="547" type="curve"/>
      <point x="478" y="546" type="line"/>
      <point x="278" y="532"/>
      <point x="160" y="437"/>
      <point x="160" y="263" type="curve" smooth="yes"/>
      <point x="160" y="258" type="line" smooth="yes"/>
      <point x="160" y="85"/>
      <point x="298" y="-30"/>
      <point x="563" y="-30" type="curve" smooth="yes"/>
      <point x="697" y="-30"/>
      <point x="805" y="-3"/>
      <point x="882" y="42" type="curve"/>
      <point x="886" y="84" type="line"/>
      <point x="810" y="35"/>
      <point x="702" y="5"/>
      <point x="564" y="5" type="curve" smooth="yes"/>
      <point x="324" y="5"/>
      <point x="198" y="106.598"/>
      <point x="198" y="258" type="curve" smooth="yes"/>
      <point x="198" y="263" type="line" smooth="yes"/>
      <point x="198" y="446.311"/>
      <point x="338.002" y="527.535"/>
      <point x="590" y="529" type="curve" smooth="yes"/>
      <point x="762" y="530" type="line"/>
      <point x="762" y="562" type="line"/>
      <point x="590" y="563" type="line" smooth="yes"/>
      <point x="341.002" y="564.448"/>
      <point x="203" y="649.679"/>
      <point x="203" y="833" type="curve" smooth="yes"/>
      <point x="203" y="838" type="line" smooth="yes"/>
      <point x="203" y="1021.35"/>
      <point x="333" y="1121"/>
      <point x="592" y="1121" type="curve" smooth="yes"/>
      <point x="864" y="1121"/>
      <point x="996.506" y="991.352"/>
      <point x="1007" y="729" type="curve" smooth="yes"/>
      <point x="1008" y="704" type="line"/>
      <point x="1046" y="704" type="line"/>
      <point x="1047" y="729" type="line" smooth="yes"/>
      <point x="1057.49" y="991.352"/>
      <point x="1185" y="1121"/>
      <point x="1433" y="1121" type="curve" smooth="yes"/>
      <point x="1719" y="1121"/>
      <point x="1867" y="919.339"/>
      <point x="1867" y="527" type="curve" smooth="yes"/>
      <point x="1867" y="519.638" type="line"/>
    </contour>
    <contour>
      <point x="1867" y="521.638" type="line"/>
      <point x="1867" y="513" type="line" smooth="yes"/>
      <point x="1867" y="175.834"/>
      <point x="1737.89" y="5"/>
      <point x="1484" y="5" type="curve" smooth="yes"/>
      <point x="1276" y="5"/>
      <point x="1164" y="108.636"/>
      <point x="1164" y="290" type="curve" smooth="yes"/>
      <point x="1164" y="295" type="line" smooth="yes"/>
      <point x="1164" y="473.365"/>
      <point x="1279" y="576"/>
      <point x="1490" y="576" type="curve" smooth="yes"/>
      <point x="1664.38" y="576"/>
      <point x="1794.43" y="501.089"/>
      <point x="1866" y="380" type="curve"/>
      <point x="1883" y="427" type="line"/>
      <point x="1863" y="427" type="line"/>
      <point x="1797" y="538.395"/>
      <point x="1663" y="611"/>
      <point x="1489" y="611" type="curve" smooth="yes"/>
      <point x="1256" y="611"/>
      <point x="1126" y="498"/>
      <point x="1126" y="295" type="curve" smooth="yes"/>
      <point x="1126" y="290" type="line" smooth="yes"/>
      <point x="1126" y="83"/>
      <point x="1253" y="-30"/>
      <point x="1484" y="-30" type="curve" smooth="yes"/>
      <point x="1764.38" y="-30"/>
      <point x="1905" y="151.365"/>
      <point x="1905" y="513" type="curve" smooth="yes"/>
      <point x="1905" y="520.458" type="line"/>
    </contour>
  </outline>
</glyph>
<glyph name="Ba.kn" format="2">
  <advance width="2061"/>
  <unicode hex="0CAC"/>
  <outline>
    <contour>
      <point x="1385" y="1141" type="curve" smooth="yes"/>
      <point x="1364" y="1141"/>
      <point x="1355" y="1140"/>
      <point x="1338" y="1139" type="curve"/>
      <point x="1338" y="1104" type="line"/>
      <point x="1351" y="1105"/>
      <point x="1365" y="1106"/>
      <point x="1384" y="1106" type="curve" smooth="yes"/>
      <point x="1689" y="1106"/>
      <point x="1857" y="902.354"/>
      <point x="1857" y="531" type="curve" smooth="yes"/>
      <point x="1857" y="521" type="line" smooth="yes"/>
      <point x="1857" y="196.629"/>
      <point x="1717" y="5"/>
      <point x="1451" y="5" type="curve" smooth="yes"/>
      <point x="1194" y="5"/>
      <point x="1071.73" y="139.666"/>
      <point x="1063" y="419" type="curve" smooth="yes"/>
      <point x="1062" y="451" type="line"/>
      <point x="1029" y="451" type="line"/>
      <point x="1044" y="323" type="line"/>
      <point x="1061" y="108"/>
      <point x="1187" y="-30"/>
      <point x="1452" y="-30" type="curve" smooth="yes"/>
      <point x="1744" y="-30"/>
      <point x="1895" y="174"/>
      <point x="1895" y="521" type="curve" smooth="yes"/>
      <point x="1895" y="529" type="line" smooth="yes"/>
      <point x="1895" y="922"/>
      <point x="1712" y="1141"/>
    </contour>
    <contour>
      <point x="614" y="1157" type="curve" smooth="yes"/>
      <point x="337" y="1157"/>
      <point x="188" y="1042"/>
      <point x="188" y="822" type="curve" smooth="yes"/>
      <point x="188" y="819" type="line" smooth="yes"/>
      <point x="188" y="754"/>
      <point x="202" y="694"/>
      <point x="230" y="639" type="curve"/>
      <point x="271" y="639" type="line"/>
      <point x="241" y="696"/>
      <point x="226" y="757"/>
      <point x="226" y="819" type="curve" smooth="yes"/>
      <point x="226" y="822" type="line" smooth="yes"/>
      <point x="226" y="1019.34"/>
      <point x="360" y="1122"/>
      <point x="613" y="1122" type="curve" smooth="yes"/>
      <point x="853" y="1122"/>
      <point x="983" y="1037.34"/>
      <point x="983" y="875" type="curve" smooth="yes"/>
      <point x="983" y="869" type="line" smooth="yes"/>
      <point x="983" y="740.5"/>
      <point x="902.878" y="675.198"/>
      <point x="674" y="612" type="curve" smooth="yes"/>
      <point x="540" y="575" type="line" smooth="yes"/>
      <point x="256.973" y="496.851"/>
      <point x="155" y="422.519"/>
      <point x="155" y="258" type="curve" smooth="yes"/>
      <point x="155" y="251" type="line" smooth="yes"/>
      <point x="155" y="74"/>
      <point x="302" y="-30"/>
      <point x="582" y="-30" type="curve" smooth="yes"/>
      <point x="881" y="-30"/>
      <point x="1022" y="108"/>
      <point x="1042" y="323" type="curve"/>
      <point x="1053" y="323" type="line"/>
      <point x="1053" y="451" type="line"/>
      <point x="1024" y="451" type="line"/>
      <point x="1023" y="419" type="line" smooth="yes"/>
      <point x="1014.27" y="139.666"/>
      <point x="875" y="5"/>
      <point x="583" y="5" type="curve" smooth="yes"/>
      <point x="328" y="5"/>
      <point x="193" y="96.6275"/>
      <point x="193" y="251" type="curve" smooth="yes"/>
      <point x="193" y="258" type="line" smooth="yes"/>
      <point x="193" y="401"/>
      <point x="291" y="469"/>
      <point x="549" y="541" type="curve" smooth="yes"/>
      <point x="686" y="579" type="line" smooth="yes"/>
      <point x="933" y="648"/>
      <point x="1021" y="723"/>
      <point x="1021" y="870" type="curve" smooth="yes"/>
      <point x="1021" y="875" type="line" smooth="yes"/>
      <point x="1021" y="1059"/>
      <point x="878" y="1157"/>
    </contour>
  </outline>
</glyph>
<glyph name="Ra.kn" format="2">
  <advance width="1676"/>
  <unicode hex="0CB0"/>
  <outline>
    <contour>
      <point x="579" y="1108" type="line"/>
      <point x="579" y="1086" type="line"/>
      <point x="306.596" y="1034.1"/>
      <point x="166" y="841.447"/>
      <point x="166" y="552" type="curve" smooth="yes"/>
      <point x="166" y="540" type="line" smooth="yes"/>
      <point x="166" y="163"/>
      <point x="396" y="-34"/>
      <point x="838" y="-34" type="curve" smooth="yes"/>
      <point x="1280" y="-34"/>
      <point x="1510" y="163"/>
      <point x="1510" y="540" type="curve" smooth="yes"/>
      <point x="1510" y="552" type="line" smooth="yes"/>
      <point x="1510" y="841.447"/>
      <point x="1369.4" y="1034.1"/>
      <point x="1097" y="1086" type="curve"/>
      <point x="1097" y="1108" type="line"/>
    </contour>
    <contour>
      <point x="838" y="1" type="curve" smooth="yes"/>
      <point x="421" y="1"/>
      <point x="204" y="185.657"/>
      <point x="204" y="540" type="curve" smooth="yes"/>
      <point x="204" y="552" type="line" smooth="yes"/>
      <point x="204" y="906.34"/>
      <point x="421" y="1089"/>
      <point x="838" y="1089" type="curve" smooth="yes"/>
      <point x="1255" y="1089"/>
      <point x="1472" y="906.34"/>
      <point x="1472" y="552" type="curve" smooth="yes"/>
      <point x="1472" y="540" type="line" smooth="yes"/>
      <point x="1472" y="185.657"/>
      <point x="1255" y="1"/>
    </contour>
    <contour>
      <point x="1163" y="1089" type="line"/>
      <point x="1163" y="1122" type="line"/>
      <point x="166" y="1122" type="line"/>
      <point x="166" y="1089" type="line"/>
    </contour>
    <contour>
      <point x="1391" y="1558" type="line"/>
      <point x="1452" y="1484.4"/>
      <point x="1484" y="1398.7"/>
      <point x="1484" y="1312" type="curve" smooth="yes"/>
      <point x="1484" y="1178.57"/>
      <point x="1416" y="1122"/>
      <point x="1275" y="1122" type="curve" smooth="yes"/>
      <point x="1131" y="1122" type="line"/>
      <point x="1131" y="1089" type="line"/>
      <point x="1280" y="1089" type="line" smooth="yes"/>
      <point x="1440" y="1089"/>
      <point x="1520" y="1159.09"/>
      <point x="1520" y="1312" type="curve" smooth="yes"/>
      <point x="1520" y="1398.7"/>
      <point x="1488" y="1486.42"/>
      <point x="1430" y="1558" type="curve"/>
    </contour>
  </outline>
  <guideline angle="90" x="948" y="0"/>
  <guideline angle="90" x="1620" y="0"/>
  <guideline angle="90" x="249" y="0"/>
</glyph>
<glyph name="La.kn" format="2">
  <advance width="1874"/>
  <unicode hex="0CB2"/>
  <outline>
    <contour>
      <point x="196" y="654.484" type="line"/>
      <point x="196" y="659" type="line" smooth="yes"/>
      <point x="196" y="961.497"/>
      <point x="339.303" y="1122"/>
      <point x="611" y="1122" type="curve" smooth="yes"/>
      <point x="825" y="1122"/>
      <point x="941" y="1018.36"/>
      <point x="941" y="837" type="curve" smooth="yes"/>
      <point x="941" y="832" type="line" smooth="yes"/>
      <point x="941" y="653.635"/>
      <point x="822" y="551"/>
      <point x="605" y="551" type="curve" smooth="yes"/>
      <point x="416.251" y="551"/>
      <point x="271.138" y="626.44"/>
      <point x="193" y="751" type="curve"/>
      <point x="179" y="701" type="line"/>
      <point x="198" y="701" type="line"/>
      <point x="270" y="589"/>
      <point x="417" y="516"/>
      <point x="606" y="516" type="curve" smooth="yes"/>
      <point x="845" y="516"/>
      <point x="979" y="629"/>
      <point x="979" y="832" type="curve" smooth="yes"/>
      <point x="979" y="837" type="line" smooth="yes"/>
      <point x="979" y="1041"/>
      <point x="845" y="1157"/>
      <point x="611" y="1157" type="curve" smooth="yes"/>
      <point x="313" y="1157"/>
      <point x="158" y="980"/>
      <point x="158" y="659" type="curve" smooth="yes"/>
      <point x="158" y="652.773" type="line"/>
    </contour>
    <contour>
      <point x="158" y="653.773" type="line"/>
      <point x="158" y="649" type="line" smooth="yes"/>
      <point x="158" y="203"/>
      <point x="435" y="-32"/>
      <point x="951" y="-32" type="curve" smooth="yes"/>
      <point x="1451" y="-32"/>
      <point x="1716" y="185"/>
      <point x="1716" y="603" type="curve" smooth="yes"/>
      <point x="1716" y="608" type="line" smooth="yes"/>
      <point x="1716" y="946"/>
      <point x="1529" y="1141"/>
      <point x="1236" y="1141" type="curve" smooth="yes"/>
      <point x="1215" y="1141"/>
      <point x="1206" y="1140"/>
      <point x="1189" y="1139" type="curve"/>
      <point x="1189" y="1104" type="line"/>
      <point x="1202" y="1105"/>
      <point x="1216" y="1106"/>
      <point x="1235" y="1106" type="curve" smooth="yes"/>
      <point x="1506" y="1106"/>
      <point x="1678" y="925.364"/>
      <point x="1678" y="610" type="curve" smooth="yes"/>
      <point x="1678" y="603" type="line" smooth="yes"/>
      <point x="1678" y="206.661"/>
      <point x="1429" y="3"/>
      <point x="951" y="3" type="curve" smooth="yes"/>
      <point x="455" y="3"/>
      <point x="196" y="222.66"/>
      <point x="196" y="650" type="curve" smooth="yes"/>
      <point x="196" y="655.484" type="line"/>
    </contour>
  </outline>
</glyph>
<glyph name="Nukta1.kn" format="2">
  <unicode hex="0CBC"/>
  <anchor x="0" y="0" name="_nukta"/>
  <outline>
    <contour>
      <point x="-282" y="-180" type="curve" smooth="yes"/>
      <point x="-310" y="-180"/>
      <point x="-323" y="-201"/>
      <point x="-323" y="-251" type="curve" smooth="yes"/>
      <point x="-323" y="-301"/>
      <point x="-310" y="-322"/>
      <point x="-282" y="-322" type="curve" smooth="yes"/>
      <point x="-254" y="-322"/>
      <point x="-241" y="-301"/>
      <point x="-241" y="-251" type="curve" smooth="yes"/>
      <point x="-241" y="-201"/>
      <point x="-254" y="-180"/>
    </contour>
    <contour>
      <point x="282" y="-180" type="curve" smooth="yes"/>
      <point x="254" y="-180"/>
      <point x="241" y="-201"/>
      <point x="241" y="-251" type="curve" smooth="yes"/>
      <point x="241" y="-301"/>
      <point x="254" y="-322"/>
      <point x="282" y="-322" type="curve" smooth="yes"/>
      <point x="310" y="-322"/>
      <point x="323" y="-301"/>
      <point x="323" y="-251" type="curve" smooth="yes"/>
      <point x="323" y="-201"/>
      <point x="310" y="-180"/>
    </contour>
  </outline>
</glyph>
<glyph name="Avagraha" format="2">
  <advance width="1077"/>
  <unicode hex="0CBD"/>
  <outline>
    <contour>
      <point x="932" y="1122" type="line"/>
      <point x="381" y="1122" type="line" smooth="yes"/>
      <point x="186" y="1122"/>
      <point x="85" y="1050"/>
      <point x="85" y="907" type="curve"/>
      <point x="85" y="905" type="line"/>
      <point x="85" y="544"/>
      <point x="919" y="640"/>
      <point x="919" y="263" type="curve"/>
      <point x="919" y="261" type="line"/>
      <point x="919" y="93"/>
      <point x="793" y="5"/>
      <point x="541" y="5" type="curve" smooth="yes"/>
      <point x="372" y="5"/>
      <point x="226" y="39"/>
      <point x="85" y="110" type="curve"/>
      <point x="93" y="70" type="line"/>
      <point x="213" y="7"/>
      <point x="374" y="-30"/>
      <point x="542" y="-30" type="curve" smooth="yes"/>
      <point x="817" y="-30"/>
      <point x="957" y="71"/>
      <point x="957" y="261" type="curve"/>
      <point x="957" y="263" type="line"/>
      <point x="957" y="671"/>
      <point x="123" y="575"/>
      <point x="123" y="905" type="curve"/>
      <point x="123" y="907" type="line"/>
      <point x="123" y="1029.33"/>
      <point x="209" y="1089"/>
      <point x="383" y="1089" type="curve" smooth="yes"/>
      <point x="932" y="1089" type="line"/>
    </contour>
  </outline>
</glyph>
<glyph name="matraAa.kn" format="2">
  <advance width="2319"/>
  <unicode hex="0CBE"/>
  <outline>
    <contour>
      <point x="2153" y="478.922" type="line"/>
      <point x="2153" y="485" type="line" smooth="yes"/>
      <point x="2153" y="906"/>
      <point x="1921" y="1122"/>
      <point x="1442" y="1122" type="curve" smooth="yes"/>
      <point x="689" y="1122" type="line"/>
      <point x="689" y="1089" type="line"/>
      <point x="1442" y="1089" type="line" smooth="yes"/>
      <point x="1895" y="1089"/>
      <point x="2115" y="885.337"/>
      <point x="2115" y="484" type="curve" smooth="yes"/>
      <point x="2115" y="478.389" type="line"/>
    </contour>
    <contour>
      <point x="1744" y="-30" type="curve" smooth="yes"/>
      <point x="2016" y="-30"/>
      <point x="2153" y="142"/>
      <point x="2153" y="473" type="curve" smooth="yes"/>
      <point x="2153" y="479.922" type="line"/>
      <point x="2115" y="479.389" type="line"/>
      <point x="2115" y="473" type="line" smooth="yes"/>
      <point x="2115" y="163.661"/>
      <point x="1990.05" y="5"/>
      <point x="1744" y="5" type="curve" smooth="yes"/>
      <point x="1513" y="5"/>
      <point x="1392" y="111.635"/>
      <point x="1392" y="297" type="curve" smooth="yes"/>
      <point x="1392" y="302" type="line" smooth="yes"/>
      <point x="1392" y="482.372"/>
      <point x="1508" y="589"/>
      <point x="1735" y="589" type="curve" smooth="yes"/>
      <point x="1913.15" y="589"/>
      <point x="2047.28" y="510.46"/>
      <point x="2121" y="385" type="curve"/>
      <point x="2132" y="441" type="line"/>
      <point x="2114" y="441" type="line"/>
      <point x="2047" y="550"/>
      <point x="1911" y="624"/>
      <point x="1734" y="624" type="curve" smooth="yes"/>
      <point x="1485" y="624"/>
      <point x="1354" y="507"/>
      <point x="1354" y="302" type="curve" smooth="yes"/>
      <point x="1354" y="297" type="line" smooth="yes"/>
      <point x="1354" y="86"/>
      <point x="1492" y="-30"/>
    </contour>
  </outline>
</glyph>
<glyph name="matraI.kn" format="2">
  <advance width="883"/>
  <unicode hex="0CBF"/>
  <outline>
    <contour>
      <point x="790" y="1055" type="line" smooth="yes"/>
      <point x="790" y="1274"/>
      <point x="644.625" y="1404"/>
      <point x="390" y="1404" type="curve" smooth="yes"/>
      <point x="176" y="1404"/>
      <point x="56" y="1311"/>
      <point x="56" y="1144" type="curve" smooth="yes"/>
      <point x="56" y="1139" type="line" smooth="yes"/>
      <point x="56" y="973"/>
      <point x="176" y="882"/>
      <point x="395" y="882" type="curve" smooth="yes"/>
      <point x="559" y="882"/>
      <point x="689" y="950"/>
      <point x="751" y="1053" type="curve"/>
      <point x="769" y="1053" type="line"/>
      <point x="757" y="1106" type="line"/>
      <point x="689.504" y="987.626"/>
      <point x="561.671" y="917"/>
      <point x="396" y="917" type="curve" smooth="yes"/>
      <point x="200" y="917"/>
      <point x="94" y="996.641"/>
      <point x="94" y="1139" type="curve" smooth="yes"/>
      <point x="94" y="1144" type="line" smooth="yes"/>
      <point x="94" y="1289.35"/>
      <point x="197" y="1369"/>
      <point x="390" y="1369" type="curve" smooth="yes"/>
      <point x="620.016" y="1369"/>
      <point x="752" y="1249.43"/>
      <point x="752" y="1054" type="curve" smooth="yes"/>
      <point x="752" y="1047" type="line" smooth="yes"/>
      <point x="752" y="809.034"/>
      <point x="626" y="688"/>
      <point x="382" y="688" type="curve" smooth="yes"/>
      <point x="311" y="688"/>
      <point x="249" y="701"/>
      <point x="193" y="723" type="curve"/>
      <point x="215" y="680" type="line"/>
      <point x="253" y="665"/>
      <point x="320" y="653"/>
      <point x="382" y="653" type="curve" smooth="yes"/>
      <point x="651" y="653"/>
      <point x="790" y="786.394"/>
      <point x="790" y="1046" type="curve" smooth="yes"/>
    </contour>
  </outline>
  <guideline angle="90" x="443" y="0"/>
  <guideline angle="0" x="0" y="1183"/>
</glyph>
<glyph name="matraU.kn" format="2">
  <advance width="857"/>
  <unicode hex="0CC1"/>
  <outline>
    <contour>
      <point x="181" y="1141" type="curve" smooth="yes"/>
      <point x="160" y="1141"/>
      <point x="151" y="1140"/>
      <point x="134" y="1139" type="curve"/>
      <point x="134" y="1104" type="line"/>
      <point x="147" y="1105"/>
      <point x="161" y="1106"/>
      <point x="180" y="1106" type="curve" smooth="yes"/>
      <point x="485" y="1106"/>
      <point x="653" y="902.354"/>
      <point x="653" y="531" type="curve" smooth="yes"/>
      <point x="653" y="522" type="line" smooth="yes"/>
      <point x="653" y="178.664"/>
      <point x="501" y="5"/>
      <point x="206" y="5" type="curve" smooth="yes"/>
      <point x="-62" y="5"/>
      <point x="-217" y="139.635"/>
      <point x="-217" y="374" type="curve" smooth="yes"/>
      <point x="-217" y="381" type="line"/>
      <point x="-241" y="381" type="line"/>
      <point x="-241" y="306" type="line"/>
      <point x="-224.964" y="112"/>
      <point x="-74.6286" y="-30"/>
      <point x="207" y="-30" type="curve" smooth="yes"/>
      <point x="527" y="-30"/>
      <point x="691" y="158"/>
      <point x="691" y="522" type="curve" smooth="yes"/>
      <point x="691" y="531" type="line" smooth="yes"/>
      <point x="691" y="923"/>
      <point x="508" y="1141"/>
    </contour>
  </outline>
</glyph>
<glyph name="matraUu.kn" format="2">
  <advance width="1814"/>
  <unicode hex="0CC2"/>
  <outline>
    <contour>
      <point x="125" y="5" type="curve" smooth="yes"/>
      <point x="-80" y="5"/>
      <point x="-184" y="115.664"/>
      <point x="-184" y="334" type="curve" smooth="yes"/>
      <point x="-184" y="401" type="line"/>
      <point x="-214" y="401" type="line"/>
      <point x="-214" y="333" type="line" smooth="yes"/>
      <point x="-214" y="84"/>
      <point x="-92.642" y="-30"/>
      <point x="125" y="-30" type="curve" smooth="yes"/>
      <point x="347" y="-30"/>
      <point x="471" y="89"/>
      <point x="471" y="333" type="curve" smooth="yes"/>
      <point x="471" y="464" type="line"/>
      <point x="434" y="464" type="line"/>
      <point x="434" y="334" type="line" smooth="yes"/>
      <point x="434" y="112.673"/>
      <point x="327" y="5"/>
    </contour>
    <contour>
      <point x="1042.45" y="1157" type="curve" smooth="yes"/>
      <point x="645.45" y="1157"/>
      <point x="434.45" y="960"/>
      <point x="434.45" y="580" type="curve" smooth="yes"/>
      <point x="434.45" y="454" type="line"/>
      <point x="471.45" y="454" type="line"/>
      <point x="471.45" y="577" type="line" smooth="yes"/>
      <point x="471.45" y="937.339"/>
      <point x="668.45" y="1122"/>
      <point x="1042.45" y="1122" type="curve" smooth="yes"/>
      <point x="1414.45" y="1122"/>
      <point x="1609.45" y="912.335"/>
      <point x="1609.45" y="496" type="curve" smooth="yes"/>
      <point x="1609.45" y="484.28" type="line"/>
      <point x="1647.45" y="485.444" type="line"/>
      <point x="1647.45" y="497" type="line" smooth="yes"/>
      <point x="1647.45" y="934"/>
      <point x="1438.45" y="1157"/>
    </contour>
    <contour>
      <point x="1647.45" y="488.444" type="line"/>
      <point x="1609.45" y="487.28" type="line"/>
      <point x="1609.45" y="473" type="line" smooth="yes"/>
      <point x="1609.45" y="163.95"/>
      <point x="1484.4" y="5"/>
      <point x="1238.45" y="5" type="curve" smooth="yes"/>
      <point x="1007.45" y="5"/>
      <point x="886.45" y="111.635"/>
      <point x="886.45" y="297" type="curve" smooth="yes"/>
      <point x="886.45" y="302" type="line" smooth="yes"/>
      <point x="886.45" y="482.372"/>
      <point x="1002.45" y="589"/>
      <point x="1229.45" y="589" type="curve" smooth="yes"/>
      <point x="1407.76" y="589"/>
      <point x="1538.5" y="511.237"/>
      <point x="1611.45" y="392" type="curve"/>
      <point x="1626.45" y="441" type="line"/>
      <point x="1608.45" y="441" type="line"/>
      <point x="1541.45" y="550"/>
      <point x="1405.45" y="624"/>
      <point x="1228.45" y="624" type="curve" smooth="yes"/>
      <point x="979.45" y="624"/>
      <point x="848.45" y="507"/>
      <point x="848.45" y="302" type="curve" smooth="yes"/>
      <point x="848.45" y="297" type="line" smooth="yes"/>
      <point x="848.45" y="86"/>
      <point x="986.45" y="-30"/>
      <point x="1238.45" y="-30" type="curve" smooth="yes"/>
      <point x="1510.45" y="-30"/>
      <point x="1647.45" y="142"/>
      <point x="1647.45" y="473" type="curve" smooth="yes"/>
    </contour>
  </outline>
</glyph>
<glyph name="matraRu.kn" format="2">
  <advance width="103"/>
  <unicode hex="0CC3"/>
  <outline>
    <contour>
      <point x="-575" y="-431.898" type="line"/>
      <point x="-575" y="-434" type="line" smooth="yes"/>
      <point x="-575" y="-645.102"/>
      <point x="-433" y="-765"/>
      <point x="-183" y="-765" type="curve" smooth="yes"/>
      <point x="101" y="-765"/>
      <point x="227" y="-623"/>
      <point x="227" y="-364" type="curve" smooth="yes"/>
      <point x="227" y="-355" type="line" smooth="yes"/>
      <point x="227" y="-164"/>
      <point x="159" y="15"/>
      <point x="27" y="172" type="curve"/>
      <point x="-10" y="172" type="line"/>
      <point x="133" y="-15"/>
      <point x="191" y="-164"/>
      <point x="191" y="-355" type="curve" smooth="yes"/>
      <point x="191" y="-364" type="line" smooth="yes"/>
      <point x="191" y="-603"/>
      <point x="82" y="-732"/>
      <point x="-182" y="-732" type="curve" smooth="yes"/>
      <point x="-414" y="-732"/>
      <point x="-540" y="-627.186"/>
      <point x="-540" y="-434" type="curve"/>
      <point x="-540" y="-432.17" type="line"/>
    </contour>
    <contour>
      <point x="-320" y="-176" type="curve" smooth="yes"/>
      <point x="-479.865" y="-176"/>
      <point x="-575" y="-271.008"/>
      <point x="-575" y="-430" type="curve" smooth="yes"/>
      <point x="-575" y="-432.898" type="line"/>
      <point x="-540" y="-433.17" type="line"/>
      <point x="-540" y="-430" type="line" smooth="yes"/>
      <point x="-540" y="-291.785"/>
      <point x="-457.589" y="-209"/>
      <point x="-320" y="-209" type="curve" smooth="yes"/>
      <point x="-205.773" y="-209"/>
      <point x="-143" y="-263.755"/>
      <point x="-143" y="-354" type="curve"/>
      <point x="-143" y="-356" type="line"/>
      <point x="-143" y="-450.694"/>
      <point x="-206" y="-501"/>
      <point x="-317" y="-501" type="curve" smooth="yes"/>
      <point x="-421.456" y="-501"/>
      <point x="-500.803" y="-459"/>
      <point x="-546" y="-395" type="curve"/>
      <point x="-558" y="-439" type="line"/>
      <point x="-539" y="-439" type="line"/>
      <point x="-495" y="-496"/>
      <point x="-417" y="-534"/>
      <point x="-315" y="-534" type="curve" smooth="yes"/>
      <point x="-182" y="-534"/>
      <point x="-108" y="-472.689"/>
      <point x="-108" y="-356" type="curve"/>
      <point x="-108" y="-354" type="line"/>
      <point x="-108" y="-242.75"/>
      <point x="-184.812" y="-176"/>
    </contour>
  </outline>
</glyph>
<glyph name="matraRuu.kn" format="2">
  <advance width="728"/>
  <unicode hex="0CC4"/>
  <outline>
    <contour>
      <point x="-8.04776" y="168.442" type="line"/>
      <point x="133.528" y="-17.3607"/>
      <point x="191" y="-165.872"/>
      <point x="191" y="-356" type="curve" smooth="yes"/>
      <point x="191" y="-365" type="line" smooth="yes"/>
      <point x="191" y="-603.351"/>
      <point x="82" y="-732"/>
      <point x="-182" y="-732" type="curve" smooth="yes"/>
      <point x="-414" y="-732"/>
      <point x="-540" y="-627.186"/>
      <point x="-540" y="-434" type="curve"/>
      <point x="-540" y="-432" type="line"/>
      <point x="-575" y="-432" type="line"/>
      <point x="-575" y="-434" type="line"/>
      <point x="-575" y="-645.102"/>
      <point x="-433" y="-765"/>
      <point x="-183" y="-765" type="curve" smooth="yes"/>
      <point x="101" y="-765"/>
      <point x="227" y="-623.354"/>
      <point x="227" y="-365" type="curve" smooth="yes"/>
      <point x="227" y="-356" type="line" smooth="yes"/>
      <point x="227" y="-165"/>
      <point x="157" y="14"/>
      <point x="25" y="171" type="curve"/>
      <point x="-6.90064" y="171" type="line"/>
    </contour>
    <contour>
      <point x="818" y="-137.984" type="line"/>
      <point x="818" y="-135" type="line" smooth="yes"/>
      <point x="818" y="67"/>
      <point x="702" y="171"/>
      <point x="473" y="171" type="curve" smooth="yes"/>
      <point x="13" y="171" type="line"/>
      <point x="27" y="139" type="line"/>
      <point x="473" y="139" type="line" smooth="yes"/>
      <point x="678" y="139"/>
      <point x="783" y="46"/>
      <point x="783" y="-135" type="curve" smooth="yes"/>
      <point x="783" y="-140.516" type="line"/>
    </contour>
    <contour>
      <point x="783" y="-139.516" type="line"/>
      <point x="783" y="-142" type="line" smooth="yes"/>
      <point x="783" y="-279"/>
      <point x="718" y="-366"/>
      <point x="583" y="-366" type="curve" smooth="yes"/>
      <point x="472" y="-366"/>
      <point x="413" y="-319"/>
      <point x="413" y="-231" type="curve"/>
      <point x="413" y="-229" type="line"/>
      <point x="413" y="-141"/>
      <point x="474" y="-92"/>
      <point x="584" y="-92" type="curve" smooth="yes"/>
      <point x="675.888" y="-92"/>
      <point x="747.581" y="-127.389"/>
      <point x="791" y="-183" type="curve"/>
      <point x="805" y="-140" type="line"/>
      <point x="782" y="-140" type="line"/>
      <point x="740" y="-90.7692"/>
      <point x="671" y="-60"/>
      <point x="581" y="-60" type="curve" smooth="yes"/>
      <point x="452" y="-60"/>
      <point x="378" y="-121"/>
      <point x="378" y="-229" type="curve"/>
      <point x="378" y="-231" type="line"/>
      <point x="378" y="-339"/>
      <point x="452" y="-399"/>
      <point x="583" y="-399" type="curve" smooth="yes"/>
      <point x="736" y="-399"/>
      <point x="818" y="-307"/>
      <point x="818" y="-139" type="curve" smooth="yes"/>
      <point x="818" y="-136.984" type="line"/>
    </contour>
    <contour>
      <point x="-320" y="-176" type="curve" smooth="yes"/>
      <point x="-479.865" y="-176"/>
      <point x="-575" y="-271.008"/>
      <point x="-575" y="-430" type="curve" smooth="yes"/>
      <point x="-575" y="-432.898" type="line"/>
      <point x="-540" y="-433.17" type="line"/>
      <point x="-540" y="-430" type="line" smooth="yes"/>
      <point x="-540" y="-291.785"/>
      <point x="-457.589" y="-209"/>
      <point x="-320" y="-209" type="curve" smooth="yes"/>
      <point x="-205.773" y="-209"/>
      <point x="-143" y="-263.755"/>
      <point x="-143" y="-354" type="curve"/>
      <point x="-143" y="-356" type="line"/>
      <point x="-143" y="-450.694"/>
      <point x="-206" y="-501"/>
      <point x="-317" y="-501" type="curve" smooth="yes"/>
      <point x="-421.456" y="-501"/>
      <point x="-500.803" y="-459"/>
      <point x="-546" y="-395" type="curve"/>
      <point x="-558" y="-439" type="line"/>
      <point x="-539" y="-439" type="line"/>
      <point x="-495" y="-496"/>
      <point x="-417" y="-534"/>
      <point x="-315" y="-534" type="curve" smooth="yes"/>
      <point x="-182" y="-534"/>
      <point x="-108" y="-472.689"/>
      <point x="-108" y="-356" type="curve"/>
      <point x="-108" y="-354" type="line"/>
      <point x="-108" y="-242.75"/>
      <point x="-184.812" y="-176"/>
    </contour>
  </outline>
</glyph>
<glyph name="matraAu.kn" format="2">
  <advance width="1760"/>
  <unicode hex="0CCC"/>
  <outline>
    <contour>
      <point x="497" y="1089" type="line" smooth="yes"/>
      <point x="669" y="1089"/>
      <point x="759" y="1166.34"/>
      <point x="759" y="1314" type="curve" smooth="yes"/>
      <point x="759" y="1320" type="line" smooth="yes"/>
      <point x="759" y="1420.49"/>
      <point x="712" y="1493.12"/>
      <point x="632" y="1516" type="curve"/>
      <point x="632" y="1529" type="line"/>
      <point x="497" y="1529" type="line"/>
      <point x="497" y="1517" type="line"/>
      <point x="646" y="1517"/>
      <point x="723" y="1449.34"/>
      <point x="723" y="1320" type="curve" smooth="yes"/>
      <point x="723" y="1314" type="line" smooth="yes"/>
      <point x="723" y="1188"/>
      <point x="644" y="1122"/>
      <point x="492" y="1122" type="curve" smooth="yes"/>
      <point x="360" y="1122" type="line"/>
      <point x="360" y="1089" type="line"/>
    </contour>
    <contour>
      <point x="1307" y="517" type="curve" smooth="yes"/>
      <point x="1561.75" y="517"/>
      <point x="1695" y="666.091"/>
      <point x="1695" y="963" type="curve" smooth="yes"/>
      <point x="1695" y="970.708" type="line"/>
      <point x="1657" y="969.337" type="line"/>
      <point x="1657" y="963" type="line" smooth="yes"/>
      <point x="1657" y="682.821"/>
      <point x="1537.02" y="552"/>
      <point x="1307" y="552" type="curve" smooth="yes"/>
      <point x="1107" y="552"/>
      <point x="996" y="651.625"/>
      <point x="996" y="818" type="curve" smooth="yes"/>
      <point x="996" y="823" type="line" smooth="yes"/>
      <point x="996" y="988.369"/>
      <point x="1104" y="1085"/>
      <point x="1301" y="1085" type="curve" smooth="yes"/>
      <point x="1466.92" y="1085"/>
      <point x="1594.06" y="1019.33"/>
      <point x="1662" y="906" type="curve"/>
      <point x="1676" y="955" type="line"/>
      <point x="1656" y="955" type="line"/>
      <point x="1594" y="1056.13"/>
      <point x="1466" y="1120"/>
      <point x="1300" y="1120" type="curve" smooth="yes"/>
      <point x="1081" y="1120"/>
      <point x="958" y="1013"/>
      <point x="958" y="823" type="curve" smooth="yes"/>
      <point x="958" y="818" type="line" smooth="yes"/>
      <point x="958" y="626"/>
      <point x="1084" y="517"/>
    </contour>
    <contour>
      <point x="1695" y="969.708" type="line"/>
      <point x="1695" y="976" type="line" smooth="yes"/>
      <point x="1695" y="1356.63"/>
      <point x="1474" y="1550"/>
      <point x="1058" y="1550" type="curve" smooth="yes"/>
      <point x="80" y="1550" type="line"/>
      <point x="80" y="1517" type="line"/>
      <point x="1058" y="1517" type="line" smooth="yes"/>
      <point x="1450" y="1517"/>
      <point x="1657" y="1337.01"/>
      <point x="1657" y="975" type="curve" smooth="yes"/>
      <point x="1657" y="968.337" type="line"/>
    </contour>
  </outline>
  <guideline angle="0" x="0" y="4833"/>
</glyph>
<glyph name="Halant.kn" format="2">
  <advance width="726"/>
  <unicode hex="0CCD"/>
  <outline>
    <contour>
      <point x="7" y="1031" type="line"/>
      <point x="7" y="1042" type="line" smooth="yes"/>
      <point x="7" y="1326.33"/>
      <point x="123" y="1469"/>
      <point x="354" y="1469" type="curve" smooth="yes"/>
      <point x="467" y="1469"/>
      <point x="555" y="1437"/>
      <point x="622" y="1385" type="curve"/>
      <point x="615" y="1430" type="line"/>
      <point x="547" y="1476"/>
      <point x="462" y="1504"/>
      <point x="353" y="1504" type="curve" smooth="yes"/>
      <point x="101" y="1504"/>
      <point x="-30" y="1347"/>
      <point x="-30" y="1042" type="curve" smooth="yes"/>
      <point x="-30" y="1031" type="line"/>
    </contour>
    <contour>
      <point x="342" y="560" type="curve" smooth="yes"/>
      <point x="544" y="560"/>
      <point x="652" y="664"/>
      <point x="652" y="847" type="curve"/>
      <point x="652" y="849" type="line"/>
      <point x="652" y="1035"/>
      <point x="544" y="1122"/>
      <point x="320" y="1122" type="curve" smooth="yes"/>
      <point x="-705" y="1122" type="line"/>
      <point x="-705" y="1089" type="line"/>
      <point x="-17" y="1089" type="line"/>
      <point x="-8" y="1089" type="line"/>
      <point x="317" y="1089" type="line" smooth="yes"/>
      <point x="522" y="1089"/>
      <point x="615" y="1014.31"/>
      <point x="615" y="849" type="curve"/>
      <point x="615" y="847" type="line"/>
      <point x="615" y="686.636"/>
      <point x="520" y="595"/>
      <point x="342" y="595" type="curve" smooth="yes"/>
      <point x="122" y="595"/>
      <point x="7" y="727.676"/>
      <point x="7" y="1004" type="curve" smooth="yes"/>
      <point x="7" y="1036" type="line"/>
      <point x="-30" y="1036" type="line"/>
      <point x="-30" y="1001" type="line" smooth="yes"/>
      <point x="-30" y="705"/>
      <point x="99" y="560"/>
    </contour>
  </outline>
</glyph>
<glyph name="Lengthmark.kn" format="2">
  <advance width="1083"/>
  <unicode hex="0CD5"/>
  <outline>
    <contour>
      <point x="190" y="653.795" type="line"/>
      <point x="190" y="659" type="line" smooth="yes"/>
      <point x="190" y="961.551"/>
      <point x="333.815" y="1122"/>
      <point x="605" y="1122" type="curve" smooth="yes"/>
      <point x="819" y="1122"/>
      <point x="935" y="1018.36"/>
      <point x="935" y="837" type="curve" smooth="yes"/>
      <point x="935" y="832" type="line" smooth="yes"/>
      <point x="935" y="653.635"/>
      <point x="816" y="551"/>
      <point x="599" y="551" type="curve" smooth="yes"/>
      <point x="409.793" y="551"/>
      <point x="264.328" y="626.373"/>
      <point x="186" y="753" type="curve"/>
      <point x="173" y="701" type="line"/>
      <point x="192" y="701" type="line"/>
      <point x="264" y="589"/>
      <point x="411" y="516"/>
      <point x="600" y="516" type="curve" smooth="yes"/>
      <point x="839" y="516"/>
      <point x="973" y="629"/>
      <point x="973" y="832" type="curve" smooth="yes"/>
      <point x="973" y="837" type="line" smooth="yes"/>
      <point x="973" y="1041"/>
      <point x="839" y="1157"/>
      <point x="605" y="1157" type="curve" smooth="yes"/>
      <point x="307" y="1157"/>
      <point x="152" y="980"/>
      <point x="152" y="659" type="curve" smooth="yes"/>
      <point x="152" y="653.966" type="line"/>
    </contour>
    <contour>
      <point x="152" y="654.966" type="line"/>
      <point x="152" y="649" type="line" smooth="yes"/>
      <point x="152" y="211"/>
      <point x="400" y="-5"/>
      <point x="855" y="-5" type="curve" smooth="yes"/>
      <point x="920" y="-5" type="line"/>
      <point x="933" y="30" type="line"/>
      <point x="855" y="30" type="line" smooth="yes"/>
      <point x="421" y="30"/>
      <point x="190" y="230.676"/>
      <point x="190" y="650" type="curve" smooth="yes"/>
      <point x="190" y="654.795" type="line"/>
    </contour>
  </outline>
</glyph>
<glyph name="matraAiLengthmark.kn" format="2">
  <advance width="80"/>
  <unicode hex="0CD6"/>
  <outline>
    <contour>
      <point x="-670" y="-462" type="line"/>
      <point x="-705" y="-463" type="line"/>
      <point x="-705" y="-465" type="line"/>
      <point x="-705" y="-657.715"/>
      <point x="-558" y="-765"/>
      <point x="-299" y="-765" type="curve" smooth="yes"/>
      <point x="-14" y="-765"/>
      <point x="122" y="-644"/>
      <point x="122" y="-442" type="curve" smooth="yes"/>
      <point x="122" y="-438" type="line" smooth="yes"/>
      <point x="122" y="-295"/>
      <point x="55" y="-198"/>
      <point x="-70" y="-172" type="curve"/>
      <point x="-213" y="-157" type="line"/>
      <point x="-213" y="-184" type="line"/>
      <point x="-156" y="-185" type="line" smooth="yes"/>
      <point x="-1" y="-188"/>
      <point x="86" y="-275"/>
      <point x="86" y="-438" type="curve" smooth="yes"/>
      <point x="86" y="-442" type="line" smooth="yes"/>
      <point x="86" y="-623"/>
      <point x="-33" y="-732"/>
      <point x="-298" y="-732" type="curve" smooth="yes"/>
      <point x="-539" y="-732"/>
      <point x="-670" y="-639"/>
      <point x="-670" y="-466" type="curve" smooth="yes"/>
    </contour>
    <contour>
      <point x="-70" y="-171" type="line"/>
      <point x="44" y="-158"/>
      <point x="103" y="-98"/>
      <point x="103" y="3" type="curve" smooth="yes"/>
      <point x="103" y="71"/>
      <point x="77" y="131"/>
      <point x="41" y="172" type="curve"/>
      <point x="4" y="172" type="line"/>
      <point x="41" y="126"/>
      <point x="67" y="71"/>
      <point x="67" y="4" type="curve" smooth="yes"/>
      <point x="67" y="-96"/>
      <point x="-4" y="-151"/>
      <point x="-129" y="-152" type="curve" smooth="yes"/>
      <point x="-213" y="-153" type="line"/>
      <point x="-213" y="-180" type="line"/>
      <point x="-70" y="-179" type="line"/>
    </contour>
    <contour>
      <point x="-457" y="-226" type="curve" smooth="yes"/>
      <point x="-612.477" y="-226"/>
      <point x="-705" y="-314.275"/>
      <point x="-705" y="-462" type="curve"/>
      <point x="-705" y="-464" type="line"/>
      <point x="-670" y="-464.169" type="line"/>
      <point x="-670" y="-461" type="line" smooth="yes"/>
      <point x="-670" y="-334.668"/>
      <point x="-590.211" y="-259"/>
      <point x="-457" y="-259" type="curve" smooth="yes"/>
      <point x="-344.709" y="-259"/>
      <point x="-283" y="-309.979"/>
      <point x="-283" y="-394" type="curve"/>
      <point x="-283" y="-396" type="line"/>
      <point x="-283" y="-484.163"/>
      <point x="-344.914" y="-531"/>
      <point x="-454" y="-531" type="curve" smooth="yes"/>
      <point x="-555.263" y="-531"/>
      <point x="-632.184" y="-489"/>
      <point x="-676" y="-425" type="curve"/>
      <point x="-688" y="-469" type="line"/>
      <point x="-669" y="-469" type="line"/>
      <point x="-626.375" y="-526"/>
      <point x="-550.812" y="-564"/>
      <point x="-452" y="-564" type="curve" smooth="yes"/>
      <point x="-320.928" y="-564"/>
      <point x="-248" y="-506.133"/>
      <point x="-248" y="-396" type="curve"/>
      <point x="-248" y="-394" type="line"/>
      <point x="-248" y="-289"/>
      <point x="-323.725" y="-226"/>
    </contour>
  </outline>
</glyph>
<glyph name="LllaObsolete.kn" format="2">
  <advance width="2230"/>
  <unicode hex="0CDE"/>
  <outline>
    <contour>
      <point x="166" y="577.9" type="line"/>
      <point x="166" y="570" type="line" smooth="yes"/>
      <point x="166" y="171"/>
      <point x="339" y="-30"/>
      <point x="682" y="-30" type="curve" smooth="yes"/>
      <point x="963.225" y="-30"/>
      <point x="1095.54" y="108.269"/>
      <point x="1114.15" y="323" type="curve"/>
      <point x="1115.85" y="323" type="line"/>
      <point x="1134.46" y="108.269"/>
      <point x="1266.77" y="-30"/>
      <point x="1548" y="-30" type="curve" smooth="yes"/>
      <point x="1891" y="-30"/>
      <point x="2064" y="171"/>
      <point x="2064" y="570" type="curve" smooth="yes"/>
      <point x="2064" y="577.9" type="line"/>
      <point x="2026" y="579" type="line"/>
      <point x="2026" y="570" type="line" smooth="yes"/>
      <point x="2026" y="199.65"/>
      <point x="1860" y="5"/>
      <point x="1547" y="5" type="curve" smooth="yes"/>
      <point x="1273" y="5"/>
      <point x="1143.75" y="139.65"/>
      <point x="1135" y="419" type="curve" smooth="yes"/>
      <point x="1134" y="451" type="line"/>
      <point x="1096" y="451" type="line"/>
      <point x="1095" y="419" type="line" smooth="yes"/>
      <point x="1086.25" y="139.65"/>
      <point x="957" y="5"/>
      <point x="683" y="5" type="curve" smooth="yes"/>
      <point x="370" y="5"/>
      <point x="204" y="199.65"/>
      <point x="204" y="570" type="curve" smooth="yes"/>
      <point x="204" y="579" type="line"/>
    </contour>
    <contour>
      <point x="622" y="1157" type="curve" smooth="yes"/>
      <point x="319" y="1157"/>
      <point x="166" y="946"/>
      <point x="166" y="589" type="curve" smooth="yes"/>
      <point x="166" y="576.915" type="line"/>
      <point x="204" y="577.99" type="line"/>
      <point x="204" y="589" type="line" smooth="yes"/>
      <point x="204" y="931.358"/>
      <point x="350.635" y="1122"/>
      <point x="622" y="1122" type="curve" smooth="yes"/>
      <point x="834" y="1122"/>
      <point x="949" y="1020.36"/>
      <point x="949" y="842" type="curve" smooth="yes"/>
      <point x="949" y="837" type="line" smooth="yes"/>
      <point x="949" y="661.635"/>
      <point x="830" y="561"/>
      <point x="613" y="561" type="curve" smooth="yes"/>
      <point x="424.692" y="561"/>
      <point x="282.955" y="635"/>
      <point x="205" y="745" type="curve"/>
      <point x="190" y="697" type="line"/>
      <point x="210" y="697" type="line"/>
      <point x="282" y="598"/>
      <point x="425" y="526"/>
      <point x="614" y="526" type="curve" smooth="yes"/>
      <point x="853" y="526"/>
      <point x="987" y="637"/>
      <point x="987" y="837" type="curve" smooth="yes"/>
      <point x="987" y="842" type="line" smooth="yes"/>
      <point x="987" y="1043"/>
      <point x="854" y="1157"/>
    </contour>
    <contour>
      <point x="1608" y="1157" type="curve" smooth="yes"/>
      <point x="1376" y="1157"/>
      <point x="1243" y="1043"/>
      <point x="1243" y="842" type="curve" smooth="yes"/>
      <point x="1243" y="837" type="line" smooth="yes"/>
      <point x="1243" y="637"/>
      <point x="1377" y="526"/>
      <point x="1616" y="526" type="curve" smooth="yes"/>
      <point x="1805" y="526"/>
      <point x="1948" y="598"/>
      <point x="2020" y="697" type="curve"/>
      <point x="2040" y="697" type="line"/>
      <point x="2025" y="745" type="line"/>
      <point x="1947.04" y="635"/>
      <point x="1805.31" y="561"/>
      <point x="1617" y="561" type="curve" smooth="yes"/>
      <point x="1400" y="561"/>
      <point x="1281" y="661.635"/>
      <point x="1281" y="837" type="curve" smooth="yes"/>
      <point x="1281" y="842" type="line" smooth="yes"/>
      <point x="1281" y="1020.36"/>
      <point x="1396" y="1122"/>
      <point x="1608" y="1122" type="curve" smooth="yes"/>
      <point x="1879.37" y="1122"/>
      <point x="2026" y="931.358"/>
      <point x="2026" y="589" type="curve" smooth="yes"/>
      <point x="2026" y="577.99" type="line"/>
      <point x="2064" y="576.915" type="line"/>
      <point x="2064" y="589" type="line" smooth="yes"/>
      <point x="2064" y="946"/>
      <point x="1911" y="1157"/>
    </contour>
  </outline>
</glyph>
<glyph name="matraLru.kn" format="2">
  <unicode hex="0CE2"/>
  <outline>
    <contour>
      <point x="-423" y="-121" type="line"/>
      <point x="-423" y="-300" type="line" smooth="yes"/>
      <point x="-423" y="-353"/>
      <point x="-422" y="-381"/>
      <point x="-420" y="-434" type="curve"/>
      <point x="-421" y="-434" type="line"/>
      <point x="-447" y="-357"/>
      <point x="-523" y="-310"/>
      <point x="-631" y="-310" type="curve" smooth="yes"/>
      <point x="-787" y="-310"/>
      <point x="-873" y="-391"/>
      <point x="-873" y="-534" type="curve" smooth="yes"/>
      <point x="-873" y="-537" type="line" smooth="yes"/>
      <point x="-873" y="-608"/>
      <point x="-848" y="-666"/>
      <point x="-811" y="-708" type="curve"/>
      <point x="-771" y="-708" type="line"/>
      <point x="-813" y="-659"/>
      <point x="-838" y="-606"/>
      <point x="-838" y="-537" type="curve" smooth="yes"/>
      <point x="-838" y="-534" type="line" smooth="yes"/>
      <point x="-838" y="-409"/>
      <point x="-767" y="-343"/>
      <point x="-631" y="-343" type="curve" smooth="yes"/>
      <point x="-496" y="-343"/>
      <point x="-424" y="-414"/>
      <point x="-423" y="-548" type="curve" smooth="yes"/>
      <point x="-422" y="-703" type="line"/>
      <point x="-390" y="-703" type="line"/>
      <point x="-389" y="-548" type="line" smooth="yes"/>
      <point x="-388" y="-414"/>
      <point x="-316" y="-343"/>
      <point x="-181" y="-343" type="curve" smooth="yes"/>
      <point x="-45" y="-343"/>
      <point x="26" y="-409"/>
      <point x="26" y="-534" type="curve"/>
      <point x="26" y="-535" type="line"/>
      <point x="26" y="-605"/>
      <point x="2" y="-658"/>
      <point x="-41" y="-708" type="curve"/>
      <point x="-1" y="-708" type="line"/>
      <point x="36" y="-665"/>
      <point x="61" y="-606"/>
      <point x="61" y="-535" type="curve"/>
      <point x="61" y="-534" type="line"/>
      <point x="61" y="-391"/>
      <point x="-25" y="-310"/>
      <point x="-181" y="-310" type="curve" smooth="yes"/>
      <point x="-289" y="-310"/>
      <point x="-365" y="-357"/>
      <point x="-391" y="-434" type="curve"/>
      <point x="-392" y="-434" type="line"/>
      <point x="-390" y="-381"/>
      <point x="-389" y="-353"/>
      <point x="-389" y="-300" type="curve" smooth="yes"/>
      <point x="-389" y="-121" type="line"/>
    </contour>
  </outline>
</glyph>
<glyph name="matraLruu.kn" format="2">
  <unicode hex="0CE3"/>
  <outline>
    <contour>
      <point x="-606" y="-624" type="curve" smooth="yes"/>
      <point x="-742" y="-624"/>
      <point x="-819" y="-679"/>
      <point x="-819" y="-777" type="curve" smooth="yes"/>
      <point x="-819" y="-780" type="line" smooth="yes"/>
      <point x="-819" y="-880"/>
      <point x="-742" y="-933"/>
      <point x="-606" y="-933" type="curve" smooth="yes"/>
      <point x="-517" y="-933"/>
      <point x="-447" y="-892"/>
      <point x="-423" y="-848" type="curve"/>
      <point x="-393" y="-848" type="line"/>
      <point x="-414" y="-796" type="line"/>
      <point x="-439" y="-863"/>
      <point x="-525" y="-901"/>
      <point x="-604" y="-901" type="curve" smooth="yes"/>
      <point x="-719" y="-901"/>
      <point x="-784" y="-858"/>
      <point x="-784" y="-780" type="curve" smooth="yes"/>
      <point x="-784" y="-777" type="line" smooth="yes"/>
      <point x="-784" y="-697"/>
      <point x="-718" y="-656"/>
      <point x="-604" y="-656" type="curve" smooth="yes"/>
      <point x="-491" y="-656"/>
      <point x="-421" y="-704"/>
      <point x="-421" y="-785" type="curve"/>
      <point x="-401" y="-710" type="line"/>
      <point x="-423" y="-710" type="line"/>
      <point x="-442" y="-656"/>
      <point x="-508" y="-624"/>
    </contour>
    <contour>
      <point x="-423" y="-121" type="line"/>
      <point x="-423" y="-280" type="line" smooth="yes"/>
      <point x="-423" y="-330"/>
      <point x="-422" y="-356"/>
      <point x="-420" y="-406" type="curve"/>
      <point x="-421" y="-406" type="line"/>
      <point x="-447" y="-334"/>
      <point x="-523" y="-290"/>
      <point x="-631" y="-290" type="curve" smooth="yes"/>
      <point x="-787" y="-290"/>
      <point x="-873" y="-364"/>
      <point x="-873" y="-494" type="curve" smooth="yes"/>
      <point x="-873" y="-497" type="line" smooth="yes"/>
      <point x="-873" y="-535"/>
      <point x="-866" y="-569"/>
      <point x="-853" y="-600" type="curve"/>
      <point x="-816" y="-600" type="line"/>
      <point x="-830" y="-569"/>
      <point x="-838" y="-535"/>
      <point x="-838" y="-497" type="curve" smooth="yes"/>
      <point x="-838" y="-494" type="line" smooth="yes"/>
      <point x="-838" y="-382"/>
      <point x="-767" y="-323"/>
      <point x="-631" y="-323" type="curve" smooth="yes"/>
      <point x="-496" y="-323"/>
      <point x="-424" y="-391"/>
      <point x="-423" y="-518" type="curve" smooth="yes"/>
      <point x="-421" y="-991" type="line"/>
      <point x="-391" y="-991" type="line"/>
      <point x="-389" y="-518" type="line" smooth="yes"/>
      <point x="-388" y="-391"/>
      <point x="-316" y="-323"/>
      <point x="-181" y="-323" type="curve" smooth="yes"/>
      <point x="-45" y="-323"/>
      <point x="26" y="-382"/>
      <point x="26" y="-494" type="curve" smooth="yes"/>
      <point x="26" y="-497" type="line" smooth="yes"/>
      <point x="26" y="-535"/>
      <point x="18" y="-569"/>
      <point x="4" y="-600" type="curve"/>
      <point x="41" y="-600" type="line"/>
      <point x="54" y="-569"/>
      <point x="61" y="-535"/>
      <point x="61" y="-497" type="curve" smooth="yes"/>
      <point x="61" y="-494" type="line" smooth="yes"/>
      <point x="61" y="-364"/>
      <point x="-25" y="-290"/>
      <point x="-181" y="-290" type="curve" smooth="yes"/>
      <point x="-289" y="-290"/>
      <point x="-365" y="-334"/>
      <point x="-391" y="-406" type="curve"/>
      <point x="-392" y="-406" type="line"/>
      <point x="-390" y="-356"/>
      <point x="-389" y="-330"/>
      <point x="-389" y="-280" type="curve" smooth="yes"/>
      <point x="-389" y="-121" type="line"/>
    </contour>
  </outline>
</glyph>
<glyph name="Shunya.kn" format="2">
  <advance width="1643"/>
  <unicode hex="0CE6"/>
  <outline>
    <contour>
      <point x="204" y="563" type="line"/>
      <point x="204" y="565" type="line"/>
      <point x="204" y="931.342"/>
      <point x="412" y="1122"/>
      <point x="820" y="1122" type="curve" smooth="yes"/>
      <point x="1229" y="1122"/>
      <point x="1439" y="931.342"/>
      <point x="1439" y="565" type="curve"/>
      <point x="1439" y="563" type="line"/>
      <point x="1477" y="563" type="line"/>
      <point x="1477" y="565" type="line"/>
      <point x="1477" y="954"/>
      <point x="1254" y="1157"/>
      <point x="820" y="1157" type="curve" smooth="yes"/>
      <point x="387" y="1157"/>
      <point x="166" y="954"/>
      <point x="166" y="565" type="curve"/>
      <point x="166" y="563" type="line"/>
    </contour>
    <contour>
      <point x="204" y="564" type="line"/>
      <point x="166" y="564" type="line"/>
      <point x="166" y="562" type="line"/>
      <point x="166" y="173"/>
      <point x="389" y="-30"/>
      <point x="823" y="-30" type="curve" smooth="yes"/>
      <point x="1256" y="-30"/>
      <point x="1477" y="173"/>
      <point x="1477" y="562" type="curve"/>
      <point x="1477" y="564" type="line"/>
      <point x="1439" y="564" type="line"/>
      <point x="1439" y="562" type="line"/>
      <point x="1439" y="195.658"/>
      <point x="1231" y="5"/>
      <point x="823" y="5" type="curve" smooth="yes"/>
      <point x="414" y="5"/>
      <point x="204" y="195.658"/>
      <point x="204" y="562" type="curve"/>
    </contour>
  </outline>
</glyph>
<glyph name="Ondu.kn" format="2">
  <advance width="1647"/>
  <unicode hex="0CE7"/>
  <outline>
    <contour>
      <point x="822" y="1157" type="curve" smooth="yes"/>
      <point x="389" y="1157"/>
      <point x="168" y="951"/>
      <point x="168" y="555" type="curve" smooth="yes"/>
      <point x="168" y="552" type="line" smooth="yes"/>
      <point x="168" y="326"/>
      <point x="245" y="148"/>
      <point x="389" y="0" type="curve"/>
      <point x="435" y="0" type="line"/>
      <point x="284" y="153"/>
      <point x="206" y="327"/>
      <point x="206" y="552" type="curve" smooth="yes"/>
      <point x="206" y="555" type="line" smooth="yes"/>
      <point x="206" y="928.342"/>
      <point x="414" y="1122"/>
      <point x="822" y="1122" type="curve" smooth="yes"/>
      <point x="1231" y="1122"/>
      <point x="1441" y="928.342"/>
      <point x="1441" y="555" type="curve" smooth="yes"/>
      <point x="1441" y="552" type="line" smooth="yes"/>
      <point x="1441" y="327"/>
      <point x="1363" y="153"/>
      <point x="1212" y="0" type="curve"/>
      <point x="1258" y="0" type="line"/>
      <point x="1402" y="148"/>
      <point x="1479" y="326"/>
      <point x="1479" y="552" type="curve" smooth="yes"/>
      <point x="1479" y="555" type="line" smooth="yes"/>
      <point x="1479" y="951"/>
      <point x="1256" y="1157"/>
    </contour>
  </outline>
</glyph>
<glyph name="Eradu.kn" format="2">
  <advance width="1787"/>
  <unicode hex="0CE8"/>
  <outline>
    <contour>
      <point x="437" y="683.342" type="line"/>
      <point x="437" y="679" type="line" smooth="yes"/>
      <point x="437" y="434"/>
      <point x="587" y="301"/>
      <point x="851" y="301" type="curve" smooth="yes"/>
      <point x="1075" y="301"/>
      <point x="1201" y="411"/>
      <point x="1201" y="606" type="curve" smooth="yes"/>
      <point x="1201" y="611" type="line" smooth="yes"/>
      <point x="1201" y="805"/>
      <point x="1078" y="912"/>
      <point x="856" y="912" type="curve" smooth="yes"/>
      <point x="680" y="912"/>
      <point x="544" y="837"/>
      <point x="477" y="720" type="curve"/>
      <point x="455" y="720" type="line"/>
      <point x="469" y="665" type="line"/>
      <point x="542.137" y="797"/>
      <point x="679.268" y="877"/>
      <point x="855" y="877" type="curve" smooth="yes"/>
      <point x="1054" y="877"/>
      <point x="1163" y="780.363"/>
      <point x="1163" y="611" type="curve" smooth="yes"/>
      <point x="1163" y="606" type="line" smooth="yes"/>
      <point x="1163" y="433.638"/>
      <point x="1054" y="336"/>
      <point x="851" y="336" type="curve" smooth="yes"/>
      <point x="610" y="336"/>
      <point x="475" y="456.648"/>
      <point x="475" y="679" type="curve" smooth="yes"/>
      <point x="475" y="685.657" type="line"/>
    </contour>
    <contour>
      <point x="475" y="684.843" type="line"/>
      <point x="475" y="690" type="line" smooth="yes"/>
      <point x="475" y="965.361"/>
      <point x="671.365" y="1121"/>
      <point x="1016" y="1121" type="curve" smooth="yes"/>
      <point x="1393" y="1121"/>
      <point x="1597" y="936.35"/>
      <point x="1597" y="594" type="curve" smooth="yes"/>
      <point x="1597" y="578" type="line" smooth="yes"/>
      <point x="1597" y="228.641"/>
      <point x="1386" y="33"/>
      <point x="982" y="33" type="curve" smooth="yes"/>
      <point x="15" y="33" type="line"/>
      <point x="22" y="0" type="line"/>
      <point x="981" y="0" type="line" smooth="yes"/>
      <point x="1409" y="0"/>
      <point x="1635" y="208"/>
      <point x="1635" y="578" type="curve" smooth="yes"/>
      <point x="1635" y="594" type="line" smooth="yes"/>
      <point x="1635" y="959"/>
      <point x="1417" y="1156"/>
      <point x="1016" y="1156" type="curve" smooth="yes"/>
      <point x="643" y="1156"/>
      <point x="437" y="989"/>
      <point x="437" y="686" type="curve" smooth="yes"/>
      <point x="437" y="682.895" type="line"/>
    </contour>
  </outline>
</glyph>
<glyph name="Aidu.kn" format="2">
  <advance width="2117"/>
  <unicode hex="0CEB"/>
  <outline>
    <contour>
      <point x="582" y="1157" type="curve" smooth="yes"/>
      <point x="318.862" y="1157"/>
      <point x="178" y="1035"/>
      <point x="178" y="809" type="curve"/>
      <point x="178" y="808" type="line"/>
      <point x="178" y="756"/>
      <point x="190" y="699"/>
      <point x="214" y="659" type="curve"/>
      <point x="254" y="659" type="line"/>
      <point x="228" y="704"/>
      <point x="216" y="757"/>
      <point x="216" y="808" type="curve"/>
      <point x="216" y="809" type="line"/>
      <point x="216" y="1011.35"/>
      <point x="345.808" y="1122"/>
      <point x="582" y="1122" type="curve" smooth="yes"/>
      <point x="875.693" y="1122"/>
      <point x="1026" y="932.342"/>
      <point x="1026" y="567" type="curve"/>
      <point x="1026" y="565" type="line"/>
      <point x="1026" y="562" type="line"/>
      <point x="1026" y="559" type="line" smooth="yes"/>
      <point x="1026" y="187.67"/>
      <point x="857.756" y="5"/>
      <point x="547" y="5" type="curve" smooth="yes"/>
      <point x="317.843" y="5"/>
      <point x="194" y="98.6544"/>
      <point x="194" y="276" type="curve" smooth="yes"/>
      <point x="194" y="280" type="line" smooth="yes"/>
      <point x="194" y="446"/>
      <point x="305.956" y="538"/>
      <point x="525" y="538" type="curve" smooth="yes"/>
      <point x="1039" y="538" type="line"/>
      <point x="1051" y="538" type="line"/>
      <point x="1566" y="538" type="line" smooth="yes"/>
      <point x="1580" y="538"/>
      <point x="1593" y="538"/>
      <point x="1606" y="539" type="curve"/>
      <point x="1623" y="542" type="line"/>
      <point x="1849" y="556"/>
      <point x="1972" y="666"/>
      <point x="1972" y="850" type="curve" smooth="yes"/>
      <point x="1972" y="856" type="line" smooth="yes"/>
      <point x="1972" y="1049"/>
      <point x="1835" y="1157"/>
      <point x="1596" y="1157" type="curve" smooth="yes"/>
      <point x="1350" y="1157"/>
      <point x="1221" y="1059"/>
      <point x="1221" y="870" type="curve" smooth="yes"/>
      <point x="1221" y="864" type="line" smooth="yes"/>
      <point x="1221" y="678"/>
      <point x="1363" y="602"/>
      <point x="1520" y="555" type="curve"/>
      <point x="1551" y="545" type="line"/>
      <point x="1768" y="483"/>
      <point x="1921" y="427"/>
      <point x="1921" y="239" type="curve" smooth="yes"/>
      <point x="1921" y="234" type="line" smooth="yes"/>
      <point x="1921" y="87.6391"/>
      <point x="1809" y="5"/>
      <point x="1600" y="5" type="curve" smooth="yes"/>
      <point x="1449" y="5"/>
      <point x="1328" y="39"/>
      <point x="1217" y="106" type="curve"/>
      <point x="1223" y="64" type="line"/>
      <point x="1333" y="2"/>
      <point x="1453" y="-30"/>
      <point x="1601" y="-30" type="curve" smooth="yes"/>
      <point x="1835" y="-30"/>
      <point x="1959" y="66"/>
      <point x="1959" y="234" type="curve" smooth="yes"/>
      <point x="1959" y="239" type="line" smooth="yes"/>
      <point x="1959" y="430"/>
      <point x="1822" y="499"/>
      <point x="1612" y="557" type="curve"/>
      <point x="1583" y="566" type="line" smooth="yes"/>
      <point x="1416" y="615"/>
      <point x="1259" y="682"/>
      <point x="1259" y="863" type="curve" smooth="yes"/>
      <point x="1259" y="869" type="line" smooth="yes"/>
      <point x="1259" y="1034.35"/>
      <point x="1373" y="1122"/>
      <point x="1596" y="1122" type="curve" smooth="yes"/>
      <point x="1814" y="1122"/>
      <point x="1934" y="1029.35"/>
      <point x="1934" y="855" type="curve" smooth="yes"/>
      <point x="1934" y="849" type="line" smooth="yes"/>
      <point x="1934" y="667.652"/>
      <point x="1803" y="571"/>
      <point x="1555" y="571" type="curve" smooth="yes"/>
      <point x="1048" y="571" type="line"/>
      <point x="1039" y="571" type="line"/>
      <point x="524" y="571" type="line" smooth="yes"/>
      <point x="282.897" y="571"/>
      <point x="156" y="471.659"/>
      <point x="156" y="280" type="curve" smooth="yes"/>
      <point x="156" y="275" type="line" smooth="yes"/>
      <point x="156" y="75"/>
      <point x="291.857" y="-30"/>
      <point x="545" y="-30" type="curve" smooth="yes"/>
      <point x="887.698" y="-30"/>
      <point x="1064" y="172"/>
      <point x="1064" y="565" type="curve"/>
      <point x="1064" y="567" type="line"/>
      <point x="1064" y="958"/>
      <point x="900.694" y="1157"/>
    </contour>
  </outline>
</glyph>
<glyph name="Aaru.kn" format="2">
  <advance width="1487"/>
  <unicode hex="0CEC"/>
  <outline>
    <contour>
      <point x="198" y="300" type="curve" smooth="yes"/>
      <point x="198" y="305" type="line" smooth="yes"/>
      <point x="198" y="493.318"/>
      <point x="331.999" y="580.396"/>
      <point x="575" y="581" type="curve" smooth="yes"/>
      <point x="977" y="582" type="line"/>
      <point x="977" y="614" type="line"/>
      <point x="575" y="615" type="line" smooth="yes"/>
      <point x="334.999" y="615.597"/>
      <point x="203" y="692.685"/>
      <point x="203" y="862" type="curve" smooth="yes"/>
      <point x="203" y="867" type="line" smooth="yes"/>
      <point x="203" y="1019.4"/>
      <point x="332" y="1121"/>
      <point x="579" y="1121" type="curve" smooth="yes"/>
      <point x="729" y="1121"/>
      <point x="848" y="1091"/>
      <point x="931" y="1042" type="curve"/>
      <point x="927" y="1084" type="line"/>
      <point x="843" y="1129"/>
      <point x="725" y="1156"/>
      <point x="578" y="1156" type="curve" smooth="yes"/>
      <point x="306" y="1156"/>
      <point x="165" y="1041"/>
      <point x="165" y="867" type="curve" smooth="yes"/>
      <point x="165" y="862" type="line" smooth="yes"/>
      <point x="165" y="700"/>
      <point x="275" y="612"/>
      <point x="463" y="599" type="curve"/>
      <point x="463" y="598" type="line"/>
      <point x="272" y="586"/>
      <point x="160" y="482"/>
      <point x="160" y="305" type="curve" smooth="yes"/>
      <point x="160" y="300" type="line" smooth="yes"/>
      <point x="160" y="107"/>
      <point x="302" y="0"/>
      <point x="581" y="0" type="curve" smooth="yes"/>
      <point x="1460" y="0" type="line"/>
      <point x="1467" y="33" type="line"/>
      <point x="582" y="33" type="line" smooth="yes"/>
      <point x="328" y="33"/>
      <point x="198" y="127.646"/>
    </contour>
  </outline>
</glyph>
<glyph name="Ombattu.kn" format="2">
  <advance width="1450"/>
  <unicode hex="0CEF"/>
  <outline>
    <contour>
      <point x="188" y="835" type="line" smooth="yes"/>
      <point x="188" y="1000.35"/>
      <point x="308" y="1091"/>
      <point x="542" y="1091" type="curve" smooth="yes"/>
      <point x="1450" y="1091" type="line"/>
      <point x="1450" y="1124" type="line"/>
      <point x="541" y="1124" type="line" smooth="yes"/>
      <point x="282" y="1124"/>
      <point x="150" y="1021"/>
      <point x="150" y="835" type="curve" smooth="yes"/>
      <point x="150" y="830" type="line" smooth="yes"/>
      <point x="150" y="660.242"/>
      <point x="254.968" y="562.544"/>
      <point x="433" y="550.297" type="curve"/>
      <point x="433" y="549.299" type="line"/>
      <point x="257.991" y="535.667"/>
      <point x="155" y="449.406"/>
      <point x="155" y="293" type="curve" smooth="yes"/>
      <point x="155" y="288" type="line" smooth="yes"/>
      <point x="155" y="113"/>
      <point x="277" y="0"/>
      <point x="528" y="0" type="curve" smooth="yes"/>
      <point x="870" y="0" type="line"/>
      <point x="877" y="33" type="line"/>
      <point x="529" y="33" type="line" smooth="yes"/>
      <point x="303" y="33"/>
      <point x="193" y="133.6"/>
      <point x="193" y="288" type="curve" smooth="yes"/>
      <point x="193" y="293" type="line" smooth="yes"/>
      <point x="193" y="456.3"/>
      <point x="318" y="532.45"/>
      <point x="545" y="533" type="curve" smooth="yes"/>
      <point x="977" y="534" type="line"/>
      <point x="977" y="566" type="line"/>
      <point x="545" y="567" type="line" smooth="yes"/>
      <point x="315" y="567.55"/>
      <point x="188" y="650.7"/>
      <point x="188" y="830" type="curve" smooth="yes"/>
    </contour>
  </outline>
</glyph>
<glyph name="Jihvamuliya.kn" format="2">
  <advance width="1446"/>
  <unicode hex="0CF1"/>
  <outline>
    <contour>
      <point x="134" y="1122" type="line"/>
      <point x="134" y="1090" type="line"/>
      <point x="696" y="569" type="line"/>
      <point x="132" y="32" type="line"/>
      <point x="132" y="0" type="line"/>
      <point x="1309" y="0" type="line"/>
      <point x="1309" y="32" type="line"/>
      <point x="746" y="569" type="line"/>
      <point x="1307" y="1090" type="line"/>
      <point x="1307" y="1122" type="line"/>
    </contour>
    <contour>
      <point x="185" y="1089" type="line"/>
      <point x="1256" y="1089" type="line"/>
      <point x="721" y="592" type="line"/>
    </contour>
    <contour>
      <point x="183" y="33" type="line"/>
      <point x="721" y="546" type="line"/>
      <point x="1258" y="33" type="line"/>
    </contour>
  </outline>
</glyph>
<glyph name="sevensuperior" format="2">
  <advance width="814"/>
  <unicode hex="2077"/>
  <outline>
    <contour>
      <point x="284" y="750" type="line"/>
      <point x="761" y="1388" type="line"/>
      <point x="761" y="1422" type="line"/>
      <point x="58" y="1422" type="line"/>
      <point x="58" y="1389" type="line"/>
      <point x="718" y="1389" type="line"/>
      <point x="238" y="750" type="line"/>
    </contour>
  </outline>
</glyph>
<glyph name="rupeeIndian" format="2">
  <advance width="1417"/>
  <unicode hex="20B9"/>
  <outline>
    <contour>
      <point x="1327" y="1246" type="line"/>
      <point x="137" y="1246" type="line"/>
      <point x="130" y="1278" type="line"/>
      <point x="1320" y="1278" type="line"/>
    </contour>
    <contour>
      <point x="1009" y="0" type="line"/>
      <point x="956" y="0" type="line"/>
      <point x="288" y="500" type="line"/>
      <point x="150" y="505" type="line"/>
      <point x="150" y="536" type="line"/>
      <point x="323" y="532" type="line"/>
      <point x="301" y="524" type="line"/>
      <point x="381" y="473"/>
      <point x="466" y="416"/>
      <point x="542" y="358" type="curve" smooth="yes"/>
      <point x="1009" y="4" type="line"/>
    </contour>
    <contour>
      <point x="835" y="1260" type="line"/>
      <point x="938" y="1182"/>
      <point x="1011" y="1058"/>
      <point x="1011" y="908" type="curve" smooth="yes"/>
      <point x="1011" y="903" type="line" smooth="yes"/>
      <point x="1011" y="631"/>
      <point x="822" y="504"/>
      <point x="446" y="504" type="curve" smooth="yes"/>
      <point x="259" y="504" type="line"/>
      <point x="150" y="536" type="line"/>
      <point x="448" y="536" type="line" smooth="yes"/>
      <point x="799" y="536"/>
      <point x="975" y="653"/>
      <point x="975" y="905" type="curve" smooth="yes"/>
      <point x="975" y="910" type="line" smooth="yes"/>
      <point x="975" y="1058"/>
      <point x="904" y="1173"/>
      <point x="783" y="1260" type="curve"/>
    </contour>
    <contour>
      <point x="1327" y="875" type="line"/>
      <point x="137" y="875" type="line"/>
      <point x="130" y="907" type="line"/>
      <point x="1320" y="907" type="line"/>
    </contour>
  </outline>
</glyph>
<glyph name="BamatraAu.kn" format="2">
  <advance width="2934"/>
  <outline>
    <component base="matraAu.kn" xOffset="1174"/>
    <contour>
      <point x="614" y="1157" type="curve" smooth="yes"/>
      <point x="337" y="1157"/>
      <point x="188" y="1042"/>
      <point x="188" y="822" type="curve" smooth="yes"/>
      <point x="188" y="819" type="line" smooth="yes"/>
      <point x="188" y="754"/>
      <point x="202" y="694"/>
      <point x="230" y="639" type="curve"/>
      <point x="271" y="639" type="line"/>
      <point x="241" y="696"/>
      <point x="226" y="757"/>
      <point x="226" y="819" type="curve" smooth="yes"/>
      <point x="226" y="822" type="line" smooth="yes"/>
      <point x="226" y="1019.34"/>
      <point x="360" y="1122"/>
      <point x="613" y="1122" type="curve" smooth="yes"/>
      <point x="853" y="1122"/>
      <point x="983" y="1037.34"/>
      <point x="983" y="875" type="curve" smooth="yes"/>
      <point x="983" y="869" type="line" smooth="yes"/>
      <point x="983" y="740.5"/>
      <point x="902.878" y="675.198"/>
      <point x="674" y="612" type="curve" smooth="yes"/>
      <point x="540" y="575" type="line" smooth="yes"/>
      <point x="256.973" y="496.851"/>
      <point x="155" y="422.519"/>
      <point x="155" y="258" type="curve" smooth="yes"/>
      <point x="155" y="251" type="line" smooth="yes"/>
      <point x="155" y="74"/>
      <point x="302" y="-30"/>
      <point x="582" y="-30" type="curve" smooth="yes"/>
      <point x="881" y="-30"/>
      <point x="1022" y="108"/>
      <point x="1042" y="323" type="curve"/>
      <point x="1044" y="323" type="line"/>
      <point x="1062" y="108"/>
      <point x="1190" y="-30"/>
      <point x="1455" y="-30" type="curve" smooth="yes"/>
      <point x="1750" y="-30"/>
      <point x="1895" y="171"/>
      <point x="1895" y="514" type="curve" smooth="yes"/>
      <point x="1895" y="524" type="line" smooth="yes"/>
      <point x="1895" y="864.387"/>
      <point x="1730.14" y="1043.08"/>
      <point x="1497" y="1086" type="curve"/>
      <point x="1497" y="1108" type="line"/>
      <point x="1253" y="1108" type="line"/>
      <point x="1253" y="1089" type="line"/>
      <point x="1654" y="1089"/>
      <point x="1857" y="903.329"/>
      <point x="1857" y="524" type="curve" smooth="yes"/>
      <point x="1857" y="514" type="line" smooth="yes"/>
      <point x="1857" y="193.629"/>
      <point x="1723" y="5"/>
      <point x="1454" y="5" type="curve" smooth="yes"/>
      <point x="1197" y="5"/>
      <point x="1071.73" y="139.666"/>
      <point x="1063" y="419" type="curve" smooth="yes"/>
      <point x="1062" y="451" type="line"/>
      <point x="1024" y="451" type="line"/>
      <point x="1023" y="419" type="line" smooth="yes"/>
      <point x="1014.27" y="139.666"/>
      <point x="875" y="5"/>
      <point x="583" y="5" type="curve" smooth="yes"/>
      <point x="328" y="5"/>
      <point x="193" y="96.6275"/>
      <point x="193" y="251" type="curve" smooth="yes"/>
      <point x="193" y="258" type="line" smooth="yes"/>
      <point x="193" y="401"/>
      <point x="291" y="469"/>
      <point x="549" y="541" type="curve" smooth="yes"/>
      <point x="686" y="579" type="line" smooth="yes"/>
      <point x="933" y="648"/>
      <point x="1021" y="723"/>
      <point x="1021" y="870" type="curve" smooth="yes"/>
      <point x="1021" y="875" type="line" smooth="yes"/>
      <point x="1021" y="1059"/>
      <point x="878" y="1157"/>
    </contour>
    <contour>
      <point x="1213" y="1089" type="line"/>
      <point x="1540" y="1089" type="line"/>
      <point x="1540" y="1122" type="line"/>
      <point x="1213" y="1122" type="line"/>
    </contour>
  </outline>
  <guideline angle="0" x="0" y="4833"/>
  <guideline angle="90" x="3317" y="0"/>
  <guideline angle="90" x="1043" y="0"/>
</glyph>
<glyph name="BamatraI.kn.1" format="2">
  <advance width="2127"/>
  <outline>
    <contour>
      <point x="614" y="1157" type="curve" smooth="yes"/>
      <point x="337" y="1157"/>
      <point x="188" y="1042"/>
      <point x="188" y="822" type="curve" smooth="yes"/>
      <point x="188" y="819" type="line" smooth="yes"/>
      <point x="188" y="754"/>
      <point x="202" y="694"/>
      <point x="230" y="639" type="curve"/>
      <point x="271" y="639" type="line"/>
      <point x="241" y="696"/>
      <point x="226" y="757"/>
      <point x="226" y="819" type="curve" smooth="yes"/>
      <point x="226" y="822" type="line" smooth="yes"/>
      <point x="226" y="1019.34"/>
      <point x="360" y="1122"/>
      <point x="613" y="1122" type="curve" smooth="yes"/>
      <point x="853" y="1122"/>
      <point x="983" y="1037.34"/>
      <point x="983" y="875" type="curve" smooth="yes"/>
      <point x="983" y="869" type="line" smooth="yes"/>
      <point x="983" y="740.5"/>
      <point x="902.878" y="675.198"/>
      <point x="674" y="612" type="curve" smooth="yes"/>
      <point x="540" y="575" type="line" smooth="yes"/>
      <point x="256.973" y="496.851"/>
      <point x="155" y="422.519"/>
      <point x="155" y="258" type="curve" smooth="yes"/>
      <point x="155" y="251" type="line" smooth="yes"/>
      <point x="155" y="74"/>
      <point x="305.098" y="-30"/>
      <point x="591" y="-30" type="curve" smooth="yes"/>
      <point x="895.85" y="-30"/>
      <point x="1039.61" y="108"/>
      <point x="1060" y="323" type="curve"/>
      <point x="1071" y="323" type="line"/>
      <point x="1071" y="451" type="line"/>
      <point x="1042" y="451" type="line"/>
      <point x="1041" y="419" type="line" smooth="yes"/>
      <point x="1032.27" y="139.66"/>
      <point x="889.973" y="5"/>
      <point x="592" y="5" type="curve" smooth="yes"/>
      <point x="331.115" y="5"/>
      <point x="193" y="96.6275"/>
      <point x="193" y="251" type="curve" smooth="yes"/>
      <point x="193" y="258" type="line" smooth="yes"/>
      <point x="193" y="401"/>
      <point x="291" y="469"/>
      <point x="549" y="541" type="curve" smooth="yes"/>
      <point x="686" y="579" type="line" smooth="yes"/>
      <point x="933" y="648"/>
      <point x="1021" y="723"/>
      <point x="1021" y="870" type="curve" smooth="yes"/>
      <point x="1021" y="875" type="line" smooth="yes"/>
      <point x="1021" y="1059"/>
      <point x="878" y="1157"/>
    </contour>
    <contour>
      <point x="1960" y="646" type="curve" smooth="yes"/>
      <point x="1960" y="651" type="line" smooth="yes"/>
      <point x="1960" y="931.877"/>
      <point x="1882.3" y="1294"/>
      <point x="1501.87" y="1294" type="curve" smooth="yes"/>
      <point x="1280.87" y="1294"/>
      <point x="1157.87" y="1195"/>
      <point x="1157.87" y="1018" type="curve" smooth="yes"/>
      <point x="1157.87" y="1013" type="line" smooth="yes"/>
      <point x="1157.87" y="837"/>
      <point x="1280.87" y="740"/>
      <point x="1506.87" y="740" type="curve" smooth="yes"/>
      <point x="1714.53" y="740"/>
      <point x="1840.14" y="846.493"/>
      <point x="1897.87" y="977" type="curve"/>
      <point x="1888.87" y="1023" type="line"/>
      <point x="1829.09" y="881.286"/>
      <point x="1706.48" y="775"/>
      <point x="1507.87" y="775" type="curve" smooth="yes"/>
      <point x="1304.87" y="775"/>
      <point x="1195.87" y="860.64"/>
      <point x="1195.87" y="1013" type="curve" smooth="yes"/>
      <point x="1195.87" y="1018" type="line" smooth="yes"/>
      <point x="1195.87" y="1173.36"/>
      <point x="1302.87" y="1259"/>
      <point x="1501.87" y="1259" type="curve" smooth="yes"/>
      <point x="1851.12" y="1259"/>
      <point x="1922" y="904.643"/>
      <point x="1922" y="652" type="curve" smooth="yes"/>
      <point x="1922" y="646" type="line" smooth="yes"/>
      <point x="1922" y="223.659"/>
      <point x="1769.35" y="5"/>
      <point x="1480" y="5" type="curve" smooth="yes"/>
      <point x="1215.38" y="5"/>
      <point x="1089.73" y="139.657"/>
      <point x="1081" y="419" type="curve" smooth="yes"/>
      <point x="1080" y="451" type="line"/>
      <point x="1047" y="451" type="line"/>
      <point x="1062" y="323" type="line"/>
      <point x="1079.54" y="108"/>
      <point x="1208.55" y="-30"/>
      <point x="1481" y="-30" type="curve" smooth="yes"/>
      <point x="1795.34" y="-30"/>
      <point x="1960" y="201"/>
    </contour>
  </outline>
</glyph>
<glyph name="Basmall1.kn" format="2">
  <outline>
    <contour>
      <point x="-142" y="-193" type="curve" smooth="yes"/>
      <point x="-153" y="-193"/>
      <point x="-165" y="-194"/>
      <point x="-175" y="-195" type="curve"/>
      <point x="-175" y="-228" type="line"/>
      <point x="-165" y="-227"/>
      <point x="-153" y="-226"/>
      <point x="-142" y="-226" type="curve" smooth="yes"/>
      <point x="28" y="-226"/>
      <point x="118" y="-323"/>
      <point x="118" y="-497" type="curve" smooth="yes"/>
      <point x="118" y="-501" type="line" smooth="yes"/>
      <point x="118" y="-652"/>
      <point x="43" y="-742"/>
      <point x="-96" y="-742" type="curve" smooth="yes"/>
      <point x="-232" y="-742"/>
      <point x="-294.81" y="-679.991"/>
      <point x="-301" y="-550" type="curve" smooth="yes"/>
      <point x="-302" y="-529" type="line"/>
      <point x="-324" y="-529" type="line"/>
      <point x="-318" y="-622" type="line"/>
      <point x="-300" y="-722"/>
      <point x="-222" y="-775"/>
      <point x="-96" y="-775" type="curve" smooth="yes"/>
      <point x="69" y="-775"/>
      <point x="153" y="-673"/>
      <point x="153" y="-501" type="curve" smooth="yes"/>
      <point x="153" y="-497" type="line" smooth="yes"/>
      <point x="153" y="-303"/>
      <point x="50" y="-193"/>
    </contour>
    <contour>
      <point x="-551" y="-186" type="curve" smooth="yes"/>
      <point x="-707" y="-186"/>
      <point x="-790" y="-244"/>
      <point x="-790" y="-354" type="curve"/>
      <point x="-790" y="-354"/>
      <point x="-790" y="-355"/>
      <point x="-790" y="-355" type="curve"/>
      <point x="-790" y="-389"/>
      <point x="-783" y="-419"/>
      <point x="-767" y="-448" type="curve"/>
      <point x="-731" y="-448" type="line"/>
      <point x="-748" y="-417"/>
      <point x="-755" y="-388"/>
      <point x="-755" y="-355" type="curve"/>
      <point x="-755" y="-355"/>
      <point x="-755" y="-354"/>
      <point x="-755" y="-354" type="curve"/>
      <point x="-755" y="-265"/>
      <point x="-685" y="-219"/>
      <point x="-551" y="-219" type="curve" smooth="yes"/>
      <point x="-426" y="-219"/>
      <point x="-358" y="-257"/>
      <point x="-358" y="-330" type="curve"/>
      <point x="-358" y="-332" type="line"/>
      <point x="-358" y="-391"/>
      <point x="-402.965" y="-416.142"/>
      <point x="-520" y="-445" type="curve" smooth="yes"/>
      <point x="-593" y="-463" type="line" smooth="yes"/>
      <point x="-747.006" y="-500.974"/>
      <point x="-808" y="-541"/>
      <point x="-808" y="-624" type="curve"/>
      <point x="-808" y="-626" type="line"/>
      <point x="-808" y="-722"/>
      <point x="-723" y="-775"/>
      <point x="-572" y="-775" type="curve" smooth="yes"/>
      <point x="-426" y="-775"/>
      <point x="-341" y="-722"/>
      <point x="-320" y="-622" type="curve"/>
      <point x="-306" y="-622" type="line"/>
      <point x="-305" y="-529" type="line"/>
      <point x="-335" y="-529" type="line"/>
      <point x="-336" y="-551" type="line" smooth="yes"/>
      <point x="-341.728" y="-677.013"/>
      <point x="-416" y="-742"/>
      <point x="-570" y="-742" type="curve" smooth="yes"/>
      <point x="-702" y="-742"/>
      <point x="-773" y="-701"/>
      <point x="-773" y="-626" type="curve"/>
      <point x="-773" y="-624" type="line"/>
      <point x="-773" y="-560"/>
      <point x="-717.99" y="-527.039"/>
      <point x="-584" y="-494" type="curve" smooth="yes"/>
      <point x="-511" y="-476" type="line" smooth="yes"/>
      <point x="-377.01" y="-442.961"/>
      <point x="-323" y="-408"/>
      <point x="-323" y="-332" type="curve"/>
      <point x="-323" y="-330" type="line"/>
      <point x="-323" y="-236"/>
      <point x="-403" y="-186"/>
    </contour>
  </outline>
</glyph>
<glyph name="BhamatraE.kn" format="2">
  <advance width="2061"/>
  <outline>
    <component base="BamatraE.kn"/>
    <contour>
      <point x="1042" y="-383" type="curve" smooth="yes"/>
      <point x="1063" y="-383"/>
      <point x="1071" y="-368"/>
      <point x="1071" y="-336" type="curve" smooth="yes"/>
      <point x="1071" y="-269" type="line" smooth="yes"/>
      <point x="1071" y="-98"/>
      <point x="1064" y="16"/>
      <point x="1042" y="111" type="curve"/>
      <point x="1021" y="16"/>
      <point x="1014" y="-98"/>
      <point x="1014" y="-269" type="curve" smooth="yes"/>
      <point x="1014" y="-336" type="line" smooth="yes"/>
      <point x="1014" y="-368"/>
      <point x="1022" y="-383"/>
    </contour>
  </outline>
  <guideline angle="90" x="1312" y="0"/>
  <guideline angle="90" x="155" y="0"/>
</glyph>
<glyph name="Bhasmall1.kn" format="2">
  <outline>
    <component base="Basmall1.kn"/>
    <contour>
      <point x="-320" y="-690" type="curve"/>
      <point x="-339" y="-757"/>
      <point x="-342" y="-818"/>
      <point x="-342" y="-899" type="curve" smooth="yes"/>
      <point x="-342" y="-942" type="line" smooth="yes"/>
      <point x="-342" y="-965"/>
      <point x="-336" y="-977"/>
      <point x="-319" y="-977" type="curve" smooth="yes"/>
      <point x="-302" y="-977"/>
      <point x="-296" y="-965"/>
      <point x="-296" y="-942" type="curve" smooth="yes"/>
      <point x="-296" y="-899" type="line" smooth="yes"/>
      <point x="-296" y="-818"/>
      <point x="-302" y="-755"/>
    </contour>
  </outline>
</glyph>
<glyph name="CamatraU.kn" format="2">
  <advance width="2948"/>
  <outline>
    <component base="Ca.kn"/>
    <contour>
      <point x="2272" y="1141" type="curve" smooth="yes"/>
      <point x="2251" y="1141"/>
      <point x="2242" y="1140"/>
      <point x="2225" y="1139" type="curve"/>
      <point x="2225" y="1104" type="line"/>
      <point x="2238" y="1105"/>
      <point x="2252" y="1106"/>
      <point x="2271" y="1106" type="curve" smooth="yes"/>
      <point x="2576" y="1106"/>
      <point x="2744" y="902.354"/>
      <point x="2744" y="531" type="curve" smooth="yes"/>
      <point x="2744" y="522" type="line" smooth="yes"/>
      <point x="2744" y="178.981"/>
      <point x="2592" y="5"/>
      <point x="2304" y="5" type="curve" smooth="yes"/>
      <point x="2050" y="5"/>
      <point x="1904" y="124.802"/>
      <point x="1904" y="332" type="curve"/>
      <point x="1880" y="332" type="line"/>
      <point x="1880" y="265" type="line"/>
      <point x="1895.04" y="93.9"/>
      <point x="2036.37" y="-30"/>
      <point x="2305" y="-30" type="curve" smooth="yes"/>
      <point x="2618" y="-30"/>
      <point x="2782" y="158.294"/>
      <point x="2782" y="522" type="curve" smooth="yes"/>
      <point x="2782" y="529" type="line" smooth="yes"/>
      <point x="2782" y="922"/>
      <point x="2599" y="1141"/>
    </contour>
  </outline>
  <guideline angle="90" x="6022" y="0"/>
  <guideline angle="90" x="1921" y="0"/>
</glyph>
<glyph name="Casmall1.kn" format="2">
  <advance width="75"/>
  <outline>
    <contour>
      <point x="26" y="-322" type="line"/>
      <point x="-100" y="-319" type="line"/>
      <point x="-100" y="-333" type="line"/>
      <point x="46" y="-333"/>
      <point x="129" y="-413"/>
      <point x="129" y="-546" type="curve"/>
      <point x="129" y="-547" type="line"/>
      <point x="129" y="-667"/>
      <point x="60" y="-742"/>
      <point x="-70" y="-742" type="curve" smooth="yes"/>
      <point x="-214" y="-742"/>
      <point x="-284.81" y="-679.991"/>
      <point x="-291" y="-550" type="curve" smooth="yes"/>
      <point x="-292" y="-529" type="line"/>
      <point x="-314" y="-529" type="line"/>
      <point x="-308" y="-622" type="line"/>
      <point x="-287" y="-722"/>
      <point x="-205" y="-775"/>
      <point x="-70" y="-775" type="curve" smooth="yes"/>
      <point x="82" y="-775"/>
      <point x="164" y="-686"/>
      <point x="164" y="-547" type="curve"/>
      <point x="164" y="-546" type="line"/>
      <point x="164" y="-448"/>
      <point x="123" y="-370"/>
      <point x="26" y="-333" type="curve"/>
    </contour>
    <contour>
      <point x="205" y="-333" type="line"/>
      <point x="205" y="-302" type="line"/>
      <point x="16" y="-303" type="line"/>
      <point x="-38" y="-308" type="line"/>
      <point x="-38" y="-302" type="line"/>
      <point x="-209" y="-302" type="line"/>
      <point x="-209" y="-333" type="line"/>
      <point x="-48" y="-333" type="line"/>
      <point x="-48" y="-327" type="line"/>
      <point x="26" y="-332" type="line"/>
    </contour>
    <contour>
      <point x="16" y="-313" type="line"/>
      <point x="16" y="-302" type="line"/>
      <point x="86" y="-265.357"/>
      <point x="114" y="-182.648"/>
      <point x="114" y="-79" type="curve" smooth="yes"/>
      <point x="114" y="-73" type="line" smooth="yes"/>
      <point x="114" y="24"/>
      <point x="83" y="110"/>
      <point x="28" y="172" type="curve"/>
      <point x="-11" y="172" type="line"/>
      <point x="49" y="105"/>
      <point x="79" y="24"/>
      <point x="79" y="-73" type="curve" smooth="yes"/>
      <point x="79" y="-79" type="line" smooth="yes"/>
      <point x="79" y="-217.197"/>
      <point x="22" y="-302"/>
      <point x="-80" y="-302" type="curve"/>
      <point x="-80" y="-316" type="line"/>
    </contour>
    <contour>
      <point x="-541" y="-186" type="curve" smooth="yes"/>
      <point x="-697" y="-186"/>
      <point x="-780" y="-244"/>
      <point x="-780" y="-354" type="curve"/>
      <point x="-780" y="-354"/>
      <point x="-780" y="-355"/>
      <point x="-780" y="-355" type="curve"/>
      <point x="-780" y="-389"/>
      <point x="-773" y="-419"/>
      <point x="-757" y="-448" type="curve"/>
      <point x="-721" y="-448" type="line"/>
      <point x="-738" y="-417"/>
      <point x="-745" y="-388"/>
      <point x="-745" y="-355" type="curve"/>
      <point x="-745" y="-355"/>
      <point x="-745" y="-354"/>
      <point x="-745" y="-354" type="curve"/>
      <point x="-745" y="-265"/>
      <point x="-675" y="-219"/>
      <point x="-541" y="-219" type="curve" smooth="yes"/>
      <point x="-416" y="-219"/>
      <point x="-348" y="-257"/>
      <point x="-348" y="-330" type="curve"/>
      <point x="-348" y="-332" type="line"/>
      <point x="-348" y="-391"/>
      <point x="-392.965" y="-416.142"/>
      <point x="-510" y="-445" type="curve" smooth="yes"/>
      <point x="-583" y="-463" type="line" smooth="yes"/>
      <point x="-737.006" y="-500.974"/>
      <point x="-798" y="-541"/>
      <point x="-798" y="-624" type="curve"/>
      <point x="-798" y="-626" type="line"/>
      <point x="-798" y="-722"/>
      <point x="-713" y="-775"/>
      <point x="-562" y="-775" type="curve" smooth="yes"/>
      <point x="-416" y="-775"/>
      <point x="-331" y="-722"/>
      <point x="-310" y="-622" type="curve"/>
      <point x="-296" y="-622" type="line"/>
      <point x="-295" y="-529" type="line"/>
      <point x="-325" y="-529" type="line"/>
      <point x="-326" y="-551" type="line" smooth="yes"/>
      <point x="-331.728" y="-677.013"/>
      <point x="-406" y="-742"/>
      <point x="-560" y="-742" type="curve" smooth="yes"/>
      <point x="-692" y="-742"/>
      <point x="-763" y="-701"/>
      <point x="-763" y="-626" type="curve"/>
      <point x="-763" y="-624" type="line"/>
      <point x="-763" y="-560"/>
      <point x="-707.99" y="-527.039"/>
      <point x="-574" y="-494" type="curve" smooth="yes"/>
      <point x="-501" y="-476" type="line" smooth="yes"/>
      <point x="-367.01" y="-442.961"/>
      <point x="-313" y="-408"/>
      <point x="-313" y="-332" type="curve"/>
      <point x="-313" y="-330" type="line"/>
      <point x="-313" y="-236"/>
      <point x="-393" y="-186"/>
    </contour>
  </outline>
  <guideline angle="0" x="0" y="-289"/>
  <guideline angle="90" x="-794" y="0"/>
</glyph>
<glyph name="ChamatraAa.kn" format="2">
  <advance width="3241"/>
  <outline>
    <component base="matraAa.kn" xOffset="922"/>
    <contour>
      <point x="1966" y="514" type="curve" smooth="yes"/>
      <point x="1966" y="523" type="line" smooth="yes"/>
      <point x="1966" y="863.064"/>
      <point x="1801.37" y="1043.68"/>
      <point x="1568" y="1086.44" type="curve"/>
      <point x="1568" y="1091.24"/>
      <point x="1568" y="1102.98"/>
      <point x="1568" y="1107" type="curve"/>
      <point x="1324" y="1107" type="line"/>
      <point x="1324" y="1089" type="line"/>
      <point x="1725" y="1089"/>
      <point x="1928" y="903.328"/>
      <point x="1928" y="523" type="curve" smooth="yes"/>
      <point x="1928" y="514" type="line" smooth="yes"/>
      <point x="1928" y="176.663"/>
      <point x="1786" y="5"/>
      <point x="1512" y="5" type="curve" smooth="yes"/>
      <point x="1256" y="5"/>
      <point x="1123.73" y="139.666"/>
      <point x="1115" y="419" type="curve" smooth="yes"/>
      <point x="1114" y="451" type="line"/>
      <point x="1076" y="451" type="line"/>
      <point x="1075" y="419" type="line" smooth="yes"/>
      <point x="1066.27" y="139.666"/>
      <point x="940" y="5"/>
      <point x="673" y="5" type="curve" smooth="yes"/>
      <point x="367" y="5"/>
      <point x="204" y="200.659"/>
      <point x="204" y="579" type="curve" smooth="yes"/>
      <point x="204" y="584.55" type="line"/>
      <point x="166" y="584.55" type="line"/>
      <point x="166" y="579" type="line" smooth="yes"/>
      <point x="166" y="172"/>
      <point x="336" y="-30"/>
      <point x="672" y="-30" type="curve" smooth="yes"/>
      <point x="946.342" y="-30"/>
      <point x="1075.65" y="108.269"/>
      <point x="1094.15" y="323" type="curve"/>
      <point x="1095.91" y="323" type="line"/>
      <point x="1115.52" y="108.269"/>
      <point x="1249.47" y="-30"/>
      <point x="1513" y="-30" type="curve" smooth="yes"/>
      <point x="1812" y="-30"/>
      <point x="1966" y="156"/>
    </contour>
    <contour>
      <point x="1626" y="1089" type="line"/>
      <point x="1626" y="1122" type="line"/>
      <point x="1148" y="1122" type="line"/>
      <point x="1148" y="1089" type="line"/>
    </contour>
    <contour>
      <point x="627" y="1157" type="curve" smooth="yes"/>
      <point x="321" y="1157"/>
      <point x="166" y="946"/>
      <point x="166" y="589" type="curve" smooth="yes"/>
      <point x="166" y="583.573" type="line"/>
      <point x="204" y="583.573" type="line"/>
      <point x="204" y="589" type="line" smooth="yes"/>
      <point x="204" y="932.09"/>
      <point x="353.717" y="1122"/>
      <point x="627" y="1122" type="curve" smooth="yes"/>
      <point x="842" y="1122"/>
      <point x="959" y="1020.36"/>
      <point x="959" y="842" type="curve" smooth="yes"/>
      <point x="959" y="837" type="line" smooth="yes"/>
      <point x="959" y="661.635"/>
      <point x="838" y="561"/>
      <point x="618" y="561" type="curve" smooth="yes"/>
      <point x="427.618" y="561"/>
      <point x="285.574" y="633.226"/>
      <point x="207" y="741" type="curve"/>
      <point x="190" y="697" type="line"/>
      <point x="210" y="697" type="line"/>
      <point x="282.822" y="598"/>
      <point x="428.466" y="526"/>
      <point x="619" y="526" type="curve" smooth="yes"/>
      <point x="861" y="526"/>
      <point x="997" y="637"/>
      <point x="997" y="837" type="curve" smooth="yes"/>
      <point x="997" y="842" type="line" smooth="yes"/>
      <point x="997" y="1043"/>
      <point x="862" y="1157"/>
    </contour>
    <contour>
      <point x="1095" y="-383" type="curve" smooth="yes"/>
      <point x="1116" y="-383"/>
      <point x="1124" y="-368"/>
      <point x="1124" y="-336" type="curve" smooth="yes"/>
      <point x="1124" y="-269" type="line" smooth="yes"/>
      <point x="1124" y="-98"/>
      <point x="1117" y="16"/>
      <point x="1095" y="111" type="curve"/>
      <point x="1074" y="16"/>
      <point x="1067" y="-98"/>
      <point x="1067" y="-269" type="curve" smooth="yes"/>
      <point x="1067" y="-336" type="line" smooth="yes"/>
      <point x="1067" y="-368"/>
      <point x="1075" y="-383"/>
    </contour>
  </outline>
  <guideline angle="90" x="3468" y="0"/>
  <guideline angle="90" x="-121" y="0"/>
  <guideline angle="90" x="1363" y="0"/>
  <guideline angle="90" x="1966" y="0"/>
</glyph>
<glyph name="ChamatraI.kn.1" format="2">
  <advance width="2165"/>
  <outline>
    <contour>
      <point x="627" y="1157" type="curve" smooth="yes"/>
      <point x="321" y="1157"/>
      <point x="166" y="946"/>
      <point x="166" y="589" type="curve" smooth="yes"/>
      <point x="166" y="583.573" type="line"/>
      <point x="204" y="583.573" type="line"/>
      <point x="204" y="589" type="line" smooth="yes"/>
      <point x="204" y="932.09"/>
      <point x="353.717" y="1122"/>
      <point x="627" y="1122" type="curve" smooth="yes"/>
      <point x="842" y="1122"/>
      <point x="959" y="1020.36"/>
      <point x="959" y="842" type="curve" smooth="yes"/>
      <point x="959" y="837" type="line" smooth="yes"/>
      <point x="959" y="661.635"/>
      <point x="838" y="561"/>
      <point x="618" y="561" type="curve" smooth="yes"/>
      <point x="427.618" y="561"/>
      <point x="285.574" y="633.627"/>
      <point x="207" y="742" type="curve"/>
      <point x="190" y="697" type="line"/>
      <point x="210" y="697" type="line"/>
      <point x="282.822" y="598"/>
      <point x="428.466" y="526"/>
      <point x="619" y="526" type="curve" smooth="yes"/>
      <point x="861" y="526"/>
      <point x="997" y="637"/>
      <point x="997" y="837" type="curve" smooth="yes"/>
      <point x="997" y="842" type="line" smooth="yes"/>
      <point x="997" y="1043"/>
      <point x="862" y="1157"/>
    </contour>
    <contour>
      <point x="1998" y="646" type="curve" smooth="yes"/>
      <point x="1998" y="651" type="line" smooth="yes"/>
      <point x="1998" y="931.877"/>
      <point x="1920.52" y="1294"/>
      <point x="1540.09" y="1294" type="curve" smooth="yes"/>
      <point x="1319.09" y="1294"/>
      <point x="1196.09" y="1195"/>
      <point x="1196.09" y="1018" type="curve" smooth="yes"/>
      <point x="1196.09" y="1013" type="line" smooth="yes"/>
      <point x="1196.09" y="837"/>
      <point x="1319.09" y="740"/>
      <point x="1545.09" y="740" type="curve" smooth="yes"/>
      <point x="1752.74" y="740"/>
      <point x="1878.35" y="846.493"/>
      <point x="1936.09" y="977" type="curve"/>
      <point x="1927.09" y="1023" type="line"/>
      <point x="1867.3" y="881.286"/>
      <point x="1744.7" y="775"/>
      <point x="1546.09" y="775" type="curve" smooth="yes"/>
      <point x="1343.09" y="775"/>
      <point x="1234.09" y="860.64"/>
      <point x="1234.09" y="1013" type="curve" smooth="yes"/>
      <point x="1234.09" y="1018" type="line" smooth="yes"/>
      <point x="1234.09" y="1173.36"/>
      <point x="1341.09" y="1259"/>
      <point x="1540.09" y="1259" type="curve" smooth="yes"/>
      <point x="1889.34" y="1259"/>
      <point x="1960" y="904.643"/>
      <point x="1960" y="652" type="curve" smooth="yes"/>
      <point x="1960" y="646" type="line" smooth="yes"/>
      <point x="1960" y="223.65"/>
      <point x="1807" y="5"/>
      <point x="1515" y="5" type="curve" smooth="yes"/>
      <point x="1257" y="5"/>
      <point x="1123.75" y="139.65"/>
      <point x="1115" y="419" type="curve" smooth="yes"/>
      <point x="1114" y="451" type="line"/>
      <point x="1076" y="451" type="line"/>
      <point x="1075" y="419" type="line" smooth="yes"/>
      <point x="1066.25" y="139.65"/>
      <point x="940.001" y="5"/>
      <point x="673.001" y="5" type="curve" smooth="yes"/>
      <point x="367.001" y="5"/>
      <point x="204.001" y="200.65"/>
      <point x="204.001" y="579" type="curve" smooth="yes"/>
      <point x="204.001" y="584.55" type="line"/>
      <point x="166.001" y="584.55" type="line"/>
      <point x="166.001" y="579" type="line" smooth="yes"/>
      <point x="166.001" y="172"/>
      <point x="336.001" y="-30"/>
      <point x="672.001" y="-30" type="curve" smooth="yes"/>
      <point x="946.343" y="-30"/>
      <point x="1075.65" y="108.269"/>
      <point x="1094.15" y="323" type="curve"/>
      <point x="1095.91" y="323" type="line"/>
      <point x="1115.55" y="108.269"/>
      <point x="1250.51" y="-30"/>
      <point x="1516" y="-30" type="curve" smooth="yes"/>
      <point x="1833" y="-30"/>
      <point x="1998" y="201"/>
    </contour>
    <contour>
      <point x="1095" y="-383" type="curve" smooth="yes"/>
      <point x="1116" y="-383"/>
      <point x="1124" y="-368"/>
      <point x="1124" y="-336" type="curve" smooth="yes"/>
      <point x="1124" y="-269" type="line" smooth="yes"/>
      <point x="1124" y="-98"/>
      <point x="1117" y="16"/>
      <point x="1095" y="111" type="curve"/>
      <point x="1074" y="16"/>
      <point x="1067" y="-98"/>
      <point x="1067" y="-269" type="curve" smooth="yes"/>
      <point x="1067" y="-336" type="line" smooth="yes"/>
      <point x="1067" y="-368"/>
      <point x="1075" y="-383"/>
    </contour>
  </outline>
  <guideline angle="90" x="1364" y="0"/>
</glyph>
